<?xml version="1.0" encoding="UTF-8" standalone="no"?>
<svg
   width="400.67862"
   viewBox="0 0 400.67863 305.10593"
   version="1.1"
   id="svg36"
   sodipodi:docname="geolines.svg"
   inkscape:version="1.2 (1:1.2.1+202207142221+cd75a1ee6d)"
   xml:space="preserve"
   height="305.10593"
   inkscape:export-filename="union.png"
   inkscape:export-xdpi="149"
   inkscape:export-ydpi="149"
   xmlns:inkscape="http://www.inkscape.org/namespaces/inkscape"
   xmlns:sodipodi="http://sodipodi.sourceforge.net/DTD/sodipodi-0.dtd"
   xmlns="http://www.w3.org/2000/svg"
   xmlns:svg="http://www.w3.org/2000/svg"><sodipodi:namedview
     id="namedview38"
     pagecolor="#ffffff"
     bordercolor="#999999"
     borderopacity="1"
     inkscape:showpageshadow="0"
     inkscape:pageopacity="0"
     inkscape:pagecheckerboard="0"
     inkscape:deskcolor="#d1d1d1"
     showgrid="false"
     inkscape:zoom="1.18"
     inkscape:cx="530.08475"
     inkscape:cy="335.16949"
     inkscape:window-width="1860"
     inkscape:window-height="1016"
     inkscape:window-x="0"
     inkscape:window-y="0"
     inkscape:window-maximized="1"
     inkscape:current-layer="svg36" /><defs
     id="defs5"><pattern
       id="hatch"
       patternUnits="userSpaceOnUse"
       width="5"
       height="5"
       patternTransform="rotate(45)"><line
         x1="0"
         y1="5"
         x2="0"
         stroke="white"
         stroke-linejoin="butt"
         stroke-width="1.3333333333333333"
         stroke-opacity="0.25"
         id="line2" /></pattern><clipPath
       clipPathUnits="userSpaceOnUse"
       id="clipPath5154"><path
         d="m 464.01716,-514.53079 v 153.2701 l -132.7358,76.63504 -132.73579,-76.63504 v -153.2701 l 132.73579,-76.63504 z"
         stroke="none"
         fill="#c42727"
         id="path5156"
         style="fill:#edca3d;fill-opacity:1;stroke-width:0.999995" /></clipPath><clipPath
       clipPathUnits="userSpaceOnUse"
       id="clipPath5158"><path
         d="m 464.01716,-514.53079 v 153.2701 l -132.7358,76.63504 -132.73579,-76.63504 v -153.2701 l 132.73579,-76.63504 z"
         stroke="none"
         fill="#c42727"
         id="path5160"
         style="fill:#edca3d;fill-opacity:1;stroke-width:0.999995" /></clipPath><pattern
       id="hatch-2"
       patternUnits="userSpaceOnUse"
       width="5"
       height="5"
       patternTransform="rotate(45)"><line
         x1="0"
         y1="5"
         x2="0"
         stroke="white"
         stroke-linejoin="butt"
         stroke-width="1.3333333333333333"
         stroke-opacity="0.25"
         id="line23905" /></pattern><clipPath
       clipPathUnits="userSpaceOnUse"
       id="clipPath11782"><circle
         style="fill:#ffffff;fill-opacity:0.435798;stroke:none;stroke-width:1.9;stroke-dasharray:none;stroke-opacity:1;stop-color:#000000"
         id="circle11784"
         cx="-183.78493"
         cy="123.71002"
         r="57.799141" /></clipPath><filter
       id="pencil1"
       x="0"
       y="0"
       width="1"
       height="1"><feTurbulence
         baseFrequency="0.03"
         id="feTurbulence33986"
         result="result1" /><feDisplacementMap
         in="SourceGraphic"
         scale="5"
         in2="result1"
         id="feDisplacementMap33988"
         xChannelSelector="A"
         yChannelSelector="A" /></filter></defs><clipPath
     id="sphere"><path
       d="M 33.181299,213.59791 C 30.051971,209.24339 26.922644,204.62169 25.35798,202.31085 23.793316,200 23.793316,200 23.793316,200 c 0,0 0,0 0,0 0,0 0,0 0,0 0,0 0,0 0,0 0,0 0,0 0,0 0,0 0,0 0,0 0,0 0,0 0,0 0,0 0,0 0,0 0,0 0,0 0,0 0,0 0,0 0,0 0,0 0,0 0,0 0,0 0,0 0,0 0,0 0,0 0,0 0,0 0,0 0,0 0,0 0,0 0,0 0,0 0,0 0,0 0,0 0,0 0,0 0,0 0,0 0,0 0,0 0,0 0,0 0,0 0,0 0,0 0,0 0,0 0,0 0,0 0,0 0,0 0,0 0,0 0,0 0,0 0,0 0,0 0,0 0,0 0,0 0,0 0,0 0,0 0,0 0,0 0,0 0,0 0,0 0,0 0,0 0,0 0,0 0,0 0,0 0,0 0,0 0,0 0,0 0,0 0,0 0,0 0,0 0,0 0,0 0,0 0,0 0,0 0,0 0,0 0,0 0,0 0,0 0,0 0,0 0,0 0,0 0,0 0,0 0,0 0,0 0,0 0,0 0,0 0,0 0.1116,-0.17452 0.1116,-0.17452 0.334799,-0.52355 1.999284,-2.97236 1.664485,-2.44881 4.770255,-6.9974 7.876025,-11.28518 3.105771,-4.28779 6.211541,-8.31478 9.317311,-12.11338 3.10577,-3.7986 6.21154,-7.36882 9.31731,-10.73653 3.10577,-3.36771 6.21154,-6.53293 9.31731,-9.5165 3.105771,-2.98358 6.211541,-5.78552 9.317311,-8.42277 3.10577,-2.63725 6.21154,-5.10981 9.31731,-7.4315 3.10577,-2.3217 6.21154,-4.49254 9.31731,-6.52383 3.10577,-2.0313 6.211541,-3.92306 9.317311,-5.68456 3.105772,-1.7615 6.211542,-3.39273 9.317312,-4.90128 3.10577,-1.50854 6.21154,-2.89439 9.31731,-4.16369 3.10577,-1.26929 6.21154,-2.42203 9.31731,-3.46312 3.10577,-1.04109 6.21154,-1.97052 9.31731,-2.79212 3.10577,-0.82161 6.21154,-1.53538 9.31731,-2.14418 3.10577,-0.6088 6.21154,-1.11264 9.31731,-1.51348 3.10577,-0.40084 6.21154,-0.69868 9.31731,-0.8947 3.10577,-0.19601 6.21154,-0.29018 9.31731,-0.28289 3.10577,0.007 6.21154,0.11608 9.31731,0.32674 3.10577,0.21067 6.21154,0.52322 9.31731,0.93889 3.10577,0.41566 6.21154,0.93443 9.31731,1.55835 3.10577,0.62391 6.21154,1.35297 9.31731,2.19011 3.10577,0.83713 6.21154,1.78233 9.31731,2.83951 3.10577,1.05717 6.21154,2.22631 9.31731,3.5124 3.10577,1.2861 6.21154,2.68915 9.31731,4.21538 3.10577,1.52623 6.21154,3.17565 9.31731,4.95593 3.10577,1.78029 6.21154,3.69144 9.31731,5.74287 3.10577,2.05143 6.21154,4.24314 9.31731,6.58661 3.10577,2.34348 6.21154,4.83872 9.31731,7.49975 3.10577,2.66104 6.21154,5.48787 9.31731,8.4977 3.10577,3.00983 6.21154,6.20264 9.31731,9.59964 3.10577,3.397 6.21154,6.99818 9.31731,10.82983 3.10577,3.83165 6.21155,7.89378 9.31732,12.21934 3.10577,4.32556 6.21154,8.91455 7.76442,11.20905 C 322.61685,200 322.61685,200 322.61685,200 c 0,0 0,0 0,0 0,0 0,0 0,0 0,0 0,0 0,0 0,0 0,0 0,0 0,0 0,0 0,0 0,0 0,0 0,0 0,0 0,0 0,0 0,0 0,0 0,0 0,0 0,0 0,0 0,0 0,0 0,0 0,0 0,0 0,0 0,0 0,0 0,0 0,0 0,0 0,0 0,0 0,0 0,0 0,0 0,0 0,0 0,0 0,0 0,0 0,0 0,0 0,0 0,0 0,0 0,0 0,0 0,0 0,0 0,0 0,0 0,0 0,0 0,0 0,0 0,0 0,0 0,0 0,0 0,0 0,0 0,0 0,0 0,0 0,0 0,0 0,0 0,0 0,0 0,0 0,0 0,0 0,0 0,0 0,0 0,0 0,0 0,0 0,0 0,0 0,0 0,0 0,0 0,0 0,0 0,0 0,0 0,0 0,0 0,0 0,0 0,0 0,0 0,0 0,0 0,0 0,0 0,0 0,0 0,0 0,0 0,0 0,0 0,0 0,0 0,0 0,0 0,0 0,0 0,0 0,0 0,0 0,0 0,0 -0.11904,0.1861 -0.11904,0.18609 -0.35713,0.55829 -1.93103,2.88195 -1.5739,2.32366 -4.48362,6.59879 -7.39334,10.6432 -2.90972,4.04442 -5.81945,7.85813 -8.72917,11.46832 -2.90972,3.61019 -5.81944,7.01686 -8.72916,10.242 -2.90973,3.22515 -5.81945,6.26877 -8.72917,9.14881 -2.90972,2.88004 -5.81944,5.59651 -8.72917,8.16415 -2.90972,2.56764 -5.81944,4.98646 -8.72916,7.26862 -2.90973,2.28217 -5.81945,4.42768 -8.72917,6.44664 -2.90972,2.01896 -5.81944,3.91135 -8.72917,5.68556 -2.90972,1.77421 -5.81944,3.43024 -8.72916,4.97501 -2.90972,1.54477 -5.81945,2.97828 -8.72917,4.30627 -2.90972,1.32799 -5.81944,2.55045 -8.72916,3.67206 -2.90973,1.1216 -5.81945,2.14236 -8.72917,3.06604 -2.90972,0.92368 -5.81945,1.75028 -8.72917,2.48276 -2.90972,0.73249 -5.81944,1.37086 -8.72916,1.91735 -2.90973,0.54649 -5.81945,1.0011 -8.72917,1.3654 -2.90972,0.3643 -5.81944,0.63828 -8.72917,0.82288 -2.90972,0.1846 -5.81944,0.27982 -8.72916,0.28598 -2.90972,0.006 -5.81945,-0.0767 -8.72917,-0.24898 -2.90972,-0.17224 -5.81944,-0.43382 -8.72917,-0.78563 -2.90972,-0.35181 -5.81944,-0.79385 -8.72916,-1.32764 -2.90972,-0.53379 -5.81945,-1.15933 -8.72917,-1.87881 -2.90972,-0.71948 -5.81944,-1.53289 -8.72916,-2.44316 -2.90973,-0.91026 -5.81945,-1.91737 -8.72917,-3.02505 -2.90972,-1.10767 -5.81944,-2.31591 -8.72917,-3.62932 -2.90972,-1.31341 -5.81944,-2.732 -8.72916,-4.26141 -2.90973,-1.5294 -5.819448,-3.16963 -8.72917,-4.92752 -2.909722,-1.75789 -5.819444,-3.63345 -8.729166,-5.63493 -2.909722,-2.00148 -5.819444,-4.1289 -8.729166,-6.3922 -2.909722,-2.2633 -5.819445,-4.66249 -8.729167,-7.20959 -2.909722,-2.5471 -5.819444,-5.24211 -8.729166,-8.09958 -2.909722,-2.85747 -5.819444,-5.87741 -8.729166,-9.0775 -2.909722,-3.2001 -5.819445,-6.58036 -8.838969,-10.31417 -3.019525,-3.73381 -6.148853,-7.82117 -9.278181,-12.1757"
       id="path27" /></clipPath><rect
     style="fill:#e8e7d5;fill-opacity:1;stroke-width:1;stop-color:#000000"
     id="rect1361"
     width="400.67862"
     height="272.67038"
     x="0"
     y="0"
     rx="0"
     ry="0" /><rect
     style="fill:#f2f2f2;fill-opacity:1;stroke-width:1;stop-color:#000000"
     id="rect1361-4"
     width="400.67862"
     height="32.435547"
     x="2.2351742e-06"
     y="272.67038"
     rx="0"
     ry="0" /><rect
     style="fill:#de3b38;fill-opacity:1;stroke-width:0.999998;stop-color:#000000"
     id="rect1361-3"
     width="400.67862"
     height="52.049679"
     x="0"
     y="4.8941189e-07"
     rx="0"
     ry="0" /><g
     id="g4389"
     transform="matrix(1.4616141,0,0,1.4616141,-190.8129,-13.737566)"
     style="stroke-width:0.684175"><text
       xml:space="preserve"
       style="font-style:normal;font-weight:normal;font-size:16.7605px;line-height:1.25;font-family:sans-serif;fill:#ffffff;fill-opacity:1;stroke:none;stroke-width:0.684175"
       x="307.24359"
       y="29.942013"
       id="text1454-9-2-2"><tspan
         sodipodi:role="line"
         id="tspan1452-3-6-0"
         x="307.24359"
         y="29.942013"
         style="font-style:normal;font-variant:normal;font-weight:bold;font-stretch:normal;font-family:Roboto;-inkscape-font-specification:'Roboto Bold';fill:#ffffff;fill-opacity:1;stroke-width:0.684175">geot      lbox</tspan></text><path
       style="fill:#ffffff;fill-opacity:1;stroke-width:0.68417"
       d="m 345.79499,30.52847 c -0.13375,-0.07778 -0.15215,-0.133087 -0.15948,-0.479424 -0.004,-0.179157 -0.01,-0.438114 -0.0135,-0.575455 l -0.007,-0.249714 -0.27049,-0.131371 c -0.14878,-0.07226 -0.38469,-0.206013 -0.52427,-0.297243 l -0.25378,-0.165862 -0.41942,0.261946 c -0.52554,0.328237 -0.5809,0.351492 -0.72816,0.305932 -0.0982,-0.0304 -0.1836,-0.123498 -0.63004,-0.686853 -0.43326,-0.546685 -0.51763,-0.66956 -0.52355,-0.762451 -0.01,-0.152674 0.0489,-0.234352 0.46375,-0.646238 l 0.35057,-0.348025 -0.10201,-0.283447 c -0.0561,-0.155899 -0.12993,-0.415888 -0.16405,-0.577754 l -0.062,-0.294306 -0.11395,-0.0333 c -0.0627,-0.01831 -0.29834,-0.07786 -0.52373,-0.132276 -0.22538,-0.05445 -0.44412,-0.122054 -0.48607,-0.15024 -0.15171,-0.101919 -0.15476,-0.161625 -0.0529,-1.037649 0.0638,-0.549583 0.10694,-0.824475 0.13687,-0.874043 0.0921,-0.152481 0.1692,-0.164462 1.04796,-0.16281 0.13019,2.3e-4 0.24812,-0.0095 0.26208,-0.02165 0.014,-0.01213 0.0755,-0.131371 0.13675,-0.264931 0.0612,-0.133564 0.18333,-0.353973 0.2713,-0.489805 0.088,-0.135827 0.16143,-0.259603 0.16323,-0.275057 0.003,-0.02774 -0.2426,-0.452356 -0.42971,-0.74221 -0.12113,-0.187612 -0.15047,-0.301254 -0.1108,-0.428979 0.0251,-0.08098 0.15651,-0.199356 0.6857,-0.61795 0.81456,-0.64432 0.81303,-0.643936 1.16919,-0.291411 0.41245,0.40826 0.57329,0.5575 0.60478,0.561159 0.0187,0.0021 0.12957,-0.03106 0.24648,-0.07384 0.19786,-0.0724 0.58554,-0.178337 0.79749,-0.217917 0.10108,-0.01888 0.0798,0.0392 0.30303,-0.825668 0.0904,-0.350252 0.13093,-0.407571 0.30777,-0.435241 0.1597,-0.02499 1.56957,0.146284 1.69287,0.205658 0.15266,0.0735 0.18025,0.180702 0.17718,0.688447 -0.004,0.672116 -0.0311,0.60616 0.31768,0.775344 0.16373,0.07943 0.38854,0.204489 0.49959,0.277906 0.11104,0.07342 0.21637,0.135166 0.23405,0.137222 0.0287,0.0032 0.28296,-0.142209 0.75599,-0.432885 0.37834,-0.232481 0.39143,-0.225094 1.03007,0.5813 0.65661,0.829105 0.65535,0.823131 0.25707,1.212999 -0.45086,0.441354 -0.51629,0.509906 -0.52041,0.545309 -0.003,0.02034 0.0405,0.169426 0.0952,0.331098 0.0547,0.161674 0.12296,0.411776 0.1516,0.555788 0.0287,0.144009 0.0542,0.266012 0.0567,0.271119 0.003,0.0052 0.2388,0.06362 0.52502,0.130057 0.28622,0.06643 0.5547,0.143877 0.59662,0.172123 0.15358,0.103494 0.15848,0.190049 0.0591,1.045058 -0.12396,1.066433 -0.0974,1.03288 -0.81661,1.03375 -0.69514,8.41e-4 -0.62706,-0.0215 -0.7492,0.24583 -0.0579,0.126751 -0.18266,0.354387 -0.27724,0.505861 -0.0946,0.151474 -0.17391,0.292397 -0.17633,0.313162 -0.003,0.0207 0.0329,0.09613 0.0783,0.167479 0.28077,0.44032 0.43097,0.693913 0.46234,0.780663 0.074,0.204568 0.0317,0.255186 -0.68793,0.82401 -0.84357,0.666771 -0.80294,0.658962 -1.22969,0.236283 -0.12616,-0.124956 -0.24779,-0.245829 -0.2703,-0.268614 -0.12987,-0.131467 -0.24287,-0.230402 -0.26624,-0.233123 -0.0147,-0.0017 -0.12798,0.03238 -0.25168,0.07574 -0.21229,0.07443 -0.59402,0.177737 -0.79636,0.215516 -0.10843,0.02025 -0.1148,0.03618 -0.25582,0.639084 -0.0545,0.232874 -0.12336,0.459522 -0.15311,0.503666 -0.0986,0.146252 -0.18725,0.150433 -1.04608,0.04931 -0.57512,-0.06775 -0.80244,-0.104796 -0.86479,-0.141039 z m 1.89848,-2.741257 c 1.07427,-0.141111 1.93891,-0.822911 2.35954,-1.860576 0.12898,-0.318209 0.21353,-1.038799 0.16136,-1.372771 -0.0544,-0.346329 -0.11182,-0.552223 -0.22177,-0.795282 -0.34221,-0.756513 -0.92136,-1.297653 -1.69194,-1.580904 -0.3424,-0.125857 -0.96677,-0.19217 -1.33764,-0.142042 -0.97011,0.131092 -1.80641,0.734467 -2.23122,1.609772 -0.22691,0.467554 -0.32342,0.983083 -0.28093,1.500258 0.0256,0.311255 0.0396,0.376333 0.15933,0.740972 0.26006,0.792127 0.96235,1.481875 1.80564,1.773408 0.33949,0.117362 0.91587,0.174827 1.27785,0.127196 z"
       id="path4256-1" /><path
       style="fill:#ffffff;fill-opacity:1;stroke-width:0.68417"
       d="m 356.43959,26.545085 c -0.15222,-0.103539 -0.16941,-0.170721 -0.14906,-0.582385 0.0105,-0.21296 0.0251,-0.520804 0.0323,-0.684117 l 0.0131,-0.296923 -0.31002,-0.178616 c -0.1705,-0.09824 -0.43928,-0.276786 -0.59728,-0.39677 l -0.28728,-0.218151 -0.51978,0.2757 c -0.65128,0.345471 -0.71893,0.368429 -0.88988,0.301998 -0.11398,-0.04429 -0.20755,-0.161981 -0.69014,-0.868056 -0.46832,-0.685189 -0.55815,-0.8381 -0.55739,-0.948847 0.001,-0.18202 0.0776,-0.274047 0.60464,-0.728079 l 0.44526,-0.383637 -0.0973,-0.344968 c -0.0535,-0.189738 -0.1193,-0.504497 -0.14622,-0.699473 l -0.0489,-0.354501 -0.13244,-0.04909 c -0.0729,-0.02699 -0.34756,-0.117433 -0.61049,-0.200958 -0.26293,-0.08352 -0.51686,-0.182127 -0.56429,-0.2191 -0.17151,-0.133688 -0.17011,-0.204806 0.0242,-1.235972 0.12193,-0.646907 0.19608,-0.969562 0.23575,-1.02588 0.12206,-0.17325 0.21461,-0.181 1.25742,-0.105305 0.15449,0.0112 0.29528,0.0095 0.31287,-0.0037 0.0176,-0.01325 0.10062,-0.149584 0.18453,-0.302963 0.0839,-0.153375 0.24729,-0.404728 0.36309,-0.558557 0.11581,-0.153827 0.21338,-0.294568 0.21681,-0.312755 0.006,-0.03269 -0.24996,-0.557232 -0.44772,-0.916948 -0.12801,-0.23283 -0.15331,-0.370172 -0.0955,-0.518431 0.0367,-0.09399 0.20248,-0.223475 0.86567,-0.67588 1.02083,-0.696365 1.01899,-0.696037 1.4121,-0.24776 0.45527,0.519153 0.63365,0.709776 0.67071,0.716762 0.022,0.0041 0.15638,-0.02599 0.29873,-0.06695 0.2409,-0.06933 0.70991,-0.162532 0.96479,-0.191723 0.12155,-0.01392 0.0914,0.05321 0.42893,-0.954516 0.13668,-0.408109 0.1896,-0.47274 0.40179,-0.490743 0.19164,-0.01626 1.85057,0.305317 1.99193,0.386127 0.17501,0.100047 0.19876,0.22959 0.15252,0.831952 -0.0612,0.79736 -0.0877,0.716812 0.31198,0.946874 0.18766,0.108011 0.44399,0.275297 0.56963,0.371751 0.12563,0.09645 0.24545,0.178579 0.26627,0.182502 0.0339,0.0064 0.34776,-0.145038 0.93357,-0.450335 0.46853,-0.244181 0.48346,-0.234311 1.17375,0.776342 0.70974,1.039121 0.70874,1.031927 0.20333,1.461222 -0.57214,0.485991 -0.65554,0.561862 -0.6634,0.603534 -0.005,0.02404 0.0338,0.204478 0.0852,0.400955 0.0514,0.196475 0.11138,0.499031 0.13329,0.672357 0.0219,0.173322 0.042,0.320259 0.0445,0.326533 0.003,0.0064 0.27808,0.09555 0.61222,0.198406 0.33413,0.102846 0.64627,0.217304 0.69364,0.254345 0.1736,0.135716 0.17215,0.238855 -0.0175,1.245284 -0.2366,1.2553 -0.20231,1.2177 -1.05594,1.158386 -0.82509,-0.05733 -0.74242,-0.07813 -0.90981,0.228901 -0.0793,0.145579 -0.24654,0.405276 -0.37148,0.577121 -0.12495,0.171841 -0.23095,0.332437 -0.23556,0.356879 -0.005,0.02443 0.0309,0.116845 0.0789,0.205348 0.29629,0.546152 0.45326,0.859733 0.48322,0.965323 0.0706,0.249002 0.0162,0.305533 -0.88561,0.920255 -1.05714,0.720574 -1.00827,0.71472 -1.47929,0.177249 -0.13924,-0.158888 -0.27346,-0.312554 -0.29826,-0.34148 -0.14311,-0.166932 -0.26891,-0.293834 -0.29643,-0.299021 -0.0173,-0.0033 -0.15461,0.02768 -0.30506,0.06878 -0.2582,0.07052 -0.71993,0.161104 -0.96324,0.188963 -0.13039,0.01493 -0.13929,0.03331 -0.35725,0.737034 -0.0842,0.271803 -0.18497,0.535033 -0.22397,0.584926 -0.12924,0.165311 -0.23486,0.16283 -1.24569,-0.02925 -0.67689,-0.128683 -0.94358,-0.191691 -1.01454,-0.239962 z m 2.48323,-3.094164 c 1.28683,-0.07734 2.37023,-0.813987 2.95653,-2.010247 0.17979,-0.366844 0.34059,-1.214983 0.30639,-1.615793 -0.0355,-0.415607 -0.0864,-0.664786 -0.19647,-0.962486 -0.34269,-0.926587 -0.98463,-1.617432 -1.87543,-2.018267 -0.39582,-0.178104 -1.13129,-0.309189 -1.57566,-0.280828 -1.16237,0.07419 -2.20557,0.720132 -2.7832,1.723344 -0.30855,0.53588 -0.46634,1.139636 -0.45921,1.757036 0.004,0.371565 0.0154,0.449979 0.12694,0.892797 0.24218,0.961955 1.01781,1.839508 1.99421,2.256276 0.39308,0.167779 1.07236,0.284234 1.50595,0.258178 z"
       id="path4256-1-8-9" /><rect
       style="font-variation-settings:normal;fill:#ffffff;fill-opacity:1;stroke:none;stroke-width:13.6835;stroke-linecap:round;stroke-linejoin:round;stroke-miterlimit:4;stroke-dasharray:none;stroke-dashoffset:0;stroke-opacity:1;stop-color:#000000"
       id="rect24426"
       width="12.457413"
       height="12.457413"
       x="353.25241"
       y="28.874289"
       ry="5.6028881"
       rx="5.6028881" /><text
       xml:space="preserve"
       style="font-style:normal;font-weight:normal;font-size:9.06636px;line-height:1.25;font-family:sans-serif;fill:#de3b38;fill-opacity:1;stroke:none;stroke-width:0.684175"
       x="354.48523"
       y="37.494022"
       id="text24706"><tspan
         sodipodi:role="line"
         id="tspan24704"
         x="354.48523"
         y="37.494022"
         style="font-style:normal;font-variant:normal;font-weight:bold;font-stretch:normal;font-size:9.06636px;font-family:Roboto;-inkscape-font-specification:'Roboto Bold';fill:#de3b38;fill-opacity:1;stroke-width:0.684175">.js</tspan></text></g><text
     xml:space="preserve"
     style="font-style:normal;font-weight:normal;font-size:40px;line-height:1.25;font-family:sans-serif;fill:#ffffff;fill-opacity:1;stroke:none;stroke-width:0.999998"
     x="11.523982"
     y="41.034603"
     id="text1624"><tspan
       sodipodi:role="line"
       id="tspan1622"
       x="11.523982"
       y="41.034603"
       style="font-style:normal;font-variant:normal;font-weight:bold;font-stretch:normal;font-size:40px;font-family:roboto;-inkscape-font-specification:'roboto Bold';fill:#ffffff;fill-opacity:1;stroke-width:0.999998">geolines</tspan></text><text
     xml:space="preserve"
     style="font-style:normal;font-weight:normal;font-size:20px;line-height:1.25;font-family:sans-serif;fill:#000000;fill-opacity:1;stroke:none"
     x="130.49556"
     y="293.3364"
     id="text6596"><tspan
       sodipodi:role="line"
       id="tspan6594"
       x="130.49556"
       y="293.3364"
       style="font-style:normal;font-variant:normal;font-weight:normal;font-stretch:normal;font-size:20px;font-family:'Courier New';-inkscape-font-specification:'Courier New'">geolines()</tspan></text><path
     style="fill:#ffffff;fill-opacity:1;stroke:none;stroke-width:0.461654"
     d="m 269.72579,140.28053 c 0,0 0,0 0,0 0,0 0,0 0,0 0,0 0,0 0,0"
     id="path42112" /><path
     style="fill:#ffffff;fill-opacity:1;stroke:none;stroke-width:0.461654"
     d="m 331.20072,137.80608 c 0,0 0,0 0,0 0,0 0,0 0,0 0,0 0,0 0,0"
     id="path42110" /><path
     style="fill:#ffffff;fill-opacity:1;stroke:none;stroke-width:0.461654"
     d="m 157.38874,81.700229 c 0,0 0,0 0,0 0,0 0,0 0,0 0,0 0,0 0,0"
     id="path42108" /><path
     style="fill:#ffffff;fill-opacity:1;stroke:none;stroke-width:0.461654"
     d="m 181.42304,107.21999 c -1.25153,-0.057 -3.47724,-0.65879 -3.555,-1.42658 -0.0778,-0.7678 1.99242,-1.70159 3.24395,-1.64459 1.25152,0.057 1.68439,1.10476 1.76216,1.87255 0.0778,0.7678 -0.19958,1.25562 -1.45111,1.19862"
     id="path42106" /><path
     style="fill:#ffffff;fill-opacity:1;stroke:none;stroke-width:0.461654"
     d="m 182.56901,102.62968 c 0,0 0,0 0,0 0,0 0,0 0,0 0,0 0,0 0,0"
     id="path42104" /><path
     style="fill:#ffffff;fill-opacity:1;stroke:none;stroke-width:0.461654"
     d="m 180.27171,100.18789 c 0,0 0,0 0,0 0,0 0,0 0,0 0,0 0,0 0,0"
     id="path42102" /><path
     style="fill:#ffffff;fill-opacity:1;stroke:none;stroke-width:0.461654"
     d="m 181.09602,98.685925 c 0,0 0,0 0,0 0,0 0,0 0,0 0,0 0,0 0,0"
     id="path42100" /><path
     style="fill:#ffffff;fill-opacity:1;stroke:none;stroke-width:0.461654"
     d="m 178.82367,101.51905 c 0,0 0,0 0,0 0,0 0,0 0,0 0,0 0,0 0,0"
     id="path42098" /><path
     style="fill:#ffffff;fill-opacity:1;stroke:none;stroke-width:0.461654"
     d="m 179.69684,98.445307 c 0,0 0,0 0,0 0,0 0,0 0,0 0,0 0,0 0,0"
     id="path42096" /><path
     style="fill:#ffffff;fill-opacity:1;stroke:none;stroke-width:0.461654"
     d="m 180.12915,96.774979 c 0,0 0,0 0,0 0,0 0,0 0,0 0,0 0,0 0,0"
     id="path42094" /><path
     style="fill:#ffffff;fill-opacity:1;stroke:none;stroke-width:0.461654"
     d="m 176.93218,101.43977 c 0,0 0,0 0,0 0,0 0,0 0,0 0,0 0,0 0,0"
     id="path42092" /><path
     style="fill:#ffffff;fill-opacity:1;stroke:none;stroke-width:0.461654"
     d="m 178.31257,98.099238 c 0,0 0,0 0,0 0,0 0,0 0,0 0,0 0,0 0,0"
     id="path42090" /><path
     style="fill:#ffffff;fill-opacity:1;stroke:none;stroke-width:0.461654"
     d="m 176.84874,100.57094 c 0,0 0,0 0,0 0,0 0,0 0,0 0,0 0,0 0,0"
     id="path42088" /><path
     style="fill:#ffffff;fill-opacity:1;stroke:none;stroke-width:0.461654"
     d="m 175.26799,101.46484 c 0,0 0,0 0,0 0,0 0,0 0,0 0,0 0,0 0,0"
     id="path42086" /><path
     style="fill:#ffffff;fill-opacity:1;stroke:none;stroke-width:0.461654"
     d="m 178.64841,93.818328 c 0,0 0,0 0,0 0,0 0,0 0,0 0,0 0,0 0,0"
     id="path42084" /><path
     style="fill:#ffffff;fill-opacity:1;stroke:none;stroke-width:0.461654"
     d="m 173.38599,101.82049 c 0,0 0,0 0,0 0,0 0,0 0,0 0,0 0,0 0,0"
     id="path42082" /><path
     style="fill:#ffffff;fill-opacity:1;stroke:none;stroke-width:0.461654"
     d="m 173.9484,99.606864 c 0,0 0,0 0,0 0,0 0,0 0,0 0,0 0,0 0,0"
     id="path42080" /><path
     style="fill:#ffffff;fill-opacity:1;stroke:none;stroke-width:0.461654"
     d="m 169.55624,108.41295 c -0.64096,-0.0767 -0.68089,-2.59203 -0.0599,-3.77303 0.62099,-1.18099 1.90291,-1.02764 1.92288,0.23004 0.0199,1.25768 -1.22203,3.61967 -1.86299,3.54299"
     id="path42078" /><path
     style="fill:#ffffff;fill-opacity:1;stroke:none;stroke-width:0.461654"
     d="m 172.46873,105.50698 c 0,0 0,0 0,0 0,0 0,0 0,0 0,0 0,0 0,0"
     id="path42076" /><path
     style="fill:#ffffff;fill-opacity:1;stroke:none;stroke-width:0.461654"
     d="m 175.83003,95.109781 c 0,0 0,0 0,0 0,0 0,0 0,0 0,0 0,0 0,0"
     id="path42074" /><path
     style="fill:#ffffff;fill-opacity:1;stroke:none;stroke-width:0.461654"
     d="m 169.65423,99.366061 c 0,0 0,0 0,0 0,0 0,0 0,0 0,0 0,0 0,0"
     id="path42072" /><path
     style="fill:#ffffff;fill-opacity:1;stroke:none;stroke-width:0.461654"
     d="m 166.45592,108.92682 c 0,0 0,0 0,0 0,0 0,0 0,0 0,0 0,0 0,0"
     id="path42070" /><path
     style="fill:#ffffff;fill-opacity:1;stroke:none;stroke-width:0.461654"
     d="m 163.08303,105.46864 c 0,0 0,0 0,0 0,0 0,0 0,0 0,0 0,0 0,0"
     id="path42068" /><path
     style="fill:#ffffff;fill-opacity:1;stroke:none;stroke-width:0.461654"
     d="m 159.70303,108.11266 c 0,0 0,0 0,0 0,0 0,0 0,0 0,0 0,0 0,0"
     id="path42066" /><path
     style="fill:#ffffff;fill-opacity:1;stroke:none;stroke-width:0.461654"
     d="m 164.88715,79.506216 c 0,0 0,0 0,0 0,0 0,0 0,0 0,0 0,0 0,0"
     id="path42064" /><path
     style="fill:#ffffff;fill-opacity:1;stroke:none;stroke-width:0.461654"
     d="m 151.01888,129.74395 c 0,0 0,0 0,0 0,0 0,0 0,0 0,0 0,0 0,0"
     id="path42062" /><path
     style="fill:#ffffff;fill-opacity:1;stroke:none;stroke-width:0.461654"
     d="m 145.22372,130.46682 c 0,0 0,0 0,0 0,0 0,0 0,0 0,0 0,0 0,0"
     id="path42060" /><path
     style="fill:#ffffff;fill-opacity:1;stroke:none;stroke-width:0.461654"
     d="m 144.03996,127.94921 c 0,0 0,0 0,0 0,0 0,0 0,0 0,0 0,0 0,0"
     id="path42058" /><path
     style="fill:#ffffff;fill-opacity:1;stroke:none;stroke-width:0.461654"
     d="m 327.8672,127.06069 c 0,0 0,0 0,0 0,0 0,0 0,0 0,0 0,0 0,0"
     id="path42056" /><path
     style="fill:#ffffff;fill-opacity:1;stroke:none;stroke-width:0.461654"
     d="m 195.88537,77.670159 c 0,0 0,0 0,0 0,0 0,0 0,0 0,0 0,0 0,0"
     id="path42054" /><path
     style="fill:#ffffff;fill-opacity:1;stroke:none;stroke-width:0.461654"
     d="m 192.85433,73.889991 c 0,0 0,0 0,0 0,0 0,0 0,0 0,0 0,0 0,0"
     id="path42052" /><path
     style="fill:#ffffff;fill-opacity:1;stroke:none;stroke-width:0.461654"
     d="m 170.99133,79.810561 c 0,0 0,0 0,0 0,0 0,0 0,0 0,0 0,0 0,0"
     id="path42050" /><path
     style="fill:#ffffff;fill-opacity:1;stroke:none;stroke-width:0.461654"
     d="m 171.08456,79.630571 c 0,0 0,0 0,0 0,0 0,0 0,0 0,0 0,0 0,0"
     id="path42048" /><path
     style="fill:#ffffff;fill-opacity:1;stroke:none;stroke-width:0.461654"
     d="m 183.36318,72.865134 c 0,0 0,0 0,0 0,0 0,0 0,0 0,0 0,0 0,0"
     id="path42046" /><path
     style="fill:#ffffff;fill-opacity:1;stroke:none;stroke-width:0.461654"
     d="m 170.29959,79.246568 c 0,0 0,0 0,0 0,0 0,0 0,0 0,0 0,0 0,0"
     id="path42044" /><path
     style="fill:#ffffff;fill-opacity:1;stroke:none;stroke-width:0.461654"
     d="m 168.16333,79.97755 c 0,0 0,0 0,0 0,0 0,0 0,0 0,0 0,0 0,0"
     id="path42042" /><path
     style="fill:#ffffff;fill-opacity:1;stroke:none;stroke-width:0.461654"
     d="m 191.33444,68.646312 c 0,0 0,0 0,0 0,0 0,0 0,0 0,0 0,0 0,0"
     id="path42040" /><path
     style="fill:#ffffff;fill-opacity:1;stroke:none;stroke-width:0.461654"
     d="m 108.7696,68.917469 c 0,0 0,0 0,0 0,0 0,0 0,0 0,0 0,0 0,0"
     id="path42038" /><path
     style="fill:#ffffff;fill-opacity:1;stroke:none;stroke-width:0.461654"
     d="m 268.17318,125.69747 c 0,0 0,0 0,0 0,0 0,0 0,0 0,0 0,0 0,0"
     id="path42036" /><path
     style="fill:#ffffff;fill-opacity:1;stroke:none;stroke-width:0.461654"
     d="m 115.67733,164.55828 c 0,0 0,0 0,0 0,0 0,0 0,0 0,0 0,0 0,0"
     id="path42034" /><path
     style="fill:#ffffff;fill-opacity:1;stroke:none;stroke-width:0.461654"
     d="m 316.0722,123.00568 c 0,0 0,0 0,0 0,0 0,0 0,0 0,0 0,0 0,0"
     id="path42032" /><path
     style="fill:#ffffff;fill-opacity:1;stroke:none;stroke-width:0.461654"
     d="m 317.76316,122.01502 c 0,0 0,0 0,0 0,0 0,0 0,0 0,0 0,0 0,0"
     id="path42030" /><path
     style="fill:#ffffff;fill-opacity:1;stroke:none;stroke-width:0.461654"
     d="m 318.53452,124.65578 c 0,0 0,0 0,0 0,0 0,0 0,0 0,0 0,0 0,0"
     id="path42028" /><path
     style="fill:#ffffff;fill-opacity:1;stroke:none;stroke-width:0.461654"
     d="m 320.07671,123.71343 c 0,0 0,0 0,0 0,0 0,0 0,0 0,0 0,0 0,0"
     id="path42026" /><path
     style="fill:#ffffff;fill-opacity:1;stroke:none;stroke-width:0.461654"
     d="m 116.62453,151.08859 c 0,0 0,0 0,0 0,0 0,0 0,0 0,0 0,0 0,0"
     id="path42024" /><path
     style="fill:#ffffff;fill-opacity:1;stroke:none;stroke-width:0.461654"
     d="m 307.8621,123.91243 c 0,0 0,0 0,0 0,0 0,0 0,0 0,0 0,0 0,0"
     id="path42022" /><path
     style="fill:#ffffff;fill-opacity:1;stroke:none;stroke-width:0.461654"
     d="m 309.96852,124.62794 c 0,0 0,0 0,0 0,0 0,0 0,0 0,0 0,0 0,0"
     id="path42020" /><path
     style="fill:#ffffff;fill-opacity:1;stroke:none;stroke-width:0.461654"
     d="m 312.31612,123.77628 c 0,0 0,0 0,0 0,0 0,0 0,0 0,0 0,0 0,0"
     id="path42018" /><path
     style="fill:#ffffff;fill-opacity:1;stroke:none;stroke-width:0.461654"
     d="m 275.23745,132.19305 c 0,0 0,0 0,0 0,0 0,0 0,0 0,0 0,0 0,0"
     id="path42016" /><path
     style="fill:#ffffff;fill-opacity:1;stroke:none;stroke-width:0.461654"
     d="m 280.64927,136.77246 c 0,0 0,0 0,0 0,0 0,0 0,0 0,0 0,0 0,0"
     id="path42014" /><path
     style="fill:#ffffff;fill-opacity:1;stroke:none;stroke-width:0.461654"
     d="m 282.85854,133.89769 c 0,0 0,0 0,0 0,0 0,0 0,0 0,0 0,0 0,0"
     id="path42012" /><path
     style="fill:#ffffff;fill-opacity:1;stroke:none;stroke-width:0.461654"
     d="m 282.69372,137.23211 c 0,0 0,0 0,0 0,0 0,0 0,0 0,0 0,0 0,0"
     id="path42010" /><path
     style="fill:#ffffff;fill-opacity:1;stroke:none;stroke-width:0.461654"
     d="m 283.82976,135.44427 c 0,0 0,0 0,0 0,0 0,0 0,0 0,0 0,0 0,0"
     id="path42008" /><path
     style="fill:#ffffff;fill-opacity:1;stroke:none;stroke-width:0.461654"
     d="m 281.94783,139.90739 c 0,0 0,0 0,0 0,0 0,0 0,0 0,0 0,0 0,0"
     id="path42006" /><path
     style="fill:#ffffff;fill-opacity:1;stroke:none;stroke-width:0.461654"
     d="m 284.0357,136.23888 c 0,0 0,0 0,0 0,0 0,0 0,0 0,0 0,0 0,0"
     id="path42004" /><path
     style="fill:#ffffff;fill-opacity:1;stroke:none;stroke-width:0.461654"
     d="m 283.85305,137.04957 c 0,0 0,0 0,0 0,0 0,0 0,0 0,0 0,0 0,0"
     id="path42002" /><path
     style="fill:#ffffff;fill-opacity:1;stroke:none;stroke-width:0.461654"
     d="m 286.13467,136.06285 c 0,0 0,0 0,0 0,0 0,0 0,0 0,0 0,0 0,0"
     id="path42000" /><path
     style="fill:#ffffff;fill-opacity:1;stroke:none;stroke-width:0.461654"
     d="m 346.17711,155.47721 c 0,0 0,0 0,0 0,0 0,0 0,0 0,0 0,0 0,0"
     id="path41998" /><path
     style="fill:#ffffff;fill-opacity:1;stroke:none;stroke-width:0.461654"
     d="m 347.91338,165.23243 c 0,0 0,0 0,0 0,0 0,0 0,0 0,0 0,0 0,0"
     id="path41996" /><path
     style="fill:#ffffff;fill-opacity:1;stroke:none;stroke-width:0.461654"
     d="m 192.36193,116.43805 c 0,0 0,0 0,0 0,0 0,0 0,0 0,0 0,0 0,0"
     id="path41994" /><path
     style="fill:#ffffff;fill-opacity:1;stroke:none;stroke-width:0.461654"
     d="m 191.19075,117.10172 c 0,0 0,0 0,0 0,0 0,0 0,0 0,0 0,0 0,0"
     id="path41992" /><path
     style="fill:#ffffff;fill-opacity:1;stroke:none;stroke-width:0.461654"
     d="m 192.54382,118.82555 c 0,0 0,0 0,0 0,0 0,0 0,0 0,0 0,0 0,0"
     id="path41990" /><path
     style="fill:#ffffff;fill-opacity:1;stroke:none;stroke-width:0.461654"
     d="m 228.6835,230.05139 c -1.02122,1.37375 -2.69475,-0.49391 -2.51028,-2.80149 0.18446,-2.30758 2.2269,-5.05508 3.06367,-4.12125 0.83676,0.93383 0.46784,5.54899 -0.55339,6.92274"
     id="path41988" /><path
     style="fill:#ffffff;fill-opacity:1;stroke:none;stroke-width:0.461654"
     d="m 256.80103,176.00654 c 0,0 0,0 0,0 0,0 0,0 0,0 0,0 0,0 0,0"
     id="path41986" /><path
     style="fill:#ffffff;fill-opacity:1;stroke:none;stroke-width:0.461654"
     d="m 240.91045,95.626154 c 0,0 0,0 0,0 0,0 0,0 0,0 0,0 0,0 0,0"
     id="path41984" /><path
     style="fill:#ffffff;fill-opacity:1;stroke:none;stroke-width:0.461654"
     d="m 246.84299,97.541315 c 0,0 0,0 0,0 0,0 0,0 0,0 0,0 0,0 0,0"
     id="path41982" /><path
     style="fill:#ffffff;fill-opacity:1;stroke:none;stroke-width:0.461654"
     d="m 257.77262,107.26529 c 0,0 0,0 0,0 0,0 0,0 0,0 0,0 0,0 0,0"
     id="path41980" /><path
     style="fill:#ffffff;fill-opacity:1;stroke:none;stroke-width:0.461654"
     d="m 258.70076,110.56309 c 0,0 0,0 0,0 0,0 0,0 0,0 0,0 0,0 0,0"
     id="path41978" /><path
     style="fill:#ffffff;fill-opacity:1;stroke:none;stroke-width:0.461654"
     d="m 111.40675,142.74183 c 0,0 0,0 0,0 0,0 0,0 0,0 0,0 0,0 0,0"
     id="path41976" /><path
     style="fill:#ffffff;fill-opacity:1;stroke:none;stroke-width:0.461654"
     d="m 177.72654,129.87183 c 0,0 0,0 0,0 0,0 0,0 0,0 0,0 0,0 0,0"
     id="path41974" /><path
     style="fill:#ffffff;fill-opacity:1;stroke:none;stroke-width:0.461654"
     d="m 264.61705,162.40843 c 0,0 0,0 0,0 0,0 0,0 0,0 0,0 0,0 0,0"
     id="path41972" /><path
     style="fill:#ffffff;fill-opacity:1;stroke:none;stroke-width:0.461654"
     d="m 271.59423,167.8197 c 0,0 0,0 0,0 0,0 0,0 0,0 0,0 0,0 0,0"
     id="path41970" /><path
     style="fill:#ffffff;fill-opacity:1;stroke:none;stroke-width:0.461654"
     d="m 294.63734,141.44812 c 0,0 0,0 0,0 0,0 0,0 0,0 0,0 0,0 0,0"
     id="path41968" /><path
     style="fill:#ffffff;fill-opacity:1;stroke:none;stroke-width:0.461654"
     d="m 293.3909,144.69746 c 0,0 0,0 0,0 0,0 0,0 0,0 0,0 0,0 0,0"
     id="path41966" /><path
     style="fill:#ffffff;fill-opacity:1;stroke:none;stroke-width:0.461654"
     d="m 275.44898,170.06104 c 0,0 0,0 0,0 0,0 0,0 0,0 0,0 0,0 0,0"
     id="path41964" /><path
     style="fill:#ffffff;fill-opacity:1;stroke:none;stroke-width:0.461654"
     d="m 304.7924,136.05509 c -0.0546,-1.66897 2.71294,-3.03182 4.15132,-2.04427 1.43837,0.98754 1.54757,4.32548 0.1638,5.0069 -1.38377,0.68142 -4.26052,-1.29367 -4.31512,-2.96263"
     id="path41962" /><path
     style="fill:#ffffff;fill-opacity:1;stroke:none;stroke-width:0.461654"
     d="m 278.08429,171.31185 c 0,0 0,0 0,0 0,0 0,0 0,0 0,0 0,0 0,0"
     id="path41960" /><path
     style="fill:#ffffff;fill-opacity:1;stroke:none;stroke-width:0.461654"
     d="m 283.88299,165.74141 c 0,0 0,0 0,0 0,0 0,0 0,0 0,0 0,0 0,0"
     id="path41958" /><path
     style="fill:#ffffff;fill-opacity:1;stroke:none;stroke-width:0.461654"
     d="m 301.13314,138.13865 c 0,0 0,0 0,0 0,0 0,0 0,0 0,0 0,0 0,0"
     id="path41956" /><path
     style="fill:#ffffff;fill-opacity:1;stroke:none;stroke-width:0.461654"
     d="m 295.94785,148.66806 c 0,0 0,0 0,0 0,0 0,0 0,0 0,0 0,0 0,0"
     id="path41954" /><path
     style="fill:#ffffff;fill-opacity:1;stroke:none;stroke-width:0.461654"
     d="m 286.00152,165.0264 c 0,0 0,0 0,0 0,0 0,0 0,0 0,0 0,0 0,0"
     id="path41952" /><path
     style="fill:#ffffff;fill-opacity:1;stroke:none;stroke-width:0.461654"
     d="m 299.35492,145.65139 c 0,0 0,0 0,0 0,0 0,0 0,0 0,0 0,0 0,0"
     id="path41950" /><path
     style="fill:#ffffff;fill-opacity:1;stroke:none;stroke-width:0.461654"
     d="m 298.58742,147.92062 c 0,0 0,0 0,0 0,0 0,0 0,0 0,0 0,0 0,0"
     id="path41948" /><path
     style="fill:#ffffff;fill-opacity:1;stroke:none;stroke-width:0.461654"
     d="m 304.28682,143.32027 c 0,0 0,0 0,0 0,0 0,0 0,0 0,0 0,0 0,0"
     id="path41946" /><path
     style="fill:#ffffff;fill-opacity:1;stroke:none;stroke-width:0.461654"
     d="m 286.8582,170.07192 c 0,0 0,0 0,0 0,0 0,0 0,0 0,0 0,0 0,0"
     id="path41944" /><path
     style="fill:#ffffff;fill-opacity:1;stroke:none;stroke-width:0.461654"
     d="m 293.87955,162.95658 c 0,0 0,0 0,0 0,0 0,0 0,0 0,0 0,0 0,0"
     id="path41942" /><path
     style="fill:#ffffff;fill-opacity:1;stroke:none;stroke-width:0.461654"
     d="m 308.59082,142.79627 c 0,0 0,0 0,0 0,0 0,0 0,0 0,0 0,0 0,0"
     id="path41940" /><path
     style="fill:#ffffff;fill-opacity:1;stroke:none;stroke-width:0.461654"
     d="m 295.02429,163.81716 c 0,0 0,0 0,0 0,0 0,0 0,0 0,0 0,0 0,0"
     id="path41938" /><path
     style="fill:#ffffff;fill-opacity:1;stroke:none;stroke-width:0.461654"
     d="m 300.54415,155.84519 c 0,0 0,0 0,0 0,0 0,0 0,0 0,0 0,0 0,0"
     id="path41936" /><path
     style="fill:#ffffff;fill-opacity:1;stroke:none;stroke-width:0.461654"
     d="m 296.70986,161.51541 c 0,0 0,0 0,0 0,0 0,0 0,0 0,0 0,0 0,0"
     id="path41934" /><path
     style="fill:#ffffff;fill-opacity:1;stroke:none;stroke-width:0.461654"
     d="m 296.05435,162.77775 c 0,0 0,0 0,0 0,0 0,0 0,0 0,0 0,0 0,0"
     id="path41932" /><path
     style="fill:#ffffff;fill-opacity:1;stroke:none;stroke-width:0.461654"
     d="m 301.53332,156.5394 c 0,0 0,0 0,0 0,0 0,0 0,0 0,0 0,0 0,0"
     id="path41930" /><path
     style="fill:#ffffff;fill-opacity:1;stroke:none;stroke-width:0.461654"
     d="m 298.90798,160.99101 c 0,0 0,0 0,0 0,0 0,0 0,0 0,0 0,0 0,0"
     id="path41928" /><path
     style="fill:#ffffff;fill-opacity:1;stroke:none;stroke-width:0.461654"
     d="m 183.76252,115.69648 c -1.3436,2.38939 -3.7377,5.70592 -7.44376,7.39513 -3.70607,1.68921 -8.72411,1.75112 -9.07152,-0.55138 -0.34741,-2.30248 3.9758,-6.96937 6.52996,-9.98272 2.55416,-3.01335 3.33927,-4.37316 4.35213,-4.84184 1.01286,-0.46867 2.25346,-0.0462 3.55193,0.54679 1.29846,0.59301 2.65479,1.35655 3.18638,2.46945 0.53161,1.1129 0.23849,2.57517 -1.10512,4.96457"
     id="path41926" /><path
     style="fill:#ffffff;fill-opacity:1;stroke:none;stroke-width:0.461654"
     d="m 177.0534,123.55385 c 0,0 0,0 0,0 0,0 0,0 0,0 0,0 0,0 0,0"
     id="path41924" /><path
     style="fill:#ffffff;fill-opacity:1;stroke:none;stroke-width:0.461654"
     d="m 170.10941,116.64006 c 0,0 0,0 0,0 0,0 0,0 0,0 0,0 0,0 0,0"
     id="path41922" /><path
     style="fill:#ffffff;fill-opacity:1;stroke:none;stroke-width:0.461654"
     d="m 196.7585,167.13542 c 0,0 0,0 0,0 0,0 0,0 0,0 0,0 0,0 0,0"
     id="path41920" /><path
     style="fill:#ffffff;fill-opacity:1;stroke:none;stroke-width:0.461654"
     d="m 197.4671,171.45044 c 0,0 0,0 0,0 0,0 0,0 0,0 0,0 0,0 0,0"
     id="path41918" /><path
     style="fill:#ffffff;fill-opacity:1;stroke:none;stroke-width:0.461654"
     d="m 180.29292,141.33409 c 0,0 0,0 0,0 0,0 0,0 0,0 0,0 0,0 0,0"
     id="path41916" /><path
     style="fill:#ffffff;fill-opacity:1;stroke:none;stroke-width:0.461654"
     d="m 176.98393,144.92797 c 0,0 0,0 0,0 0,0 0,0 0,0 0,0 0,0 0,0"
     id="path41914" /><path
     style="fill:#ffffff;fill-opacity:1;stroke:none;stroke-width:0.461654"
     d="m 85.245595,222.5042 c 0,0 0,0 0,0 0,0 0,0 0,0 0,0 0,0 0,0"
     id="path41912" /><path
     style="fill:#ffffff;fill-opacity:1;stroke:none;stroke-width:0.461654"
     d="m 84.956697,222.27113 c 0,0 0,0 0,0 0,0 0,0 0,0 0,0 0,0 0,0"
     id="path41910" /><path
     style="fill:#ffffff;fill-opacity:1;stroke:none;stroke-width:0.461654"
     d="m 335.76814,122.69056 c 0,0 0,0 0,0 0,0 0,0 0,0 0,0 0,0 0,0"
     id="path41908" /><path
     style="fill:#ffffff;fill-opacity:1;stroke:none;stroke-width:0.461654"
     d="m 335.25604,119.22606 c 0,0 0,0 0,0 0,0 0,0 0,0 0,0 0,0 0,0"
     id="path41906" /><path
     style="fill:#ffffff;fill-opacity:1;stroke:none;stroke-width:0.461654"
     d="m 114.99677,145.96859 c 0,0 0,0 0,0 0,0 0,0 0,0 0,0 0,0 0,0"
     id="path41904" /><path
     style="fill:#ffffff;fill-opacity:1;stroke:none;stroke-width:0.461654"
     d="m 113.48867,142.84369 c 0,0 0,0 0,0 0,0 0,0 0,0 0,0 0,0 0,0"
     id="path41902" /><path
     style="fill:#ffffff;fill-opacity:1;stroke:none;stroke-width:0.461654"
     d="m 78.06545,205.69378 c 0,0 0,0 0,0 0,0 0,0 0,0 0,0 0,0 0,0"
     id="path41900" /><path
     style="fill:#ffffff;fill-opacity:1;stroke:none;stroke-width:0.461654"
     d="m 75.464544,212.97919 c 0,0 0,0 0,0 0,0 0,0 0,0 0,0 0,0 0,0"
     id="path41898" /><path
     style="fill:#ffffff;fill-opacity:1;stroke:none;stroke-width:0.461654"
     d="m 75.656647,217.01854 c 0,0 0,0 0,0 0,0 0,0 0,0 0,0 0,0 0,0"
     id="path41896" /><path
     style="fill:#ffffff;fill-opacity:1;stroke:none;stroke-width:0.461654"
     d="m 79.075299,221.51334 c 0,0 0,0 0,0 0,0 0,0 0,0 0,0 0,0 0,0"
     id="path41894" /><path
     style="fill:#ffffff;fill-opacity:1;stroke:none;stroke-width:0.461654"
     d="m 285.76546,151.00557 c 1.36493,-0.005 3.96953,3.83455 3.9069,5.76008 -0.0626,1.92553 -2.79249,1.93653 -4.09479,0.0165 -1.3023,-1.92004 -1.17704,-5.77109 0.18789,-5.77659"
     id="path41892" /><path
     style="fill:#ffffff;fill-opacity:1;stroke:none;stroke-width:0.461654"
     d="m 306.54083,153.68593 c 0,0 0,0 0,0 0,0 0,0 0,0 0,0 0,0 0,0"
     id="path41890" /><path
     style="fill:#ffffff;fill-opacity:1;stroke:none;stroke-width:0.461654"
     d="m 324.61491,176.85257 c 0,0 0,0 0,0 0,0 0,0 0,0 0,0 0,0 0,0 m -3.01044,-29.12122 c 2.8758,1.90684 5.649,3.90829 7.39183,6.41034 1.74283,2.50205 2.45529,5.50469 3.00398,8.51011 0.54868,3.00541 0.93358,6.0136 0.12125,8.5427 -0.81233,2.5291 -2.82189,4.57912 -5.27594,5.36376 -2.45405,0.78464 -5.35259,0.3039 -7.61045,1.38256 -2.25786,1.07866 -3.87503,3.7167 -5.63412,6.29266 -1.75909,2.57596 -3.66009,5.08982 -5.68048,4.47746 -2.02038,-0.61236 -4.16015,-4.35095 -4.56087,-8.391 -0.40072,-4.04005 0.93759,-8.38157 1.96956,-12.76958 1.03198,-4.388 1.75762,-8.82249 3.64409,-11.25844 1.88649,-2.43593 4.93381,-2.87332 5.76038,-4.88887 0.82657,-2.01554 -0.56761,-5.60925 0.22449,-6.5 0.7921,-0.89074 3.77049,0.92147 6.64628,2.8283"
     id="path41888" /><path
     style="fill:#ffffff;fill-opacity:1;stroke:none;stroke-width:0.461654"
     d="m 330.75495,178.6593 c 0,0 0,0 0,0 0,0 0,0 0,0 0,0 0,0 0,0"
     id="path41886" /><path
     style="fill:#ffffff;fill-opacity:1;stroke:none;stroke-width:0.461654"
     d="m 76.559642,231.51689 c 0,0 0,0 0,0 0,0 0,0 0,0 0,0 0,0 0,0"
     id="path41884" /><path
     style="fill:#ffffff;fill-opacity:1;stroke:none;stroke-width:0.461654"
     d="m 67.085803,227.25954 c 0,0 0,0 0,0 0,0 0,0 0,0 0,0 0,0 0,0"
     id="path41882" /><path
     style="fill:#ffffff;fill-opacity:1;stroke:none;stroke-width:0.461654"
     d="m 75.374452,232.90204 c 0,0 0,0 0,0 0,0 0,0 0,0 0,0 0,0 0,0"
     id="path41880" /><path
     style="fill:#ffffff;fill-opacity:1;stroke:none;stroke-width:0.461654"
     d="m 60.918701,226.22347 c 0,0 0,0 0,0 0,0 0,0 0,0 0,0 0,0 0,0"
     id="path41878" /><path
     style="fill:#ffffff;fill-opacity:1;stroke:none;stroke-width:0.461654"
     d="m 62.002821,226.62999 c 0,0 0,0 0,0 0,0 0,0 0,0 0,0 0,0 0,0"
     id="path41876" /><path
     style="fill:#ffffff;fill-opacity:1;stroke:none;stroke-width:0.461654"
     d="m 86.057071,242.64884 c 0,0 0,0 0,0 0,0 0,0 0,0 0,0 0,0 0,0"
     id="path41874" /><path
     style="fill:#ffffff;fill-opacity:1;stroke:none;stroke-width:0.461654"
     d="m 79.065516,238.46294 c 0,0 0,0 0,0 0,0 0,0 0,0 0,0 0,0 0,0"
     id="path41872" /><path
     style="fill:#ffffff;fill-opacity:1;stroke:none;stroke-width:0.461654"
     d="m 64.953175,234.40843 c 0,0 0,0 0,0 0,0 0,0 0,0 0,0 0,0 0,0"
     id="path41870" /><path
     style="fill:#ffffff;fill-opacity:1;stroke:none;stroke-width:0.461654"
     d="m 81.231457,240.29075 c 0,0 0,0 0,0 0,0 0,0 0,0 0,0 0,0 0,0"
     id="path41868" /><path
     style="fill:#ffffff;fill-opacity:1;stroke:none;stroke-width:0.461654"
     d="m 78.503942,218.43372 c 0,0 0,0 0,0 0,0 0,0 0,0 0,0 0,0 0,0"
     id="path41862" /><path
     style="fill:#ffffff;fill-opacity:1;stroke:none;stroke-width:0.461654"
     d="m 200.5642,107.63799 c 0,0 0,0 0,0 0,0 0,0 0,0 0,0 0,0 0,0"
     id="path41860" /><path
     style="fill:#ffffff;fill-opacity:1;stroke:none;stroke-width:0.461654"
     d="m 196.61529,114.52834 c 0,0 0,0 0,0 0,0 0,0 0,0 0,0 0,0 0,0"
     id="path41858" /><path
     style="fill:#ffffff;fill-opacity:1;stroke:none;stroke-width:0.461654"
     d="m 202.30505,107.95193 c 0,0 0,0 0,0 0,0 0,0 0,0 0,0 0,0 0,0"
     id="path41856" /><path
     style="fill:#ffffff;fill-opacity:1;stroke:none;stroke-width:0.461654"
     d="m 203.43631,107.20256 c 0,0 0,0 0,0 0,0 0,0 0,0 0,0 0,0 0,0"
     id="path41854" /><path
     style="fill:#ffffff;fill-opacity:1;stroke:none;stroke-width:0.461654"
     d="m 203.07849,116.54886 c 0,0 0,0 0,0 0,0 0,0 0,0 0,0 0,0 0,0"
     id="path41852" /><path
     style="fill:#ffffff;fill-opacity:1;stroke:none;stroke-width:0.461654"
     d="m 205.06604,98.441743 c 0,0 0,0 0,0 0,0 0,0 0,0 0,0 0,0 0,0"
     id="path41850" /><path
     style="fill:#ffffff;fill-opacity:1;stroke:none;stroke-width:0.461654"
     d="m 204.41468,96.26289 c 0,0 0,0 0,0 0,0 0,0 0,0 0,0 0,0 0,0"
     id="path41848" /><path
     style="fill:#ffffff;fill-opacity:1;stroke:none;stroke-width:0.461654"
     d="m 206.28648,96.713607 c 0,0 0,0 0,0 0,0 0,0 0,0 0,0 0,0 0,0"
     id="path41846" /><path
     style="fill:#ffffff;fill-opacity:1;stroke:none;stroke-width:0.461654"
     d="m 197.78396,85.724085 c 0,0 0,0 0,0 0,0 0,0 0,0 0,0 0,0 0,0"
     id="path41844" /><path
     style="fill:#ffffff;fill-opacity:1;stroke:none;stroke-width:0.461654"
     d="m 200.1074,80.41156 c 0,0 0,0 0,0 0,0 0,0 0,0 0,0 0,0 0,0"
     id="path41842" /><path
     style="fill:#ffffff;fill-opacity:1;stroke:none;stroke-width:0.461654"
     d="m 228.68007,93.359001 c 0,0 0,0 0,0 0,0 0,0 0,0 0,0 0,0 0,0"
     id="path41840" /><path
     style="fill:#ffffff;fill-opacity:1;stroke:none;stroke-width:0.461654"
     d="m 239.94285,224.15146 c 0,0 0,0 0,0 0,0 0,0 0,0 0,0 0,0 0,0"
     id="path41838" /><path
     style="fill:#ffffff;fill-opacity:1;stroke:none;stroke-width:0.461654"
     d="m 117.86101,160.53605 c 0,0 0,0 0,0 0,0 0,0 0,0 0,0 0,0 0,0"
     id="path41836" /><path
     style="fill:#ffffff;fill-opacity:1;stroke:none;stroke-width:0.461654"
     d="m 118.16202,157.76923 c 0,0 0,0 0,0 0,0 0,0 0,0 0,0 0,0 0,0"
     id="path41834" /><path
     style="fill:#ffffff;fill-opacity:1;stroke:none;stroke-width:0.461654"
     d="m 85.20376,211.42917 c -3.250646,1.19212 -5.808406,4.03165 -6.727669,3.47567 -0.919263,-0.55597 -0.20003,-4.50745 1.033804,-8.29137 1.233834,-3.78392 2.982269,-7.40028 4.890939,-11.05281 1.90867,-3.65253 3.97757,-7.34121 4.901141,-10.92582 0.923575,-3.58461 0.701815,-7.06514 0.604992,-10.60016 -0.09682,-3.53502 -0.0687,-7.12452 1.798755,-10.53324 1.867454,-3.40871 5.574237,-6.63663 7.285523,-9.75357 1.711275,-3.11696 1.427065,-6.12294 1.303965,-9.14985 -0.12309,-3.02691 -0.085,-6.07474 0.11432,-9.14721 0.19938,-3.07248 0.56009,-6.16958 1.08179,-9.28614 0.5217,-3.11656 1.20439,-6.25257 2.71809,-9.31666 1.51369,-3.06409 3.85839,-6.05627 6.38814,-8.94989 2.52976,-2.89362 5.24455,-5.68868 8.14067,-8.350167 2.89612,-2.661484 5.97357,-5.189393 9.22656,-7.560908 3.25299,-2.371515 6.68152,-4.586644 10.4979,-5.66804 3.81639,-1.081396 8.02062,-1.029068 11.78236,-1.502992 3.76175,-0.473929 7.08099,-1.474111 10.31976,-2.312243 3.23877,-0.838128 6.39706,-1.514201 10.1758,-2.604041 3.77875,-1.089844 8.17794,-2.593454 10.79596,-4.108943 2.61801,-1.515489 3.45485,-3.042856 4.99656,-2.045089 1.54172,0.997767 3.78832,4.520669 4.22312,6.817068 0.4348,2.296395 -0.9422,3.366291 -3.21876,4.11237 -2.27657,0.746073 -5.4527,1.168334 -8.28282,3.03799 -2.83013,1.86966 -5.31424,5.186715 -7.64272,8.629488 -2.32848,3.442768 -4.50132,7.011247 -6.40838,8.090877 -1.90705,1.07962 -3.54833,-0.32961 -5.4827,-0.8171 -1.93437,-0.48749 -4.16183,-0.0532 -5.87835,1.65377 -1.71652,1.70701 -2.92209,4.68677 -1.94339,5.76079 0.97869,1.07401 4.14164,0.2423 5.55434,1.14659 1.41271,0.90429 1.07515,3.54459 0.0257,6.47126 -1.04941,2.92667 -2.81067,6.13971 -6.33283,7.36214 -3.52215,1.22243 -8.8052,0.45423 -12.80369,0.036 -3.99849,-0.41826 -6.71242,-0.4866 -9.45096,-0.44465 -2.73855,0.042 -5.50171,0.19417 -7.84177,-1.43577 -2.34007,-1.62994 -4.25705,-5.04205 -6.83908,-5.31393 -2.58203,-0.27186 -5.8291,2.59651 -7.98242,5.9003 -2.15333,3.30379 -3.21289,7.04301 -4.02808,10.76383 -0.8152,3.72083 -1.38603,7.42325 -0.6617,10.69507 0.72433,3.27183 2.74383,6.11305 4.90442,8.93598 2.1606,2.82294 4.46228,5.62758 6.28666,10.29532 1.82438,4.66774 3.17145,11.19858 4.77817,15.81766 1.60671,4.61909 3.47306,7.32644 5.46997,9.97489 1.99691,2.64844 4.12436,5.238 2.38383,8.3366 -1.74053,3.09861 -7.34906,6.70628 -12.83043,8.72036 -5.48137,2.01408 -10.83558,2.43457 -15.484464,2.41717 -4.64888,-0.0174 -8.592418,-0.47269 -11.843069,0.71943 m 51.297353,-91.12558 c 0,0 0,0 0,0 0,0 0,0 0,0 0,0 0,0 0,0 m -1.34142,-2.28207 c 0,0 0,0 0,0 0,0 0,0 0,0 0,0 0,0 0,0 m 6.284,-8.42803 c 0,0 0,0 0,0 0,0 0,0 0,0 0,0 0,0 0,0 m -48.77552,72.94007 c 0,0 0,0 0,0 0,0 0,0 0,0 0,0 0,0 0,0 m 46.8632,-67.98337 c 0,0 0,0 0,0 0,0 0,0 0,0 0,0 0,0 0,0 m -0.21911,0.3166 c 0,0 0,0 0,0 0,0 0,0 0,0 0,0 0,0 0,0 m 7.75199,10.95394 c 0,0 0,0 0,0 0,0 0,0 0,0 0,0 0,0 0,0 m 1.04116,-13.28338 c 0,0 0,0 0,0 0,0 0,0 0,0 0,0 0,0 0,0"
     id="path41832" /><path
     style="fill:#ffffff;fill-opacity:1;stroke:none;stroke-width:0.461654"
     d="m 335.73872,108.41883 c 0,0 0,0 0,0 0,0 0,0 0,0 0,0 0,0 0,0"
     id="path41830" /><path
     style="fill:#ffffff;fill-opacity:1;stroke:none;stroke-width:0.461654"
     d="m 116.47143,161.43948 c 0,0 0,0 0,0 0,0 0,0 0,0 0,0 0,0 0,0"
     id="path41828" /><path
     style="fill:#ffffff;fill-opacity:1;stroke:none;stroke-width:0.461654"
     d="m 343.17039,126.08513 c 0,0 0,0 0,0 0,0 0,0 0,0 0,0 0,0 0,0"
     id="path41826" /><path
     style="fill:#ffffff;fill-opacity:1;stroke:none;stroke-width:0.461654"
     d="m 236.40762,208.07115 c 0,0 0,0 0,0 0,0 0,0 0,0 0,0 0,0 0,0"
     id="path41824" /><path
     style="fill:#ffffff;fill-opacity:1;stroke:none;stroke-width:0.461654"
     d="m 180.0536,214.20851 c 0,0 0,0 0,0 0,0 0,0 0,0 0,0 0,0 0,0"
     id="path41822" /><path
     style="fill:#ffffff;fill-opacity:1;stroke:none;stroke-width:0.461654"
     d="m 280.88082,164.30464 c 0,0 0,0 0,0 0,0 0,0 0,0 0,0 0,0 0,0"
     id="path41820" /><path
     style="fill:#ffffff;fill-opacity:1;stroke:none;stroke-width:0.461654"
     d="m 291.30252,129.04022 c 0,0 0,0 0,0 0,0 0,0 0,0 0,0 0,0 0,0"
     id="path41818" /><path
     style="fill:#ffffff;fill-opacity:1;stroke:none;stroke-width:0.461654"
     d="m 308.95949,104.1836 c 0,0 0,0 0,0 0,0 0,0 0,0 0,0 0,0 0,0"
     id="path41816" /><path
     style="fill:#ffffff;fill-opacity:1;stroke:none;stroke-width:0.461654"
     d="m 242.3669,222.44961 c 0,0 0,0 0,0 0,0 0,0 0,0 0,0 0,0 0,0"
     id="path41814" /><path
     style="fill:#ffffff;fill-opacity:1;stroke:none;stroke-width:0.461654"
     d="m 189.45818,171.46719 c 0,0 0,0 0,0 0,0 0,0 0,0 0,0 0,0 0,0"
     id="path41812" /><path
     style="fill:#ffffff;fill-opacity:1;stroke:none;stroke-width:0.461654"
     d="m 296.85141,89.960589 c 0,0 0,0 0,0 0,0 0,0 0,0 0,0 0,0 0,0"
     id="path41810" /><path
     style="fill:#ffffff;fill-opacity:1;stroke:none;stroke-width:0.461654"
     d="m 117.07002,161.03846 c 0,0 0,0 0,0 0,0 0,0 0,0 0,0 0,0 0,0"
     id="path41808" /><path
     style="fill:#ffffff;fill-opacity:1;stroke:none;stroke-width:0.461654"
     d="m 118.46553,156.02326 c 0,0 0,0 0,0 0,0 0,0 0,0 0,0 0,0 0,0"
     id="path41806" /><path
     style="fill:#ffffff;fill-opacity:1;stroke:none;stroke-width:0.461654"
     d="m 64.221953,95.865333 c 0,0 0,0 0,0 0,0 0,0 0,0 0,0 0,0 0,0"
     id="path41804" /><path
     style="fill:#ffffff;fill-opacity:1;stroke:none;stroke-width:0.461654"
     d="m 178.44324,152.92283 c 0,0 0,0 0,0 0,0 0,0 0,0 0,0 0,0 0,0"
     id="path41802" /><path
     style="fill:#ffffff;fill-opacity:1;stroke:none;stroke-width:0.461654"
     d="m 185.2978,164.32124 c 0,0 0,0 0,0 0,0 0,0 0,0 0,0 0,0 0,0"
     id="path41800" /><path
     style="fill:#ffffff;fill-opacity:1;stroke:none;stroke-width:0.461654"
     d="m 190.43167,168.1486 c 0,0 0,0 0,0 0,0 0,0 0,0 0,0 0,0 0,0"
     id="path41798" /><path
     style="fill:#ffffff;fill-opacity:1;stroke:none;stroke-width:0.461654"
     d="m 178.21323,146.60987 c 0,0 0,0 0,0 0,0 0,0 0,0 0,0 0,0 0,0"
     id="path41796" /><path
     style="fill:#ffffff;fill-opacity:1;stroke:none;stroke-width:0.461654"
     d="m 115.49544,162.19956 c 0,0 0,0 0,0 0,0 0,0 0,0 0,0 0,0 0,0"
     id="path41794" /><path
     style="fill:#ffffff;fill-opacity:1;stroke:none;stroke-width:0.461654"
     d="m 178.2236,152.66178 c 0,0 0,0 0,0 0,0 0,0 0,0 0,0 0,0 0,0"
     id="path41792" /><path
     style="fill:#ffffff;fill-opacity:1;stroke:none;stroke-width:0.461654"
     d="m 296.23262,104.41985 c 0,0 0,0 0,0 0,0 0,0 0,0 0,0 0,0 0,0"
     id="path41790" /><path
     style="fill:#ffffff;fill-opacity:1;stroke:none;stroke-width:0.461654"
     d="m 179.4248,136.52169 c 0,0 0,0 0,0 0,0 0,0 0,0 0,0 0,0 0,0"
     id="path41788" /><path
     style="fill:#ffffff;fill-opacity:1;stroke:none;stroke-width:0.461654"
     d="m 180.43913,165.34057 c 0,0 0,0 0,0 0,0 0,0 0,0 0,0 0,0 0,0"
     id="path41786" /><path
     style="fill:#ffffff;fill-opacity:1;stroke:none;stroke-width:0.461654"
     d="m 161.3747,173.74944 c 0,0 0,0 0,0 0,0 0,0 0,0 0,0 0,0 0,0"
     id="path41784" /><path
     style="fill:#ffffff;fill-opacity:1;stroke:none;stroke-width:0.461654"
     d="m 188.4345,146.11304 c 0,0 0,0 0,0 0,0 0,0 0,0 0,0 0,0 0,0"
     id="path41782" /><path
     style="fill:#ffffff;fill-opacity:1;stroke:none;stroke-width:0.461654"
     d="m 118.00381,158.7897 c 0,0 0,0 0,0 0,0 0,0 0,0 0,0 0,0 0,0"
     id="path41780" /><path
     style="fill:#ffffff;fill-opacity:1;stroke:none;stroke-width:0.461654"
     d="m 149.91827,184.8794 c 0,0 0,0 0,0 0,0 0,0 0,0 0,0 0,0 0,0"
     id="path41778" /><path
     style="fill:#ffffff;fill-opacity:1;stroke:none;stroke-width:0.461654"
     d="m 223.69517,222.30267 c 0,0 0,0 0,0 0,0 0,0 0,0 0,0 0,0 0,0"
     id="path41776" /><path
     style="fill:#ffffff;fill-opacity:1;stroke:none;stroke-width:0.461654"
     d="m 117.66005,162.87536 c 0,0 0,0 0,0 0,0 0,0 0,0 0,0 0,0 0,0"
     id="path41774" /><path
     style="fill:#ffffff;fill-opacity:1;stroke:none;stroke-width:0.461654"
     d="m 117.51629,136.17577 c 0,0 0,0 0,0 0,0 0,0 0,0 0,0 0,0 0,0"
     id="path41772" /><path
     style="fill:#ffffff;fill-opacity:1;stroke:none;stroke-width:0.461654"
     d="m 117.29779,135.27161 c 0,0 0,0 0,0 0,0 0,0 0,0 0,0 0,0 0,0"
     id="path41770" /><path
     style="fill:#ffffff;fill-opacity:1;stroke:none;stroke-width:0.461654"
     d="m 118.90157,156.9795 c 0,0 0,0 0,0 0,0 0,0 0,0 0,0 0,0 0,0"
     id="path41768" /><path
     style="fill:#ffffff;fill-opacity:1;stroke:none;stroke-width:0.461654"
     d="m 253.13823,187.73682 c 0,0 0,0 0,0 0,0 0,0 0,0 0,0 0,0 0,0"
     id="path41766" /><path
     style="fill:#ffffff;fill-opacity:1;stroke:none;stroke-width:0.461654"
     d="m 252.47961,185.96173 c 0,0 0,0 0,0 0,0 0,0 0,0 0,0 0,0 0,0"
     id="path41764" /><path
     style="fill:#ffffff;fill-opacity:1;stroke:none;stroke-width:0.461654"
     d="m 253.17442,186.75752 c 0,0 0,0 0,0 0,0 0,0 0,0 0,0 0,0 0,0"
     id="path41762" /><path
     style="fill:#ffffff;fill-opacity:1;stroke:none;stroke-width:0.461654"
     d="m 323.9021,104.2281 c 0,0 0,0 0,0 0,0 0,0 0,0 0,0 0,0 0,0"
     id="path41760" /><path
     style="fill:#ffffff;fill-opacity:1;stroke:none;stroke-width:0.461654"
     d="m 324.39781,104.96851 c 0,0 0,0 0,0 0,0 0,0 0,0 0,0 0,0 0,0"
     id="path41758" /><path
     style="fill:#ffffff;fill-opacity:1;stroke:none;stroke-width:0.461654"
     d="m 183.87193,149.42632 c 0,0 0,0 0,0 0,0 0,0 0,0 0,0 0,0 0,0"
     id="path41756" /><path
     style="fill:#ffffff;fill-opacity:1;stroke:none;stroke-width:0.461654"
     d="m 176.5607,207.45138 c -3.1989,-1.35647 -7.67422,-1.69525 -11.30106,-4.03247 -3.62683,-2.33723 -6.40519,-6.67289 -7.43372,-10.56864 -1.02854,-3.89576 -0.30726,-7.3516 2.37913,-11.33932 2.68638,-3.98772 7.33788,-8.50731 12.57672,-10.19385 5.23884,-1.68654 11.06503,-0.54004 16.90051,0.49696 5.83548,1.03699 11.68025,1.96448 13.286,0.82578 1.60576,-1.1387 -1.02751,-4.34358 -0.53374,-6.86996 0.49377,-2.52639 4.11457,-4.37428 4.51074,-5.75767 0.39618,-1.38339 -2.43229,-2.30227 -4.79178,-1.24287 -2.35948,1.0594 -4.24998,4.09709 -7.59962,4.78505 -3.34965,0.68795 -8.15843,-0.97382 -11.57231,-0.58249 -3.41389,0.39135 -5.43286,2.83581 -7.09824,2.51567 -1.66538,-0.32015 -2.97716,-3.40489 -1.09433,-6.87223 1.88282,-3.46733 6.96024,-7.31725 10.6714,-9.32251 3.71116,-2.00525 6.05605,-2.16584 7.16959,-4.35494 1.11354,-2.1891 0.99572,-6.40672 0.21716,-6.40868 -0.77856,-0.002 -2.21787,4.21172 -3.35676,4.77984 -1.1389,0.56812 -1.97737,-2.50934 -1.52492,-5.53161 0.45245,-3.02227 2.19584,-5.98936 4.57339,-7.28564 2.37755,-1.29628 5.38927,-0.92175 6.64651,0.0219 1.25722,0.94363 0.75996,2.45634 1.56417,-1.19515 0.80422,-3.6515 2.90993,-12.46721 4.75729,-16.85933 1.84736,-4.39213 3.43637,-4.36066 3.82882,-6.26627 0.39246,-1.90562 -0.41165,-5.74832 -1.13735,-8.940518 -0.72571,-3.192201 -1.37302,-5.733909 -2.95697,-7.858665 -1.58394,-2.124756 -4.10453,-3.832561 -4.90247,-5.580367 -0.79793,-1.747803 0.12678,-3.535607 2.27028,-3.430507 2.1435,0.105095 5.50577,2.103095 8.7839,4.283278 3.27813,2.180187 6.4721,4.542556 9.61826,6.863427 3.14615,2.320872 6.24449,4.600236 8.97135,5.386783 2.72686,0.786547 5.08226,0.08027 7.67838,0.975802 2.59613,0.895529 5.433,3.392867 8.1221,5.995497 2.6891,2.60263 5.23044,5.31056 6.14357,7.78448 0.91314,2.47391 0.19807,4.71381 2.00155,6.56413 1.80348,1.85033 6.12551,3.31108 8.60239,5.70537 2.47688,2.39429 3.10862,5.72213 3.56693,9.04919 0.45831,3.32706 0.74319,6.65334 2.25681,10.37633 1.51362,3.723 4.25598,7.84271 2.6189,9.72027 -1.63708,1.87757 -7.6536,1.51299 -10.84674,3.46181 -3.19315,1.94883 -3.56292,6.21107 -4.15849,10.45956 -0.59557,4.2485 -1.41693,8.48326 -4.66109,8.78644 -3.24417,0.30318 -8.91114,-3.32521 -13.22618,-4.35046 -4.31504,-1.02525 -7.27815,0.55265 -8.04794,2.53747 -0.76979,1.98482 0.65373,4.37656 -0.63176,7.877 -1.28549,3.50044 -5.28001,8.10957 -5.97858,10.02442 -0.69858,1.91485 1.89878,1.13541 2.46277,2.55741 0.564,1.422 -0.90539,5.04543 -2.5084,8.6088 -1.60302,3.56336 -3.33968,7.06666 -4.07909,11.29766 -0.73942,4.23099 -0.48159,9.18969 -1.53719,13.51961 -1.05561,4.32992 -3.42464,8.03105 -6.0273,11.5986 -2.60266,3.56754 -5.43894,7.00148 -8.27302,9.17164 -2.83407,2.17015 -5.66592,3.07651 -7.89077,2.16955 -2.22484,-0.90696 -3.84268,-3.62725 -5.37911,-6.50508 -1.53642,-2.87784 -2.99144,-5.91322 -4.07551,-11.06376 -1.08407,-5.15054 -1.7972,-12.41624 -3.115,-17.23617 -1.31781,-4.81992 -3.24029,-7.19408 -6.43918,-8.55054 m 20.8134,-64.25315 c 0,0 0,0 0,0 0,0 0,0 0,0 0,0 0,0 0,0 m 45.56436,-40.68305 c 0,0 0,0 0,0 0,0 0,0 0,0 0,0 0,0 0,0 m -21.10135,52.08647 c 0,0 0,0 0,0 0,0 0,0 0,0 0,0 0,0 0,0 m 0.14224,-4.02763 c 0,0 0,0 0,0 0,0 0,0 0,0 0,0 0,0 0,0 m -9.22397,76.74924 c 0,0 0,0 0,0 0,0 0,0 0,0 0,0 0,0 0,0 m -7.10848,-9.73985 c 0,0 0,0 0,0 0,0 0,0 0,0 0,0 0,0 0,0 m 5.26606,-5.30409 c 0,0 0,0 0,0 0,0 0,0 0,0 0,0 0,0 0,0 m 6.25145,-49.99686 c 0,0 0,0 0,0 0,0 0,0 0,0 0,0 0,0 0,0 m -34.68724,47.85397 c 0,0 0,0 0,0 0,0 0,0 0,0 0,0 0,0 0,0 m 40.1998,-34.56847 c 0,0 0,0 0,0 0,0 0,0 0,0 0,0 0,0 0,0 m -36.99454,-13.12902 c 0,0 0,0 0,0 0,0 0,0 0,0 0,0 0,0 0,0 m 17.89102,-35.94133 c 0,0 0,0 0,0 0,0 0,0 0,0 0,0 0,0 0,0 m 1.80808,44.8457 c 0,0 0,0 0,0 0,0 0,0 0,0 0,0 0,0 0,0"
     id="path34005" /><g
     id="info"
     class="info"
     transform="translate(-719.32295,-148.19936)" /><path
     d="m 313.86509,89.565729 0.7434,-2.378477 0.8221,-2.294597 0.91222,-2.202473 1.01317,-2.10314 1.12413,-1.997644 1.24409,-1.886925 0.80732,-1.077118 M 58.514385,101.6614 l 0.932777,-0.32309 2.21409,-0.55892 2.043038,-0.22566 1.872294,0.0802 1.705716,0.35978 1.546585,0.61433 1.397595,0.84538 1.260842,1.05432 1.137867,1.24243 1.029684,1.41086 0.936836,1.56062 0.859476,1.69266 0.797397,1.80786 0.750126,1.90718 0.71697,1.99154 0.697075,2.06206 0.689485,2.11982 0.693162,2.16603 0.707039,2.20198 0.730052,2.2289 0.761148,2.24813 0.799314,2.26088 0.843598,2.26835 0.893093,2.2716 0.946973,2.27161 1.00447,2.26921 1.06491,2.26507 1.127662,2.25977 1.192197,2.25369 1.258039,2.24709 1.324777,2.24015 1.392066,2.23291 1.459627,2.22533 1.527219,2.21732 1.59467,2.20871 1.661836,2.19936 1.72755,2.18901 1.7828,2.17706 1.83712,2.16293 1.89346,2.1467 1.95168,2.12853 2.01176,2.10851 2.07355,2.08675 2.137,2.06337 2.20197,2.03842 2.26834,2.01194 2.336,1.98402 2.40475,1.95466 2.47445,1.92391 2.54486,1.89176 2.61575,1.85823 2.68684,1.82331 2.7578,1.78699 2.82828,1.74928 2.89783,1.71019 2.93512,1.64824 2.7891,1.46061 2.81159,1.39106 2.82987,1.31843 2.84404,1.24265 2.8542,1.16373 2.86058,1.08165 2.86352,0.9965 2.86342,0.9083 2.86081,0.81719 2.85624,0.7233 2.85038,0.62682 2.84388,0.52803 2.8374,0.42716 2.83156,0.3246 2.8269,0.2207 2.82385,0.11586 2.82266,0.0105 2.82345,-0.0948 2.82615,-0.19979 2.83052,-0.30391 2.83616,-0.40678 2.84256,-0.50801 2.84911,-0.60724 2.85516,-0.7042 2.86002,-0.79863 2.86309,-0.89031 2.86373,-0.9791 2.86143,-1.06487 2.85577,-1.14756 2.84638,-1.22711 2.83304,-1.30353 2.81558,-1.37679 2.79393,-1.44694 2.76813,-1.51402 2.73824,-1.57806 2.7044,-1.63913 2.66685,-1.69727 2.62578,-1.75256 2.5815,-1.80503 2.53431,-1.85476 2.48452,-1.90177 2.43249,-1.94615 2.37859,-1.98789 2.32315,-2.02707 2.26655,-2.06371 2.20916,-2.09782 2.15135,-2.12944 2.09346,-2.15858 2.03584,-2.18523 1.97883,-2.20943 1.92274,-2.23114 1.86787,-2.25038 1.81318,-2.26714 1.747,-2.28201 1.677,-2.29601 1.60621,-2.30965 1.5348,-2.32335 1.46303,-2.33757 1.39112,-2.35267 1.31934,-2.36904 1.24799,-2.38697 1.17735,-2.40665 1.10776,-2.4282 1.03962,-2.4516 0.9733,-2.47671 0.90922,-2.50325 0.84789,-2.53078 0.78981,-2.55869 0.73551,-2.58628 0.6856,-2.61265 0.6407,-2.6368 0.6015,-2.65763 0.56866,-2.67401 0.54296,-2.6847 0.52507,-2.68857 0.51578,-2.68451 0.51578,-2.67154 0.52578,-2.648858 0.54637,-2.61587 0.57811,-2.572245 0.62137,-2.517935 0.67644,-2.453173"
     fill="none"
     stroke="#ff0000"
     stroke-width="1.1"
     fill-opacity="1"
     stroke-opacity="1"
     stroke-linecap="round"
     stroke-linejoin="round"
     stroke-dasharray="none"
     id="path52541"
     style="stroke:#de3b38;stroke-opacity:1;stroke-width:2;stroke-dasharray:none" /><path
     d="m 265.18572,70.014999 -0.61261,-1.669972 -0.47583,-1.532255 -0.30496,-1.397691 -0.10046,-1.270895 0.13533,-1.156429 0.39817,-1.058374 0.36112,-0.595867 m -149.93849,2.909198 0.98447,0.266218 2.11651,0.713034 1.60003,0.793291 1.12678,0.883978 0.70444,0.986812 0.33725,1.101721 0.0263,1.227363 -0.22958,1.361518 -0.65941,1.785169 -0.82733,2.037712 -0.85215,2.153098 -0.85474,2.256721 -0.83826,2.347465 -0.80561,2.424797 -0.75943,2.488671 -0.70206,2.539437 -0.6355,2.577749 -0.56154,2.604487 -0.48162,2.620681 -0.39705,2.627464 -0.30887,2.626 -0.21801,2.61745 -0.12524,2.60296 -0.0312,2.58356 0.0636,2.56024 0.15859,2.53387 0.25346,2.50523 0.34786,2.47495 0.44148,2.44356 0.53409,2.41149 0.62547,2.37906 0.71543,2.34648 0.80381,2.31388 0.89048,2.2813 0.97531,2.24874 1.05818,2.21612 1.13901,2.18333 1.21769,2.1502 1.29416,2.11659 1.36834,2.08228 1.44018,2.0471 1.50961,2.01085 1.57659,1.97335 1.64104,1.93442 1.70297,1.89392 1.76232,1.85171 1.81905,1.80765 1.87317,1.76167 1.92384,1.71368 1.97111,1.66357 2.0164,1.61136 2.05956,1.55704 2.10054,1.50061 2.13919,1.4421 2.17548,1.38153 2.20932,1.31891 2.2407,1.25431 2.26958,1.18772 2.29599,1.11921 2.31996,1.04884 2.34152,0.97666 2.36076,0.90276 2.37776,0.82722 2.39263,0.75013 2.40548,0.67161 2.41645,0.59178 2.42563,0.51076 2.43318,0.42871 2.43919,0.34577 2.44377,0.2621 2.44703,0.17788 2.44898,0.0933 2.44972,0.008 2.44923,-0.0763 2.44751,-0.16098 2.44453,-0.2453 2.44022,-0.32908 2.4345,-0.41219 2.42727,-0.49443 2.41842,-0.57567 2.40783,-0.65574 2.39536,-0.73454 2.3809,-0.81192 2.36433,-0.88778 2.34555,-0.96202 2.32446,-1.03455 2.30098,-1.10528 2.27506,-1.17417 2.24667,-1.24114 2.2158,-1.30616 2.18244,-1.36917 2.14665,-1.43015 2.10845,-1.48907 2.06794,-1.54592 2.0252,-1.60066 1.98033,-1.6533 1.93346,-1.70383 1.88366,-1.75223 1.83009,-1.79862 1.77387,-1.84304 1.71505,-1.88562 1.65364,-1.92645 1.58967,-1.96569 1.52321,-2.00345 1.45425,-2.03994 1.38291,-2.07533 1.30918,-2.10978 1.23317,-2.14353 1.15491,-2.17673 1.07451,-2.20958 0.99204,-2.24223 0.9076,-2.27479 0.82129,-2.30736 0.73324,-2.33995 0.64358,-2.37255 0.55247,-2.40503 0.46009,-2.43719 0.36665,-2.46874 0.27239,-2.49929 0.17759,-2.5283 0.0826,-2.55519 -0.0123,-2.57918 -0.10652,-2.59943 -0.19959,-2.615 -0.29088,-2.62482 -0.37967,-2.627796 -0.46504,-2.622753 -0.54599,-2.608532 -0.62125,-2.583991 -0.68943,-2.54807 -0.74878,-2.499856 -0.79738,-2.438643 -0.83293,-2.364012 -0.85288,-2.275925 -0.85434,-2.174808 -0.83422,-2.061656 -0.7893,-1.938105 -0.71637,-1.806514"
     fill="none"
     stroke="#ff0000"
     stroke-width="1.1"
     fill-opacity="1"
     stroke-opacity="1"
     stroke-linecap="round"
     stroke-linejoin="round"
     stroke-dasharray="none"
     id="path52543"
     style="stroke:#de3b38;stroke-opacity:1;stroke-width:2;stroke-dasharray:6,6;stroke-dashoffset:0" /><path
     d="m 345.65946,132.84342 1.402,-1.23877 1.42937,-1.15165 1.46064,-1.0554 1.49543,-0.94962 1.53333,-0.83406 1.57381,-0.70854 0.96913,-0.34986 m -317.672487,29.71717 0.516258,-0.48178 1.30725,-1.06116 1.326033,-0.88952 1.336528,-0.71989 1.340314,-0.55324 1.338891,-0.39055 1.333652,-0.23278 1.325876,-0.0807 1.316707,0.065 1.307153,0.2037 1.298079,0.33522 1.290216,0.45933 1.284157,0.57597 1.28037,0.68527 1.279211,0.78745 1.280923,0.88277 1.285664,0.97161 1.293503,1.05436 1.304448,1.13145 1.318445,1.2033 1.335397,1.2703 1.355173,1.33287 1.373874,1.39127 1.385041,1.44525 1.397755,1.4947 1.412627,1.53984 1.429743,1.58088 1.449191,1.61804 1.471032,1.65151 1.495328,1.68153 1.522134,1.70829 1.551497,1.73198 1.583472,1.75281 1.618098,1.77097 1.655421,1.7866 1.695496,1.7999 1.738371,1.81101 1.784106,1.82007 1.832764,1.82721 1.884408,1.83252 1.939108,1.83612 1.996944,1.83808 2.057989,1.83845 2.12233,1.83725 2.19001,1.83451 2.26112,1.83024 2.33571,1.82436 2.41377,1.81685 2.49535,1.8076 2.58036,1.79652 2.66876,1.78346 2.76033,1.76825 2.8549,1.75071 2.95207,1.73061 3.05142,1.70774 3.15233,1.68181 3.25399,1.65257 3.35543,1.61974 3.45539,1.58306 3.55237,1.54228 3.64451,1.4972 3.72974,1.44771 3.80561,1.39377 3.8695,1.33553 3.91871,1.2733 3.95071,1.20765 3.96354,1.13943 3.95614,1.06978 3.9289,1.00016 3.66643,0.80917 2.91302,0.29768 2.88533,0.15717 2.87449,0.0143 2.88174,-0.12872 2.90626,-0.26986 2.94537,-0.40713 2.99506,-0.53892 3.05073,-0.66404 3.10783,-0.78182 3.16242,-0.89191 3.21139,-0.99436 3.25256,-1.08944 3.2846,-1.17753 3.30687,-1.25917 3.31927,-1.33483 3.32202,-1.40506 3.31563,-1.47029 3.30072,-1.53099 3.27798,-1.58751 3.24814,-1.6402 3.2119,-1.68934 3.16999,-1.73517 3.12305,-1.7779 3.07171,-1.81772 3.01658,-1.85473 2.95822,-1.88911 2.89719,-1.9209 2.83398,-1.95022 2.76907,-1.97711 2.70297,-2.00163 2.63608,-2.02382 2.56886,-2.04369 2.50172,-2.06128 2.43506,-2.07658 2.36923,-2.0896 2.30463,-2.10033 2.2416,-2.10877 2.18043,-2.11488 2.12147,-2.11866 2.06498,-2.12007 2.01121,-2.1191 1.96042,-2.11569 1.9128,-2.10981 1.86853,-2.10143 1.82776,-2.09049 1.79061,-2.07693 1.75717,-2.06074 1.72749,-2.04183 1.70158,-2.02017 1.67944,-1.99567 1.64968,-1.96864 1.60549,-1.9409 1.56359,-1.9132 1.52436,-1.8856 1.48808,-1.85807 1.45499,-1.83042 1.42533,-1.80245 1.39934,-1.77379 1.37724,-1.74399 1.35924,-1.71253 1.34554,-1.67876 1.33629,-1.64204 1.33162,-1.60161 1.33164,-1.55672 1.33638,-1.50658 1.34587,-1.45045 1.36004,-1.38756 1.37882,-1.3172"
     fill="none"
     stroke="#ff0000"
     stroke-width="1.1"
     fill-opacity="1"
     stroke-opacity="1"
     stroke-linecap="round"
     stroke-linejoin="round"
     stroke-dasharray="none"
     id="path52545"
     style="stroke:#de3b38;stroke-opacity:1;stroke-width:2;stroke-dasharray:6,6;stroke-dashoffset:0" /><path
     d="m 202.02626,81.143916 -1.25521,-0.482274 -1.26745,-0.411792 -1.27662,-0.337122 -1.28316,-0.258708 -1.28746,-0.177208 -1.28993,-0.09347 -1.29082,-0.0085 -1.29022,0.07654 -1.2881,0.160609 -1.28418,0.242631 -1.27813,0.32172 -1.26951,0.397182 -1.25792,0.468528 -1.24299,0.535471 -1.22443,0.597903 -1.20212,0.655847 -1.17599,0.709421 -1.14611,0.758806 -1.11263,0.804217 -1.07577,0.845869 -1.03576,0.883984 -0.99293,0.918761 -0.94754,0.950386 -0.89993,0.979022 -0.85038,1.004816 -0.79917,1.027897 -0.74658,1.048375 -0.69288,1.066354 -0.6383,1.08193 -0.58303,1.095176 -0.52731,1.106173 -0.47132,1.115 -0.41519,1.121713 -0.35913,1.126387 -0.30324,1.12908 -0.24766,1.12986 -0.1925,1.12877 -0.13788,1.12589 -0.0839,1.12126 -0.0306,1.11494 0.0219,1.10699 0.0735,1.09745 0.12419,1.08638 0.17387,1.07381 0.22253,1.05981 0.27008,1.04442 0.31649,1.02767 0.36172,1.00961 0.40573,0.99027 0.44848,0.96972 0.48997,0.94795 0.53013,0.92504 0.56897,0.901 0.60643,0.87588 0.64255,0.84971 0.67724,0.82252 0.71055,0.79435 0.74242,0.76523 0.77287,0.73521 0.80186,0.70431 0.82941,0.67257 0.8555,0.64004 0.88011,0.60673 0.90327,0.5727 0.92493,0.53798 0.94513,0.50263 0.96384,0.46666 0.98107,0.43013 0.99681,0.39309 1.01107,0.35556 1.02384,0.3176 1.03513,0.27926 1.04493,0.24057 1.05324,0.2016 1.06008,0.16238 1.06542,0.12295 1.06927,0.0834 1.07166,0.0437 1.07254,0.004 1.07195,-0.0358 1.06987,-0.0755 1.06631,-0.11505 1.06126,-0.1545 1.05473,-0.19377 1.04671,-0.23281 1.03721,-0.27155 1.02621,-0.30996 1.01375,-0.348 0.99978,-0.38562 0.98434,-0.42276 0.9674,-0.4594 0.94899,-0.49548 0.92909,-0.53096 0.90772,-0.56582 0.88486,-0.59998 0.86054,-0.63343 0.83474,-0.66613 0.80749,-0.69802 0.77878,-0.7291 0.74863,-0.7593 0.71703,-0.78861 0.68403,-0.81696 0.64959,-0.84435 0.61377,-0.87073 0.57657,-0.89606 0.538,-0.92032 0.49811,-0.94346 0.45689,-0.96546 0.41438,-0.98626 0.37062,-1.00584 0.32563,-1.02416 0.27945,-1.04117 0.23213,-1.05685 0.18369,-1.07113 0.1342,-1.08398 0.0837,-1.09535 0.0323,-1.10521 -0.02,-1.11348 -0.0732,-1.12013 -0.12703,-1.1251 -0.18154,-1.12834 -0.23659,-1.12979 -0.29209,-1.12938 -0.34793,-1.127085 -0.40398,-1.122812 -0.46009,-1.116508 -0.51613,-1.10811 -0.57192,-1.097554 -0.62729,-1.084762 -0.68203,-1.069658 -0.73593,-1.052168 -0.78875,-1.032197 -0.84026,-1.009645 -0.89016,-0.984404 -0.93819,-0.956348 -0.98404,-0.925332 -1.02742,-0.891201 -1.068,-0.853769 -1.10553,-0.81284 -1.13969,-0.7682 -1.17031,-0.719626 -1.1972,-0.666906 -1.22027,-0.609848 -1.23958,-0.54832"
     fill="none"
     stroke="#ff0000"
     stroke-width="1.1"
     fill-opacity="1"
     stroke-opacity="1"
     stroke-linecap="round"
     stroke-linejoin="round"
     stroke-dasharray="none"
     id="path52547"
     style="stroke:#de3b38;stroke-opacity:1;stroke-width:1;stroke-dasharray:none" /><path
     d="m 353.10355,205.33508 0.95657,-0.13407 0.93582,-0.0839 0.91465,-0.033 0.89294,0.0188 0.87058,0.0712 0.84745,0.1242 0.49399,0.10789 m -306.043474,15.73107 0.0252,-0.22765 0.108266,-0.5269 0.155557,-0.48502 0.200627,-0.4423 0.243583,-0.39881 0.284538,-0.35476 0.323608,-0.31022 0.360914,-0.26535 0.396577,-0.22028 0.430718,-0.17511 0.463457,-0.12995 0.494913,-0.0849 0.525202,-0.0401 0.554442,0.004 0.582741,0.0485 0.610211,0.0921 0.63696,0.13511 0.663088,0.17753 0.6887,0.21928 0.71389,0.26027 0.738759,0.30049 0.763396,0.33987 0.787894,0.3784 0.812342,0.41603 0.836825,0.45272 0.86143,0.48846 0.886239,0.52325 0.911335,0.55703 0.936795,0.58983 0.9627,0.62159 0.98913,0.65234 1.016149,0.68205 1.043844,0.71071 1.072275,0.73831 1.101518,0.76485 1.131633,0.7903 1.162682,0.81466 1.19473,0.83791 1.227815,0.86003 1.261998,0.881 1.297296,0.90077 1.333755,0.91934 1.371374,0.93664 1.410158,0.95264 1.450085,0.9673 1.49111,0.98054 1.533163,0.99228 1.576144,1.00246 1.619906,1.011 1.664265,1.01777 1.708974,1.02269 1.753724,1.0256 1.798119,1.0264 1.8417,1.02491 1.88386,1.021 1.9239,1.01448 1.96099,1.00516 1.99411,0.99286 2.0221,0.9774 2.0436,0.95857 2.05709,0.93621 2.06087,0.91015 2.05308,0.88029 2.0318,0.84655 1.99514,0.80896 1.94127,0.76763 1.86876,0.72276 1.77663,0.67476 1.66461,0.62409 1.53331,0.5714 1.38433,0.51743 1.22019,0.46298 0.63501,0.24936 m 118.7211,-0.0987 -0.0179,-0.16801 0.1673,-0.45878 0.40229,-0.50406 0.62255,-0.54862 0.82593,-0.59224 1.01107,-0.63463 1.17743,-0.6756 1.32509,-0.71489 1.45466,-0.75236 1.56714,-0.78785 1.66371,-0.8213 1.74572,-0.85267 1.8145,-0.88195 1.87136,-0.90916 1.91754,-0.93434 1.95418,-0.95753 1.98234,-0.9788 2.00295,-0.99822 2.01687,-1.01582 2.02483,-1.03168 2.02752,-1.04584 2.02553,-1.05835 2.01941,-1.06926 2.00963,-1.07859 1.9966,-1.08639 1.98074,-1.09267 1.96236,-1.09747 1.94181,-1.1008 1.91935,-1.10267 1.89525,-1.1031 1.86976,-1.1021 1.84309,-1.09968 1.81542,-1.09583 1.78698,-1.09057 1.75789,-1.08388 1.72836,-1.07579 1.69848,-1.06627 1.66842,-1.05534 1.63829,-1.04299 1.60819,-1.02922 1.57823,-1.01402 1.5485,-0.99739 1.51907,-0.97934 1.49001,-0.95986 1.4614,-0.93895 1.43327,-0.9166 1.40566,-0.89283 1.37861,-0.86763 1.35216,-0.84101 1.32628,-0.81296 1.30103,-0.78351 1.27637,-0.75265 1.25232,-0.72039 1.22883,-0.68676 1.20591,-0.65175 1.18351,-0.6154 1.16159,-0.57771 1.14012,-0.53871 1.11905,-0.49843 1.09829,-0.4569 1.07783,-0.41413 1.05756,-0.37018 1.03743,-0.32508 1.01735,-0.27888 0.99724,-0.23159 0.97702,-0.18332"
     fill="none"
     stroke="#ff0000"
     stroke-width="1.1"
     fill-opacity="1"
     stroke-opacity="1"
     stroke-linecap="round"
     stroke-linejoin="round"
     stroke-dasharray="none"
     id="path52549"
     style="stroke:#de3b38;stroke-opacity:1;stroke-width:1;stroke-dasharray:none" /></svg>
