<?xml version="1.0" encoding="UTF-8" standalone="no"?>
<svg
   width="400.67862"
   viewBox="0 0 400.67863 305.10593"
   version="1.1"
   id="svg36"
   sodipodi:docname="border.svg"
   inkscape:version="1.3.2 (1:1.3.2+202311252150+091e20ef0f)"
   xml:space="preserve"
   height="305.10593"
   xmlns:inkscape="http://www.inkscape.org/namespaces/inkscape"
   xmlns:sodipodi="http://sodipodi.sourceforge.net/DTD/sodipodi-0.dtd"
   xmlns="http://www.w3.org/2000/svg"
   xmlns:svg="http://www.w3.org/2000/svg"><sodipodi:namedview
     id="namedview38"
     pagecolor="#ffffff"
     bordercolor="#999999"
     borderopacity="1"
     inkscape:showpageshadow="0"
     inkscape:pageopacity="0"
     inkscape:pagecheckerboard="0"
     inkscape:deskcolor="#d1d1d1"
     showgrid="false"
     inkscape:zoom="1.18"
     inkscape:cx="17.79661"
     inkscape:cy="248.72881"
     inkscape:window-width="1866"
     inkscape:window-height="1011"
     inkscape:window-x="54"
     inkscape:window-y="1112"
     inkscape:window-maximized="1"
     inkscape:current-layer="svg36" /><defs
     id="defs5"><pattern
       id="hatch"
       patternUnits="userSpaceOnUse"
       width="5"
       height="5"
       patternTransform="rotate(45)"><line
         x1="0"
         y1="5"
         x2="0"
         stroke="white"
         stroke-linejoin="butt"
         stroke-width="1.3333333333333333"
         stroke-opacity="0.25"
         id="line2" /></pattern><clipPath
       clipPathUnits="userSpaceOnUse"
       id="clipPath5154"><path
         d="m 464.01716,-514.53079 v 153.2701 l -132.7358,76.63504 -132.73579,-76.63504 v -153.2701 l 132.73579,-76.63504 z"
         stroke="none"
         fill="#c42727"
         id="path5156"
         style="fill:#edca3d;fill-opacity:1;stroke-width:0.999995" /></clipPath><clipPath
       clipPathUnits="userSpaceOnUse"
       id="clipPath5158"><path
         d="m 464.01716,-514.53079 v 153.2701 l -132.7358,76.63504 -132.73579,-76.63504 v -153.2701 l 132.73579,-76.63504 z"
         stroke="none"
         fill="#c42727"
         id="path5160"
         style="fill:#edca3d;fill-opacity:1;stroke-width:0.999995" /></clipPath><pattern
       id="hatch-2"
       patternUnits="userSpaceOnUse"
       width="5"
       height="5"
       patternTransform="rotate(45)"><line
         x1="0"
         y1="5"
         x2="0"
         stroke="white"
         stroke-linejoin="butt"
         stroke-width="1.3333333333333333"
         stroke-opacity="0.25"
         id="line23905" /></pattern><clipPath
       clipPathUnits="userSpaceOnUse"
       id="clipPath11782"><circle
         style="fill:#ffffff;fill-opacity:0.435798;stroke:none;stroke-width:1.9;stroke-dasharray:none;stroke-opacity:1;stop-color:#000000"
         id="circle11784"
         cx="-183.78493"
         cy="123.71002"
         r="57.799141" /></clipPath></defs><clipPath
     id="sphere"><path
       d="M 33.181299,213.59791 C 30.051971,209.24339 26.922644,204.62169 25.35798,202.31085 23.793316,200 23.793316,200 23.793316,200 c 0,0 0,0 0,0 0,0 0,0 0,0 0,0 0,0 0,0 0,0 0,0 0,0 0,0 0,0 0,0 0,0 0,0 0,0 0,0 0,0 0,0 0,0 0,0 0,0 0,0 0,0 0,0 0,0 0,0 0,0 0,0 0,0 0,0 0,0 0,0 0,0 0,0 0,0 0,0 0,0 0,0 0,0 0,0 0,0 0,0 0,0 0,0 0,0 0,0 0,0 0,0 0,0 0,0 0,0 0,0 0,0 0,0 0,0 0,0 0,0 0,0 0,0 0,0 0,0 0,0 0,0 0,0 0,0 0,0 0,0 0,0 0,0 0,0 0,0 0,0 0,0 0,0 0,0 0,0 0,0 0,0 0,0 0,0 0,0 0,0 0,0 0,0 0,0 0,0 0,0 0,0 0,0 0,0 0,0 0,0 0,0 0,0 0,0 0,0 0,0 0,0 0,0 0,0 0,0 0,0 0,0 0,0 0,0 0,0 0,0 0,0 0,0 0,0 0,0 0,0 0,0 0.1116,-0.17452 0.1116,-0.17452 0.334799,-0.52355 1.999284,-2.97236 1.664485,-2.44881 4.770255,-6.9974 7.876025,-11.28518 3.105771,-4.28779 6.211541,-8.31478 9.317311,-12.11338 3.10577,-3.7986 6.21154,-7.36882 9.31731,-10.73653 3.10577,-3.36771 6.21154,-6.53293 9.31731,-9.5165 3.105771,-2.98358 6.211541,-5.78552 9.317311,-8.42277 3.10577,-2.63725 6.21154,-5.10981 9.31731,-7.4315 3.10577,-2.3217 6.21154,-4.49254 9.31731,-6.52383 3.10577,-2.0313 6.211541,-3.92306 9.317311,-5.68456 3.105772,-1.7615 6.211542,-3.39273 9.317312,-4.90128 3.10577,-1.50854 6.21154,-2.89439 9.31731,-4.16369 3.10577,-1.26929 6.21154,-2.42203 9.31731,-3.46312 3.10577,-1.04109 6.21154,-1.97052 9.31731,-2.79212 3.10577,-0.82161 6.21154,-1.53538 9.31731,-2.14418 3.10577,-0.6088 6.21154,-1.11264 9.31731,-1.51348 3.10577,-0.40084 6.21154,-0.69868 9.31731,-0.8947 3.10577,-0.19601 6.21154,-0.29018 9.31731,-0.28289 3.10577,0.007 6.21154,0.11608 9.31731,0.32674 3.10577,0.21067 6.21154,0.52322 9.31731,0.93889 3.10577,0.41566 6.21154,0.93443 9.31731,1.55835 3.10577,0.62391 6.21154,1.35297 9.31731,2.19011 3.10577,0.83713 6.21154,1.78233 9.31731,2.83951 3.10577,1.05717 6.21154,2.22631 9.31731,3.5124 3.10577,1.2861 6.21154,2.68915 9.31731,4.21538 3.10577,1.52623 6.21154,3.17565 9.31731,4.95593 3.10577,1.78029 6.21154,3.69144 9.31731,5.74287 3.10577,2.05143 6.21154,4.24314 9.31731,6.58661 3.10577,2.34348 6.21154,4.83872 9.31731,7.49975 3.10577,2.66104 6.21154,5.48787 9.31731,8.4977 3.10577,3.00983 6.21154,6.20264 9.31731,9.59964 3.10577,3.397 6.21154,6.99818 9.31731,10.82983 3.10577,3.83165 6.21155,7.89378 9.31732,12.21934 3.10577,4.32556 6.21154,8.91455 7.76442,11.20905 C 322.61685,200 322.61685,200 322.61685,200 c 0,0 0,0 0,0 0,0 0,0 0,0 0,0 0,0 0,0 0,0 0,0 0,0 0,0 0,0 0,0 0,0 0,0 0,0 0,0 0,0 0,0 0,0 0,0 0,0 0,0 0,0 0,0 0,0 0,0 0,0 0,0 0,0 0,0 0,0 0,0 0,0 0,0 0,0 0,0 0,0 0,0 0,0 0,0 0,0 0,0 0,0 0,0 0,0 0,0 0,0 0,0 0,0 0,0 0,0 0,0 0,0 0,0 0,0 0,0 0,0 0,0 0,0 0,0 0,0 0,0 0,0 0,0 0,0 0,0 0,0 0,0 0,0 0,0 0,0 0,0 0,0 0,0 0,0 0,0 0,0 0,0 0,0 0,0 0,0 0,0 0,0 0,0 0,0 0,0 0,0 0,0 0,0 0,0 0,0 0,0 0,0 0,0 0,0 0,0 0,0 0,0 0,0 0,0 0,0 0,0 0,0 0,0 0,0 0,0 0,0 0,0 0,0 0,0 0,0 0,0 0,0 0,0 0,0 0,0 0,0 0,0 0,0 -0.11904,0.1861 -0.11904,0.18609 -0.35713,0.55829 -1.93103,2.88195 -1.5739,2.32366 -4.48362,6.59879 -7.39334,10.6432 -2.90972,4.04442 -5.81945,7.85813 -8.72917,11.46832 -2.90972,3.61019 -5.81944,7.01686 -8.72916,10.242 -2.90973,3.22515 -5.81945,6.26877 -8.72917,9.14881 -2.90972,2.88004 -5.81944,5.59651 -8.72917,8.16415 -2.90972,2.56764 -5.81944,4.98646 -8.72916,7.26862 -2.90973,2.28217 -5.81945,4.42768 -8.72917,6.44664 -2.90972,2.01896 -5.81944,3.91135 -8.72917,5.68556 -2.90972,1.77421 -5.81944,3.43024 -8.72916,4.97501 -2.90972,1.54477 -5.81945,2.97828 -8.72917,4.30627 -2.90972,1.32799 -5.81944,2.55045 -8.72916,3.67206 -2.90973,1.1216 -5.81945,2.14236 -8.72917,3.06604 -2.90972,0.92368 -5.81945,1.75028 -8.72917,2.48276 -2.90972,0.73249 -5.81944,1.37086 -8.72916,1.91735 -2.90973,0.54649 -5.81945,1.0011 -8.72917,1.3654 -2.90972,0.3643 -5.81944,0.63828 -8.72917,0.82288 -2.90972,0.1846 -5.81944,0.27982 -8.72916,0.28598 -2.90972,0.006 -5.81945,-0.0767 -8.72917,-0.24898 -2.90972,-0.17224 -5.81944,-0.43382 -8.72917,-0.78563 -2.90972,-0.35181 -5.81944,-0.79385 -8.72916,-1.32764 -2.90972,-0.53379 -5.81945,-1.15933 -8.72917,-1.87881 -2.90972,-0.71948 -5.81944,-1.53289 -8.72916,-2.44316 -2.90973,-0.91026 -5.81945,-1.91737 -8.72917,-3.02505 -2.90972,-1.10767 -5.81944,-2.31591 -8.72917,-3.62932 -2.90972,-1.31341 -5.81944,-2.732 -8.72916,-4.26141 -2.90973,-1.5294 -5.819448,-3.16963 -8.72917,-4.92752 -2.909722,-1.75789 -5.819444,-3.63345 -8.729166,-5.63493 -2.909722,-2.00148 -5.819444,-4.1289 -8.729166,-6.3922 -2.909722,-2.2633 -5.819445,-4.66249 -8.729167,-7.20959 -2.909722,-2.5471 -5.819444,-5.24211 -8.729166,-8.09958 -2.909722,-2.85747 -5.819444,-5.87741 -8.729166,-9.0775 -2.909722,-3.2001 -5.819445,-6.58036 -8.838969,-10.31417 -3.019525,-3.73381 -6.148853,-7.82117 -9.278181,-12.1757"
       id="path27" /></clipPath><rect
     style="fill:#e8e7d5;fill-opacity:1;stroke-width:1;stop-color:#000000"
     id="rect1361"
     width="400.67862"
     height="272.67038"
     x="0"
     y="0"
     rx="0"
     ry="0" /><rect
     style="fill:#f2f2f2;fill-opacity:1;stroke-width:1;stop-color:#000000"
     id="rect1361-4"
     width="400.67862"
     height="32.435547"
     x="2.2351742e-06"
     y="272.67038"
     rx="0"
     ry="0" /><rect
     style="fill:#de3b38;fill-opacity:1;stroke-width:0.999998;stop-color:#000000"
     id="rect1361-3"
     width="400.67862"
     height="52.049679"
     x="0"
     y="4.8941189e-07"
     rx="0"
     ry="0" /><g
     id="g4389"
     transform="matrix(1.4616141,0,0,1.4616141,-190.8129,-13.737566)"
     style="stroke-width:0.684175"><text
       xml:space="preserve"
       style="font-style:normal;font-weight:normal;font-size:16.7605px;line-height:1.25;font-family:sans-serif;fill:#ffffff;fill-opacity:1;stroke:none;stroke-width:0.684175"
       x="307.24359"
       y="29.942013"
       id="text1454-9-2-2"><tspan
         sodipodi:role="line"
         id="tspan1452-3-6-0"
         x="307.24359"
         y="29.942013"
         style="font-style:normal;font-variant:normal;font-weight:bold;font-stretch:normal;font-family:Roboto;-inkscape-font-specification:'Roboto Bold';fill:#ffffff;fill-opacity:1;stroke-width:0.684175">geot      lbox</tspan></text><path
       style="fill:#ffffff;fill-opacity:1;stroke-width:0.68417"
       d="m 345.79499,30.52847 c -0.13375,-0.07778 -0.15215,-0.133087 -0.15948,-0.479424 -0.004,-0.179157 -0.01,-0.438114 -0.0135,-0.575455 l -0.007,-0.249714 -0.27049,-0.131371 c -0.14878,-0.07226 -0.38469,-0.206013 -0.52427,-0.297243 l -0.25378,-0.165862 -0.41942,0.261946 c -0.52554,0.328237 -0.5809,0.351492 -0.72816,0.305932 -0.0982,-0.0304 -0.1836,-0.123498 -0.63004,-0.686853 -0.43326,-0.546685 -0.51763,-0.66956 -0.52355,-0.762451 -0.01,-0.152674 0.0489,-0.234352 0.46375,-0.646238 l 0.35057,-0.348025 -0.10201,-0.283447 c -0.0561,-0.155899 -0.12993,-0.415888 -0.16405,-0.577754 l -0.062,-0.294306 -0.11395,-0.0333 c -0.0627,-0.01831 -0.29834,-0.07786 -0.52373,-0.132276 -0.22538,-0.05445 -0.44412,-0.122054 -0.48607,-0.15024 -0.15171,-0.101919 -0.15476,-0.161625 -0.0529,-1.037649 0.0638,-0.549583 0.10694,-0.824475 0.13687,-0.874043 0.0921,-0.152481 0.1692,-0.164462 1.04796,-0.16281 0.13019,2.3e-4 0.24812,-0.0095 0.26208,-0.02165 0.014,-0.01213 0.0755,-0.131371 0.13675,-0.264931 0.0612,-0.133564 0.18333,-0.353973 0.2713,-0.489805 0.088,-0.135827 0.16143,-0.259603 0.16323,-0.275057 0.003,-0.02774 -0.2426,-0.452356 -0.42971,-0.74221 -0.12113,-0.187612 -0.15047,-0.301254 -0.1108,-0.428979 0.0251,-0.08098 0.15651,-0.199356 0.6857,-0.61795 0.81456,-0.64432 0.81303,-0.643936 1.16919,-0.291411 0.41245,0.40826 0.57329,0.5575 0.60478,0.561159 0.0187,0.0021 0.12957,-0.03106 0.24648,-0.07384 0.19786,-0.0724 0.58554,-0.178337 0.79749,-0.217917 0.10108,-0.01888 0.0798,0.0392 0.30303,-0.825668 0.0904,-0.350252 0.13093,-0.407571 0.30777,-0.435241 0.1597,-0.02499 1.56957,0.146284 1.69287,0.205658 0.15266,0.0735 0.18025,0.180702 0.17718,0.688447 -0.004,0.672116 -0.0311,0.60616 0.31768,0.775344 0.16373,0.07943 0.38854,0.204489 0.49959,0.277906 0.11104,0.07342 0.21637,0.135166 0.23405,0.137222 0.0287,0.0032 0.28296,-0.142209 0.75599,-0.432885 0.37834,-0.232481 0.39143,-0.225094 1.03007,0.5813 0.65661,0.829105 0.65535,0.823131 0.25707,1.212999 -0.45086,0.441354 -0.51629,0.509906 -0.52041,0.545309 -0.003,0.02034 0.0405,0.169426 0.0952,0.331098 0.0547,0.161674 0.12296,0.411776 0.1516,0.555788 0.0287,0.144009 0.0542,0.266012 0.0567,0.271119 0.003,0.0052 0.2388,0.06362 0.52502,0.130057 0.28622,0.06643 0.5547,0.143877 0.59662,0.172123 0.15358,0.103494 0.15848,0.190049 0.0591,1.045058 -0.12396,1.066433 -0.0974,1.03288 -0.81661,1.03375 -0.69514,8.41e-4 -0.62706,-0.0215 -0.7492,0.24583 -0.0579,0.126751 -0.18266,0.354387 -0.27724,0.505861 -0.0946,0.151474 -0.17391,0.292397 -0.17633,0.313162 -0.003,0.0207 0.0329,0.09613 0.0783,0.167479 0.28077,0.44032 0.43097,0.693913 0.46234,0.780663 0.074,0.204568 0.0317,0.255186 -0.68793,0.82401 -0.84357,0.666771 -0.80294,0.658962 -1.22969,0.236283 -0.12616,-0.124956 -0.24779,-0.245829 -0.2703,-0.268614 -0.12987,-0.131467 -0.24287,-0.230402 -0.26624,-0.233123 -0.0147,-0.0017 -0.12798,0.03238 -0.25168,0.07574 -0.21229,0.07443 -0.59402,0.177737 -0.79636,0.215516 -0.10843,0.02025 -0.1148,0.03618 -0.25582,0.639084 -0.0545,0.232874 -0.12336,0.459522 -0.15311,0.503666 -0.0986,0.146252 -0.18725,0.150433 -1.04608,0.04931 -0.57512,-0.06775 -0.80244,-0.104796 -0.86479,-0.141039 z m 1.89848,-2.741257 c 1.07427,-0.141111 1.93891,-0.822911 2.35954,-1.860576 0.12898,-0.318209 0.21353,-1.038799 0.16136,-1.372771 -0.0544,-0.346329 -0.11182,-0.552223 -0.22177,-0.795282 -0.34221,-0.756513 -0.92136,-1.297653 -1.69194,-1.580904 -0.3424,-0.125857 -0.96677,-0.19217 -1.33764,-0.142042 -0.97011,0.131092 -1.80641,0.734467 -2.23122,1.609772 -0.22691,0.467554 -0.32342,0.983083 -0.28093,1.500258 0.0256,0.311255 0.0396,0.376333 0.15933,0.740972 0.26006,0.792127 0.96235,1.481875 1.80564,1.773408 0.33949,0.117362 0.91587,0.174827 1.27785,0.127196 z"
       id="path4256-1" /><path
       style="fill:#ffffff;fill-opacity:1;stroke-width:0.68417"
       d="m 356.43959,26.545085 c -0.15222,-0.103539 -0.16941,-0.170721 -0.14906,-0.582385 0.0105,-0.21296 0.0251,-0.520804 0.0323,-0.684117 l 0.0131,-0.296923 -0.31002,-0.178616 c -0.1705,-0.09824 -0.43928,-0.276786 -0.59728,-0.39677 l -0.28728,-0.218151 -0.51978,0.2757 c -0.65128,0.345471 -0.71893,0.368429 -0.88988,0.301998 -0.11398,-0.04429 -0.20755,-0.161981 -0.69014,-0.868056 -0.46832,-0.685189 -0.55815,-0.8381 -0.55739,-0.948847 0.001,-0.18202 0.0776,-0.274047 0.60464,-0.728079 l 0.44526,-0.383637 -0.0973,-0.344968 c -0.0535,-0.189738 -0.1193,-0.504497 -0.14622,-0.699473 l -0.0489,-0.354501 -0.13244,-0.04909 c -0.0729,-0.02699 -0.34756,-0.117433 -0.61049,-0.200958 -0.26293,-0.08352 -0.51686,-0.182127 -0.56429,-0.2191 -0.17151,-0.133688 -0.17011,-0.204806 0.0242,-1.235972 0.12193,-0.646907 0.19608,-0.969562 0.23575,-1.02588 0.12206,-0.17325 0.21461,-0.181 1.25742,-0.105305 0.15449,0.0112 0.29528,0.0095 0.31287,-0.0037 0.0176,-0.01325 0.10062,-0.149584 0.18453,-0.302963 0.0839,-0.153375 0.24729,-0.404728 0.36309,-0.558557 0.11581,-0.153827 0.21338,-0.294568 0.21681,-0.312755 0.006,-0.03269 -0.24996,-0.557232 -0.44772,-0.916948 -0.12801,-0.23283 -0.15331,-0.370172 -0.0955,-0.518431 0.0367,-0.09399 0.20248,-0.223475 0.86567,-0.67588 1.02083,-0.696365 1.01899,-0.696037 1.4121,-0.24776 0.45527,0.519153 0.63365,0.709776 0.67071,0.716762 0.022,0.0041 0.15638,-0.02599 0.29873,-0.06695 0.2409,-0.06933 0.70991,-0.162532 0.96479,-0.191723 0.12155,-0.01392 0.0914,0.05321 0.42893,-0.954516 0.13668,-0.408109 0.1896,-0.47274 0.40179,-0.490743 0.19164,-0.01626 1.85057,0.305317 1.99193,0.386127 0.17501,0.100047 0.19876,0.22959 0.15252,0.831952 -0.0612,0.79736 -0.0877,0.716812 0.31198,0.946874 0.18766,0.108011 0.44399,0.275297 0.56963,0.371751 0.12563,0.09645 0.24545,0.178579 0.26627,0.182502 0.0339,0.0064 0.34776,-0.145038 0.93357,-0.450335 0.46853,-0.244181 0.48346,-0.234311 1.17375,0.776342 0.70974,1.039121 0.70874,1.031927 0.20333,1.461222 -0.57214,0.485991 -0.65554,0.561862 -0.6634,0.603534 -0.005,0.02404 0.0338,0.204478 0.0852,0.400955 0.0514,0.196475 0.11138,0.499031 0.13329,0.672357 0.0219,0.173322 0.042,0.320259 0.0445,0.326533 0.003,0.0064 0.27808,0.09555 0.61222,0.198406 0.33413,0.102846 0.64627,0.217304 0.69364,0.254345 0.1736,0.135716 0.17215,0.238855 -0.0175,1.245284 -0.2366,1.2553 -0.20231,1.2177 -1.05594,1.158386 -0.82509,-0.05733 -0.74242,-0.07813 -0.90981,0.228901 -0.0793,0.145579 -0.24654,0.405276 -0.37148,0.577121 -0.12495,0.171841 -0.23095,0.332437 -0.23556,0.356879 -0.005,0.02443 0.0309,0.116845 0.0789,0.205348 0.29629,0.546152 0.45326,0.859733 0.48322,0.965323 0.0706,0.249002 0.0162,0.305533 -0.88561,0.920255 -1.05714,0.720574 -1.00827,0.71472 -1.47929,0.177249 -0.13924,-0.158888 -0.27346,-0.312554 -0.29826,-0.34148 -0.14311,-0.166932 -0.26891,-0.293834 -0.29643,-0.299021 -0.0173,-0.0033 -0.15461,0.02768 -0.30506,0.06878 -0.2582,0.07052 -0.71993,0.161104 -0.96324,0.188963 -0.13039,0.01493 -0.13929,0.03331 -0.35725,0.737034 -0.0842,0.271803 -0.18497,0.535033 -0.22397,0.584926 -0.12924,0.165311 -0.23486,0.16283 -1.24569,-0.02925 -0.67689,-0.128683 -0.94358,-0.191691 -1.01454,-0.239962 z m 2.48323,-3.094164 c 1.28683,-0.07734 2.37023,-0.813987 2.95653,-2.010247 0.17979,-0.366844 0.34059,-1.214983 0.30639,-1.615793 -0.0355,-0.415607 -0.0864,-0.664786 -0.19647,-0.962486 -0.34269,-0.926587 -0.98463,-1.617432 -1.87543,-2.018267 -0.39582,-0.178104 -1.13129,-0.309189 -1.57566,-0.280828 -1.16237,0.07419 -2.20557,0.720132 -2.7832,1.723344 -0.30855,0.53588 -0.46634,1.139636 -0.45921,1.757036 0.004,0.371565 0.0154,0.449979 0.12694,0.892797 0.24218,0.961955 1.01781,1.839508 1.99421,2.256276 0.39308,0.167779 1.07236,0.284234 1.50595,0.258178 z"
       id="path4256-1-8-9" /><rect
       style="font-variation-settings:normal;fill:#ffffff;fill-opacity:1;stroke:none;stroke-width:13.6835;stroke-linecap:round;stroke-linejoin:round;stroke-miterlimit:4;stroke-dasharray:none;stroke-dashoffset:0;stroke-opacity:1;stop-color:#000000"
       id="rect24426"
       width="12.457413"
       height="12.457413"
       x="353.25241"
       y="28.874289"
       ry="5.6028881"
       rx="5.6028881" /><text
       xml:space="preserve"
       style="font-style:normal;font-weight:normal;font-size:9.06636px;line-height:1.25;font-family:sans-serif;fill:#de3b38;fill-opacity:1;stroke:none;stroke-width:0.684175"
       x="354.48523"
       y="37.494022"
       id="text24706"><tspan
         sodipodi:role="line"
         id="tspan24704"
         x="354.48523"
         y="37.494022"
         style="font-style:normal;font-variant:normal;font-weight:bold;font-stretch:normal;font-size:9.06636px;font-family:Roboto;-inkscape-font-specification:'Roboto Bold';fill:#de3b38;fill-opacity:1;stroke-width:0.684175">.js</tspan></text></g><text
     xml:space="preserve"
     style="font-style:normal;font-weight:normal;font-size:40px;line-height:1.25;font-family:sans-serif;fill:#ffffff;fill-opacity:1;stroke:none;stroke-width:0.999998"
     x="11.523982"
     y="41.034603"
     id="text1624"><tspan
       sodipodi:role="line"
       id="tspan1622"
       x="11.523982"
       y="41.034603"
       style="font-style:normal;font-variant:normal;font-weight:bold;font-stretch:normal;font-size:40px;font-family:roboto;-inkscape-font-specification:'roboto Bold';fill:#ffffff;fill-opacity:1;stroke-width:0.999998">Border</tspan></text><text
     xml:space="preserve"
     style="font-style:normal;font-weight:normal;font-size:20px;line-height:1.25;font-family:sans-serif;fill:#000000;fill-opacity:1;stroke:none"
     x="130.98872"
     y="293.3364"
     id="text6596"><tspan
       sodipodi:role="line"
       id="tspan6594"
       x="130.98872"
       y="293.3364"
       style="font-style:normal;font-variant:normal;font-weight:normal;font-stretch:normal;font-size:20px;font-family:'Courier New';-inkscape-font-specification:'Courier New'">border(data)</tspan></text><g
     id="g8954"
     transform="translate(569.30702,291.72968)"><rect
       style="fill:#de3b38;fill-opacity:1;stroke:none;stroke-width:1.9;stroke-dasharray:3.8, 3.8;stroke-dashoffset:0;stroke-opacity:1;stop-color:#000000"
       id="rect8620"
       width="23.861229"
       height="11.930614"
       x="-388.43353"
       y="-139.90996" /><path
       sodipodi:type="star"
       style="fill:#de3b38;fill-opacity:1;stroke:none;stroke-width:2.56974;stroke-dasharray:5.13947, 5.13947;stroke-dashoffset:0;stroke-opacity:1;stop-color:#000000"
       id="path8950"
       inkscape:flatsided="false"
       sodipodi:sides="3"
       sodipodi:cx="-251.28442"
       sodipodi:cy="-81.816078"
       sodipodi:r1="23.436432"
       sodipodi:r2="11.718216"
       sodipodi:arg1="2.0943951"
       sodipodi:arg2="3.1415927"
       inkscape:rounded="0"
       inkscape:randomized="0"
       d="m -263.00264,-61.519533 0,-20.296546 0,-20.296541 17.57732,10.148269 17.57733,10.148273 -17.57733,10.148273 z"
       inkscape:transform-center-x="-4.3320803"
       transform="matrix(0.73937574,0,0,0.73937574,-175.30467,-73.451827)" /></g><g
     id="g15964"
     transform="matrix(0.69982166,0,0,0.69923989,332.90915,186.37796)"
     style="stroke-width:1.42953"><path
       id="path15177"
       style="font-variation-settings:normal;fill:#de3b38;fill-opacity:1;stroke:#e8e7d5;stroke-width:2.71609;stroke-linecap:butt;stroke-linejoin:miter;stroke-miterlimit:4;stroke-dasharray:none;stroke-dashoffset:0;stroke-opacity:1;stop-color:#000000"
       d="m -312.39023,-17.65911 c 0.053,0.0482 0.071,0.11088 0.0534,0.18895 -0.0176,0.078 -0.0715,0.17182 -0.15757,0.27856 -0.17223,0.21351 -0.47866,0.48397 -0.91142,0.80666 -0.86552,0.64537 -2.23474,1.50057 -4.03596,2.53621 -1.80119,1.03564 -4.03463,2.25014 -6.62961,3.61416 -2.595,1.36403 -5.55224,2.87752 -8.79911,4.50803 -6.49371,3.26098 -14.14798,6.99356 -22.3977,10.94907 -8.24971,3.95551 -17.093,8.13382 -25.9634,12.28864 -5.25453,2.46117 -10.31963,4.80166 -15.47477,7.19442 0.19743,26.37151 23.95632,63.7275 23.95632,63.7275 0,0 44.04792,7.36485 61.27858,-2.39088 17.23066,-9.75569 41.59175,-35.83464 34.46434,-53.98475 -7.1274,-18.15015 2.40895,-2.68911 19.45983,-47.19004 0,0 -33.99045,0.16714 -48.73682,0.16714 -0.46083,0 -0.93335,-0.0606 -1.42046,-0.17925 -0.48712,-0.11857 -0.98726,-0.2961 -1.49803,-0.52565 -0.51078,-0.22957 -1.0341,-0.51255 -1.5659,-0.84541 -0.53181,-0.33287 -1.07144,-0.71484 -1.62165,-1.14336 z" /><path
       id="path15188"
       style="font-variation-settings:normal;fill:#de3b38;fill-opacity:1;stroke:#e8e7d5;stroke-width:2.71609;stroke-linecap:butt;stroke-linejoin:miter;stroke-miterlimit:4;stroke-dasharray:none;stroke-dashoffset:0;stroke-opacity:1;stop-color:#000000"
       d="m -382.31761,-117.9667 c -20.44415,10.59475 -39.34317,20.74053 -41.31698,23.09723 -4.48911,5.35996 6.68296,68.81931 6.68296,68.81931 0,0 20.22822,24.03045 20.22822,50.41904 0,0.10951 0.0161,0.22675 0.017,0.33671 5.15514,-2.39276 10.22024,-4.73325 15.47477,-7.19442 8.8704,-4.15482 17.71369,-8.33313 25.9634,-12.28864 8.24972,-3.95551 15.90399,-7.68809 22.3977,-10.94907 3.24687,-1.63051 6.20411,-3.144 8.79911,-4.50803 2.59498,-1.36402 4.82842,-2.57852 6.62961,-3.61416 1.80122,-1.03564 3.17044,-1.89084 4.03596,-2.53621 0.43276,-0.32269 0.73919,-0.59315 0.91142,-0.80666 0.0861,-0.10678 0.13991,-0.20056 0.15757,-0.27856 0.0176,-0.078 -3.1e-4,-0.14065 -0.0534,-0.18895 -0.55022,-0.42852 -1.10897,-0.90299 -1.67498,-1.4195 -0.56601,-0.51651 -1.13945,-1.07457 -1.71862,-1.67144 -1.15833,-1.1937 -2.34138,-2.5398 -3.53661,-4.009 -1.19522,-1.46919 -2.40305,-3.06195 -3.61417,-4.74541 -1.21113,-1.68345 -2.42512,-3.45878 -3.63114,-5.29528 -1.20603,-1.8365 -2.40518,-3.73516 -3.58509,-5.66349 -1.17991,-1.92831 -2.34077,-3.88622 -3.47358,-5.84516 -2.26563,-3.91783 -4.41662,-7.83566 -6.36784,-11.50863 -1.95121,-3.673 -3.70399,-7.1023 -5.1728,-10.0407 -2.93761,-5.87677 -4.74133,-9.7936 -4.74133,-9.7936 0,0 -19.33582,-24.04819 -32.41122,-40.31538 z" /><path
       id="path15181"
       style="font-variation-settings:normal;fill:#de3b38;fill-opacity:1;stroke:#e8e7d5;stroke-width:2.71609;stroke-linecap:butt;stroke-linejoin:miter;stroke-miterlimit:4;stroke-dasharray:none;stroke-dashoffset:0;stroke-opacity:1;stop-color:#000000"
       d="m -350.70866,-78.64934 c 0.0233,0.029 0.80234,0.99802 0.80234,0.99802 0,0 1.80372,3.91683 4.74133,9.7936 1.46881,2.9384 3.22159,6.3677 5.1728,10.0407 1.95122,3.67297 4.10221,7.5908 6.36784,11.50863 1.13281,1.95894 2.29367,3.91685 3.47358,5.84516 1.17991,1.92833 2.37906,3.82699 3.58509,5.66349 1.20602,1.8365 2.42001,3.61183 3.63114,5.29528 1.21112,1.68346 2.41895,3.27622 3.61417,4.74541 1.19523,1.4692 2.37828,2.8153 3.53661,4.009 0.57917,0.59687 1.15261,1.15493 1.71862,1.67144 0.56601,0.51651 1.12476,0.99098 1.67498,1.4195 0.55021,0.42852 1.08985,0.81049 1.62165,1.14336 0.53181,0.33286 1.05512,0.61584 1.5659,0.84541 0.51077,0.22955 1.01092,0.40703 1.49803,0.52565 0.48711,0.11857 0.95963,0.17925 1.42046,0.17925 14.74637,0 48.73682,-0.16714 48.73682,-0.16714 11.50908,-30.03742 8.44453,-60.39756 5.23583,-77.18614 z" /><path
       id="path15193"
       style="font-variation-settings:normal;fill:#de3b38;fill-opacity:1;stroke:#e8e7d5;stroke-width:2.71609;stroke-linecap:butt;stroke-linejoin:miter;stroke-miterlimit:4;stroke-dasharray:none;stroke-dashoffset:0;stroke-opacity:1;stop-color:#000000"
       d="m -350.70873,-78.64934 98.39719,-13.66938 c -1.54504,-8.08397 -3.12453,-13.28909 -3.12453,-13.28909 v -39.9181 l -72.20109,-0.19379 c 0,0 -28.62741,14.25155 -54.68045,27.753 12.75171,15.86449 30.69055,38.17523 31.60888,39.31736 z" /></g><path
     id="path15177-7"
     style="font-variation-settings:normal;vector-effect:none;fill:#de3b38;fill-opacity:1;stroke:#e8e7d5;stroke-width:1.89999;stroke-linecap:butt;stroke-linejoin:miter;stroke-miterlimit:4;stroke-dasharray:none;stroke-dashoffset:0;stroke-opacity:1;-inkscape-stroke:none;stop-color:#000000"
     d="m 310.21312,84.485333 c 0,0 -20.03495,9.965902 -38.26739,19.406627 -14.30723,7.40826 -27.53281,14.50291 -28.91411,16.1508 -3.14157,3.74789 4.67732,48.12054 4.67732,48.12054 0,0 14.15635,16.80371 14.15635,35.25562 0,0.0765 0.0103,0.15802 0.0109,0.2349 0.13817,18.43997 16.76565,44.56153 16.76565,44.56153 0,0 30.8262,5.14859 42.88457,-1.67299 12.05837,-6.82156 29.10578,-25.05678 24.11788,-37.74803 -4.98791,-12.69128 1.68664,-1.88 13.61919,-32.99675 8.05428,-21.00332 5.91001,-42.23199 3.66449,-53.97122 -1.08125,-5.65262 -2.18694,-9.29224 -2.18694,-9.29224 V 84.621896 Z" /><path
     id="path15177-9"
     style="font-variation-settings:normal;fill:#f8f6f0;fill-opacity:1;stroke:#de3b38;stroke-width:1.89999;stroke-linecap:butt;stroke-linejoin:miter;stroke-miterlimit:4;stroke-dasharray:none;stroke-dashoffset:0;stroke-opacity:1;stop-color:#000000"
     d="m 320.88193,174.02974 c 0.0371,0.0337 0.0497,0.0775 0.0374,0.13212 -0.0123,0.0545 -0.05,0.12014 -0.11027,0.19478 -0.12053,0.14929 -0.33498,0.33841 -0.63783,0.56405 -0.60571,0.45126 -1.56392,1.04925 -2.82446,1.77342 -1.26051,0.72416 -2.82352,1.57338 -4.63954,2.52716 -1.81604,0.95378 -3.88558,2.01208 -6.15781,3.15219 -4.54444,2.28021 -9.90106,4.89018 -15.67439,7.65603 -5.77333,2.76585 -11.96206,5.68749 -18.16975,8.59271 -3.67724,1.72095 -7.2219,3.35751 -10.82958,5.03062 0.13816,18.44002 16.76515,44.56081 16.76515,44.56081 0,0 30.82569,5.1498 42.88408,-1.67179 12.05838,-6.82157 29.1068,-25.05701 24.11889,-37.7483 -4.98791,-12.6913 1.68583,-1.88033 13.61841,-32.99715 0,0 -23.78726,0.11687 -34.10708,0.11687 -0.3225,0 -0.65318,-0.0424 -0.99407,-0.12534 -0.3409,-0.0829 -0.69091,-0.20705 -1.04836,-0.36756 -0.35745,-0.16052 -0.72368,-0.35839 -1.09585,-0.59114 -0.37217,-0.23276 -0.74981,-0.49985 -1.13486,-0.79948 z" /><path
     id="path15188-2"
     style="font-variation-settings:normal;fill:#f8f6f0;fill-opacity:1;stroke:#de3b38;stroke-width:1.89999;stroke-linecap:butt;stroke-linejoin:miter;stroke-miterlimit:4;stroke-dasharray:none;stroke-dashoffset:0;stroke-opacity:1;stop-color:#000000"
     d="m 271.94523,103.89067 c -14.30726,7.40827 -27.5332,14.5026 -28.91452,16.1505 -3.14157,3.7479 4.67689,48.12121 4.67689,48.12121 0,0 14.15614,16.80305 14.15614,35.255 0,0.0766 0.0113,0.15856 0.0119,0.23544 3.60768,-1.67311 7.15234,-3.30967 10.82958,-5.03062 6.2077,-2.90522 12.39642,-5.82686 18.16975,-8.59271 5.77333,-2.76585 11.12995,-5.37582 15.67439,-7.65603 2.27223,-1.14011 4.34177,-2.19841 6.15781,-3.15219 1.81602,-0.95378 3.37903,-1.803 4.63955,-2.52716 1.26053,-0.72417 2.21874,-1.32216 2.82445,-1.77342 0.30285,-0.22564 0.5173,-0.41476 0.63783,-0.56405 0.0602,-0.0747 0.0979,-0.14024 0.11027,-0.19478 0.0123,-0.0545 -2.2e-4,-0.0983 -0.0374,-0.13212 -0.38506,-0.29964 -0.77608,-0.63141 -1.17219,-0.99258 -0.3961,-0.36116 -0.79741,-0.75138 -1.20273,-1.16873 -0.81062,-0.83469 -1.63854,-1.77593 -2.47499,-2.80326 -0.83644,-1.02731 -1.68171,-2.14103 -2.52928,-3.31818 -0.84757,-1.17713 -1.69715,-2.41851 -2.54115,-3.70267 -0.844,-1.28415 -1.68319,-2.61177 -2.50892,-3.96013 -0.82573,-1.34836 -1.63812,-2.7174 -2.43089,-4.08717 -1.58553,-2.73951 -3.09084,-5.47901 -4.45635,-8.0473 -1.3655,-2.5683 -2.59213,-4.96621 -3.62004,-7.02085 -2.0558,-4.10928 -3.31808,-6.84808 -3.31808,-6.84808 0,0 -13.53163,-16.81545 -22.68208,-28.19012 z" /><path
     id="path15181-0"
     style="font-variation-settings:normal;fill:#f8f6f0;fill-opacity:1;stroke:#de3b38;stroke-width:1.89999;stroke-linecap:butt;stroke-linejoin:miter;stroke-miterlimit:4;stroke-dasharray:none;stroke-dashoffset:0;stroke-opacity:1;stop-color:#000000"
     d="m 294.06586,131.38293 c 0.0163,0.0203 0.5615,0.69786 0.5615,0.69786 0,0 1.26228,2.7388 3.31808,6.84808 1.02791,2.05464 2.25454,4.45255 3.62004,7.02085 1.3655,2.56829 2.87081,5.30779 4.45635,8.0473 0.79277,1.36977 1.60516,2.73881 2.43089,4.08717 0.82572,1.34836 1.66491,2.67598 2.50892,3.96013 0.844,1.28416 1.69358,2.52554 2.54115,3.70267 0.84757,1.17715 1.69283,2.29087 2.52928,3.31818 0.83644,1.02733 1.66437,1.96857 2.47499,2.80326 0.40532,0.41735 0.80662,0.80757 1.20273,1.16873 0.39611,0.36117 0.78713,0.69294 1.17219,0.99258 0.38505,0.29963 0.7627,0.56672 1.13486,0.79948 0.37217,0.23275 0.7384,0.43062 1.09585,0.59114 0.35745,0.16051 0.70747,0.28461 1.04836,0.36756 0.34089,0.0829 0.67157,0.12534 0.99407,0.12534 10.31982,0 34.10708,-0.11687 34.10708,-0.11687 8.0543,-21.00337 5.90966,-42.23239 3.66415,-53.97163 z" /><path
     id="path15193-6"
     style="font-variation-settings:normal;fill:#f8f6f0;fill-opacity:1;stroke:#de3b38;stroke-width:1.89999;stroke-linecap:butt;stroke-linejoin:miter;stroke-miterlimit:4;stroke-dasharray:none;stroke-dashoffset:0;stroke-opacity:1;stop-color:#000000"
     d="m 294.06581,131.38293 68.86049,-9.55817 c -1.08126,-5.65264 -2.18662,-9.29226 -2.18662,-9.29226 V 84.620175 l -50.52788,-0.13551 c 0,0 -20.03409,9.96526 -38.26657,19.406005 8.92393,11.09308 21.47791,26.69364 22.12058,27.49226 z" /><path
     id="path15177-9-8"
     style="font-variation-settings:normal;fill:none;fill-opacity:1;stroke:#e8e7d5;stroke-width:2.8;stroke-linecap:butt;stroke-linejoin:miter;stroke-miterlimit:4;stroke-dasharray:none;stroke-dashoffset:0;stroke-opacity:1;stop-color:#000000"
     d="m 310.21233,84.483565 c 0,0 -20.03513,9.96552 -38.26757,19.406245 -14.30724,7.40825 -27.53275,14.50249 -28.91407,16.15039 -3.14155,3.7479 4.67774,48.1211 4.67774,48.1211 0,0 14.15625,16.80394 14.15625,35.25585 0,0.0766 0.0111,0.1575 0.0117,0.23438 0.13816,18.43998 16.76562,44.56055 16.76562,44.56055 0,0 30.82446,5.14971 42.88281,-1.67188 12.05836,-6.82155 29.10705,-25.05678 24.11914,-37.74805 -4.98789,-12.69126 1.68659,-1.87933 13.61915,-32.99609 8.05428,-21.00333 5.90957,-42.23345 3.66406,-53.97265 -1.08126,-5.65264 -2.1875,-9.29102 -2.1875,-9.29102 V 84.620285 Z" /></svg>
