<?xml version="1.0" encoding="UTF-8" standalone="no"?>
<svg
   width="400.67862"
   viewBox="0 0 400.67863 305.10593"
   version="1.1"
   id="svg36"
   sodipodi:docname="centroid.svg"
   inkscape:version="1.3.2 (1:1.3.2+202311252150+091e20ef0f)"
   xml:space="preserve"
   height="305.10593"
   inkscape:export-filename="union.png"
   inkscape:export-xdpi="149"
   inkscape:export-ydpi="149"
   xmlns:inkscape="http://www.inkscape.org/namespaces/inkscape"
   xmlns:sodipodi="http://sodipodi.sourceforge.net/DTD/sodipodi-0.dtd"
   xmlns="http://www.w3.org/2000/svg"
   xmlns:svg="http://www.w3.org/2000/svg"><sodipodi:namedview
     id="namedview38"
     pagecolor="#ffffff"
     bordercolor="#999999"
     borderopacity="1"
     inkscape:showpageshadow="0"
     inkscape:pageopacity="0"
     inkscape:pagecheckerboard="0"
     inkscape:deskcolor="#d1d1d1"
     showgrid="false"
     inkscape:zoom="0.834386"
     inkscape:cx="111.4592"
     inkscape:cy="100.07359"
     inkscape:window-width="1866"
     inkscape:window-height="1011"
     inkscape:window-x="54"
     inkscape:window-y="1112"
     inkscape:window-maximized="1"
     inkscape:current-layer="svg36" /><defs
     id="defs5"><pattern
       id="hatch"
       patternUnits="userSpaceOnUse"
       width="5"
       height="5"
       patternTransform="rotate(45)"><line
         x1="0"
         y1="5"
         x2="0"
         stroke="white"
         stroke-linejoin="butt"
         stroke-width="1.3333333333333333"
         stroke-opacity="0.25"
         id="line2" /></pattern><clipPath
       clipPathUnits="userSpaceOnUse"
       id="clipPath5154"><path
         d="m 464.01716,-514.53079 v 153.2701 l -132.7358,76.63504 -132.73579,-76.63504 v -153.2701 l 132.73579,-76.63504 z"
         stroke="none"
         fill="#c42727"
         id="path5156"
         style="fill:#edca3d;fill-opacity:1;stroke-width:0.999995" /></clipPath><clipPath
       clipPathUnits="userSpaceOnUse"
       id="clipPath5158"><path
         d="m 464.01716,-514.53079 v 153.2701 l -132.7358,76.63504 -132.73579,-76.63504 v -153.2701 l 132.73579,-76.63504 z"
         stroke="none"
         fill="#c42727"
         id="path5160"
         style="fill:#edca3d;fill-opacity:1;stroke-width:0.999995" /></clipPath><pattern
       id="hatch-2"
       patternUnits="userSpaceOnUse"
       width="5"
       height="5"
       patternTransform="rotate(45)"><line
         x1="0"
         y1="5"
         x2="0"
         stroke="white"
         stroke-linejoin="butt"
         stroke-width="1.3333333333333333"
         stroke-opacity="0.25"
         id="line23905" /></pattern><clipPath
       clipPathUnits="userSpaceOnUse"
       id="clipPath11782"><circle
         style="fill:#ffffff;fill-opacity:0.435798;stroke:none;stroke-width:1.9;stroke-dasharray:none;stroke-opacity:1;stop-color:#000000"
         id="circle11784"
         cx="-183.78493"
         cy="123.71002"
         r="57.799141" /></clipPath></defs><clipPath
     id="sphere"><path
       d="M 33.181299,213.59791 C 30.051971,209.24339 26.922644,204.62169 25.35798,202.31085 23.793316,200 23.793316,200 23.793316,200 c 0,0 0,0 0,0 0,0 0,0 0,0 0,0 0,0 0,0 0,0 0,0 0,0 0,0 0,0 0,0 0,0 0,0 0,0 0,0 0,0 0,0 0,0 0,0 0,0 0,0 0,0 0,0 0,0 0,0 0,0 0,0 0,0 0,0 0,0 0,0 0,0 0,0 0,0 0,0 0,0 0,0 0,0 0,0 0,0 0,0 0,0 0,0 0,0 0,0 0,0 0,0 0,0 0,0 0,0 0,0 0,0 0,0 0,0 0,0 0,0 0,0 0,0 0,0 0,0 0,0 0,0 0,0 0,0 0,0 0,0 0,0 0,0 0,0 0,0 0,0 0,0 0,0 0,0 0,0 0,0 0,0 0,0 0,0 0,0 0,0 0,0 0,0 0,0 0,0 0,0 0,0 0,0 0,0 0,0 0,0 0,0 0,0 0,0 0,0 0,0 0,0 0,0 0,0 0,0 0,0 0,0 0,0 0,0 0,0 0,0 0,0 0,0 0,0 0,0 0,0 0,0 0.1116,-0.17452 0.1116,-0.17452 0.334799,-0.52355 1.999284,-2.97236 1.664485,-2.44881 4.770255,-6.9974 7.876025,-11.28518 3.105771,-4.28779 6.211541,-8.31478 9.317311,-12.11338 3.10577,-3.7986 6.21154,-7.36882 9.31731,-10.73653 3.10577,-3.36771 6.21154,-6.53293 9.31731,-9.5165 3.105771,-2.98358 6.211541,-5.78552 9.317311,-8.42277 3.10577,-2.63725 6.21154,-5.10981 9.31731,-7.4315 3.10577,-2.3217 6.21154,-4.49254 9.31731,-6.52383 3.10577,-2.0313 6.211541,-3.92306 9.317311,-5.68456 3.105772,-1.7615 6.211542,-3.39273 9.317312,-4.90128 3.10577,-1.50854 6.21154,-2.89439 9.31731,-4.16369 3.10577,-1.26929 6.21154,-2.42203 9.31731,-3.46312 3.10577,-1.04109 6.21154,-1.97052 9.31731,-2.79212 3.10577,-0.82161 6.21154,-1.53538 9.31731,-2.14418 3.10577,-0.6088 6.21154,-1.11264 9.31731,-1.51348 3.10577,-0.40084 6.21154,-0.69868 9.31731,-0.8947 3.10577,-0.19601 6.21154,-0.29018 9.31731,-0.28289 3.10577,0.007 6.21154,0.11608 9.31731,0.32674 3.10577,0.21067 6.21154,0.52322 9.31731,0.93889 3.10577,0.41566 6.21154,0.93443 9.31731,1.55835 3.10577,0.62391 6.21154,1.35297 9.31731,2.19011 3.10577,0.83713 6.21154,1.78233 9.31731,2.83951 3.10577,1.05717 6.21154,2.22631 9.31731,3.5124 3.10577,1.2861 6.21154,2.68915 9.31731,4.21538 3.10577,1.52623 6.21154,3.17565 9.31731,4.95593 3.10577,1.78029 6.21154,3.69144 9.31731,5.74287 3.10577,2.05143 6.21154,4.24314 9.31731,6.58661 3.10577,2.34348 6.21154,4.83872 9.31731,7.49975 3.10577,2.66104 6.21154,5.48787 9.31731,8.4977 3.10577,3.00983 6.21154,6.20264 9.31731,9.59964 3.10577,3.397 6.21154,6.99818 9.31731,10.82983 3.10577,3.83165 6.21155,7.89378 9.31732,12.21934 3.10577,4.32556 6.21154,8.91455 7.76442,11.20905 C 322.61685,200 322.61685,200 322.61685,200 c 0,0 0,0 0,0 0,0 0,0 0,0 0,0 0,0 0,0 0,0 0,0 0,0 0,0 0,0 0,0 0,0 0,0 0,0 0,0 0,0 0,0 0,0 0,0 0,0 0,0 0,0 0,0 0,0 0,0 0,0 0,0 0,0 0,0 0,0 0,0 0,0 0,0 0,0 0,0 0,0 0,0 0,0 0,0 0,0 0,0 0,0 0,0 0,0 0,0 0,0 0,0 0,0 0,0 0,0 0,0 0,0 0,0 0,0 0,0 0,0 0,0 0,0 0,0 0,0 0,0 0,0 0,0 0,0 0,0 0,0 0,0 0,0 0,0 0,0 0,0 0,0 0,0 0,0 0,0 0,0 0,0 0,0 0,0 0,0 0,0 0,0 0,0 0,0 0,0 0,0 0,0 0,0 0,0 0,0 0,0 0,0 0,0 0,0 0,0 0,0 0,0 0,0 0,0 0,0 0,0 0,0 0,0 0,0 0,0 0,0 0,0 0,0 0,0 0,0 0,0 0,0 0,0 0,0 0,0 0,0 0,0 0,0 -0.11904,0.1861 -0.11904,0.18609 -0.35713,0.55829 -1.93103,2.88195 -1.5739,2.32366 -4.48362,6.59879 -7.39334,10.6432 -2.90972,4.04442 -5.81945,7.85813 -8.72917,11.46832 -2.90972,3.61019 -5.81944,7.01686 -8.72916,10.242 -2.90973,3.22515 -5.81945,6.26877 -8.72917,9.14881 -2.90972,2.88004 -5.81944,5.59651 -8.72917,8.16415 -2.90972,2.56764 -5.81944,4.98646 -8.72916,7.26862 -2.90973,2.28217 -5.81945,4.42768 -8.72917,6.44664 -2.90972,2.01896 -5.81944,3.91135 -8.72917,5.68556 -2.90972,1.77421 -5.81944,3.43024 -8.72916,4.97501 -2.90972,1.54477 -5.81945,2.97828 -8.72917,4.30627 -2.90972,1.32799 -5.81944,2.55045 -8.72916,3.67206 -2.90973,1.1216 -5.81945,2.14236 -8.72917,3.06604 -2.90972,0.92368 -5.81945,1.75028 -8.72917,2.48276 -2.90972,0.73249 -5.81944,1.37086 -8.72916,1.91735 -2.90973,0.54649 -5.81945,1.0011 -8.72917,1.3654 -2.90972,0.3643 -5.81944,0.63828 -8.72917,0.82288 -2.90972,0.1846 -5.81944,0.27982 -8.72916,0.28598 -2.90972,0.006 -5.81945,-0.0767 -8.72917,-0.24898 -2.90972,-0.17224 -5.81944,-0.43382 -8.72917,-0.78563 -2.90972,-0.35181 -5.81944,-0.79385 -8.72916,-1.32764 -2.90972,-0.53379 -5.81945,-1.15933 -8.72917,-1.87881 -2.90972,-0.71948 -5.81944,-1.53289 -8.72916,-2.44316 -2.90973,-0.91026 -5.81945,-1.91737 -8.72917,-3.02505 -2.90972,-1.10767 -5.81944,-2.31591 -8.72917,-3.62932 -2.90972,-1.31341 -5.81944,-2.732 -8.72916,-4.26141 -2.90973,-1.5294 -5.819448,-3.16963 -8.72917,-4.92752 -2.909722,-1.75789 -5.819444,-3.63345 -8.729166,-5.63493 -2.909722,-2.00148 -5.819444,-4.1289 -8.729166,-6.3922 -2.909722,-2.2633 -5.819445,-4.66249 -8.729167,-7.20959 -2.909722,-2.5471 -5.819444,-5.24211 -8.729166,-8.09958 -2.909722,-2.85747 -5.819444,-5.87741 -8.729166,-9.0775 -2.909722,-3.2001 -5.819445,-6.58036 -8.838969,-10.31417 -3.019525,-3.73381 -6.148853,-7.82117 -9.278181,-12.1757"
       id="path27" /></clipPath><rect
     style="fill:#e8e7d5;fill-opacity:1;stroke-width:1;stop-color:#000000"
     id="rect1361"
     width="400.67862"
     height="272.67038"
     x="0"
     y="0"
     rx="0"
     ry="0" /><rect
     style="fill:#f2f2f2;fill-opacity:1;stroke-width:1;stop-color:#000000"
     id="rect1361-4"
     width="400.67862"
     height="32.435547"
     x="2.2351742e-06"
     y="272.67038"
     rx="0"
     ry="0" /><rect
     style="fill:#de3b38;fill-opacity:1;stroke-width:0.999998;stop-color:#000000"
     id="rect1361-3"
     width="400.67862"
     height="52.049679"
     x="0"
     y="4.8941189e-07"
     rx="0"
     ry="0" /><g
     id="g4389"
     transform="matrix(1.4616141,0,0,1.4616141,-190.8129,-13.737566)"
     style="stroke-width:0.684175"><text
       xml:space="preserve"
       style="font-style:normal;font-weight:normal;font-size:16.7605px;line-height:1.25;font-family:sans-serif;fill:#ffffff;fill-opacity:1;stroke:none;stroke-width:0.684175"
       x="307.24359"
       y="29.942013"
       id="text1454-9-2-2"><tspan
         sodipodi:role="line"
         id="tspan1452-3-6-0"
         x="307.24359"
         y="29.942013"
         style="font-style:normal;font-variant:normal;font-weight:bold;font-stretch:normal;font-family:Roboto;-inkscape-font-specification:'Roboto Bold';fill:#ffffff;fill-opacity:1;stroke-width:0.684175">geot      lbox</tspan></text><path
       style="fill:#ffffff;fill-opacity:1;stroke-width:0.68417"
       d="m 345.79499,30.52847 c -0.13375,-0.07778 -0.15215,-0.133087 -0.15948,-0.479424 -0.004,-0.179157 -0.01,-0.438114 -0.0135,-0.575455 l -0.007,-0.249714 -0.27049,-0.131371 c -0.14878,-0.07226 -0.38469,-0.206013 -0.52427,-0.297243 l -0.25378,-0.165862 -0.41942,0.261946 c -0.52554,0.328237 -0.5809,0.351492 -0.72816,0.305932 -0.0982,-0.0304 -0.1836,-0.123498 -0.63004,-0.686853 -0.43326,-0.546685 -0.51763,-0.66956 -0.52355,-0.762451 -0.01,-0.152674 0.0489,-0.234352 0.46375,-0.646238 l 0.35057,-0.348025 -0.10201,-0.283447 c -0.0561,-0.155899 -0.12993,-0.415888 -0.16405,-0.577754 l -0.062,-0.294306 -0.11395,-0.0333 c -0.0627,-0.01831 -0.29834,-0.07786 -0.52373,-0.132276 -0.22538,-0.05445 -0.44412,-0.122054 -0.48607,-0.15024 -0.15171,-0.101919 -0.15476,-0.161625 -0.0529,-1.037649 0.0638,-0.549583 0.10694,-0.824475 0.13687,-0.874043 0.0921,-0.152481 0.1692,-0.164462 1.04796,-0.16281 0.13019,2.3e-4 0.24812,-0.0095 0.26208,-0.02165 0.014,-0.01213 0.0755,-0.131371 0.13675,-0.264931 0.0612,-0.133564 0.18333,-0.353973 0.2713,-0.489805 0.088,-0.135827 0.16143,-0.259603 0.16323,-0.275057 0.003,-0.02774 -0.2426,-0.452356 -0.42971,-0.74221 -0.12113,-0.187612 -0.15047,-0.301254 -0.1108,-0.428979 0.0251,-0.08098 0.15651,-0.199356 0.6857,-0.61795 0.81456,-0.64432 0.81303,-0.643936 1.16919,-0.291411 0.41245,0.40826 0.57329,0.5575 0.60478,0.561159 0.0187,0.0021 0.12957,-0.03106 0.24648,-0.07384 0.19786,-0.0724 0.58554,-0.178337 0.79749,-0.217917 0.10108,-0.01888 0.0798,0.0392 0.30303,-0.825668 0.0904,-0.350252 0.13093,-0.407571 0.30777,-0.435241 0.1597,-0.02499 1.56957,0.146284 1.69287,0.205658 0.15266,0.0735 0.18025,0.180702 0.17718,0.688447 -0.004,0.672116 -0.0311,0.60616 0.31768,0.775344 0.16373,0.07943 0.38854,0.204489 0.49959,0.277906 0.11104,0.07342 0.21637,0.135166 0.23405,0.137222 0.0287,0.0032 0.28296,-0.142209 0.75599,-0.432885 0.37834,-0.232481 0.39143,-0.225094 1.03007,0.5813 0.65661,0.829105 0.65535,0.823131 0.25707,1.212999 -0.45086,0.441354 -0.51629,0.509906 -0.52041,0.545309 -0.003,0.02034 0.0405,0.169426 0.0952,0.331098 0.0547,0.161674 0.12296,0.411776 0.1516,0.555788 0.0287,0.144009 0.0542,0.266012 0.0567,0.271119 0.003,0.0052 0.2388,0.06362 0.52502,0.130057 0.28622,0.06643 0.5547,0.143877 0.59662,0.172123 0.15358,0.103494 0.15848,0.190049 0.0591,1.045058 -0.12396,1.066433 -0.0974,1.03288 -0.81661,1.03375 -0.69514,8.41e-4 -0.62706,-0.0215 -0.7492,0.24583 -0.0579,0.126751 -0.18266,0.354387 -0.27724,0.505861 -0.0946,0.151474 -0.17391,0.292397 -0.17633,0.313162 -0.003,0.0207 0.0329,0.09613 0.0783,0.167479 0.28077,0.44032 0.43097,0.693913 0.46234,0.780663 0.074,0.204568 0.0317,0.255186 -0.68793,0.82401 -0.84357,0.666771 -0.80294,0.658962 -1.22969,0.236283 -0.12616,-0.124956 -0.24779,-0.245829 -0.2703,-0.268614 -0.12987,-0.131467 -0.24287,-0.230402 -0.26624,-0.233123 -0.0147,-0.0017 -0.12798,0.03238 -0.25168,0.07574 -0.21229,0.07443 -0.59402,0.177737 -0.79636,0.215516 -0.10843,0.02025 -0.1148,0.03618 -0.25582,0.639084 -0.0545,0.232874 -0.12336,0.459522 -0.15311,0.503666 -0.0986,0.146252 -0.18725,0.150433 -1.04608,0.04931 -0.57512,-0.06775 -0.80244,-0.104796 -0.86479,-0.141039 z m 1.89848,-2.741257 c 1.07427,-0.141111 1.93891,-0.822911 2.35954,-1.860576 0.12898,-0.318209 0.21353,-1.038799 0.16136,-1.372771 -0.0544,-0.346329 -0.11182,-0.552223 -0.22177,-0.795282 -0.34221,-0.756513 -0.92136,-1.297653 -1.69194,-1.580904 -0.3424,-0.125857 -0.96677,-0.19217 -1.33764,-0.142042 -0.97011,0.131092 -1.80641,0.734467 -2.23122,1.609772 -0.22691,0.467554 -0.32342,0.983083 -0.28093,1.500258 0.0256,0.311255 0.0396,0.376333 0.15933,0.740972 0.26006,0.792127 0.96235,1.481875 1.80564,1.773408 0.33949,0.117362 0.91587,0.174827 1.27785,0.127196 z"
       id="path4256-1" /><path
       style="fill:#ffffff;fill-opacity:1;stroke-width:0.68417"
       d="m 356.43959,26.545085 c -0.15222,-0.103539 -0.16941,-0.170721 -0.14906,-0.582385 0.0105,-0.21296 0.0251,-0.520804 0.0323,-0.684117 l 0.0131,-0.296923 -0.31002,-0.178616 c -0.1705,-0.09824 -0.43928,-0.276786 -0.59728,-0.39677 l -0.28728,-0.218151 -0.51978,0.2757 c -0.65128,0.345471 -0.71893,0.368429 -0.88988,0.301998 -0.11398,-0.04429 -0.20755,-0.161981 -0.69014,-0.868056 -0.46832,-0.685189 -0.55815,-0.8381 -0.55739,-0.948847 0.001,-0.18202 0.0776,-0.274047 0.60464,-0.728079 l 0.44526,-0.383637 -0.0973,-0.344968 c -0.0535,-0.189738 -0.1193,-0.504497 -0.14622,-0.699473 l -0.0489,-0.354501 -0.13244,-0.04909 c -0.0729,-0.02699 -0.34756,-0.117433 -0.61049,-0.200958 -0.26293,-0.08352 -0.51686,-0.182127 -0.56429,-0.2191 -0.17151,-0.133688 -0.17011,-0.204806 0.0242,-1.235972 0.12193,-0.646907 0.19608,-0.969562 0.23575,-1.02588 0.12206,-0.17325 0.21461,-0.181 1.25742,-0.105305 0.15449,0.0112 0.29528,0.0095 0.31287,-0.0037 0.0176,-0.01325 0.10062,-0.149584 0.18453,-0.302963 0.0839,-0.153375 0.24729,-0.404728 0.36309,-0.558557 0.11581,-0.153827 0.21338,-0.294568 0.21681,-0.312755 0.006,-0.03269 -0.24996,-0.557232 -0.44772,-0.916948 -0.12801,-0.23283 -0.15331,-0.370172 -0.0955,-0.518431 0.0367,-0.09399 0.20248,-0.223475 0.86567,-0.67588 1.02083,-0.696365 1.01899,-0.696037 1.4121,-0.24776 0.45527,0.519153 0.63365,0.709776 0.67071,0.716762 0.022,0.0041 0.15638,-0.02599 0.29873,-0.06695 0.2409,-0.06933 0.70991,-0.162532 0.96479,-0.191723 0.12155,-0.01392 0.0914,0.05321 0.42893,-0.954516 0.13668,-0.408109 0.1896,-0.47274 0.40179,-0.490743 0.19164,-0.01626 1.85057,0.305317 1.99193,0.386127 0.17501,0.100047 0.19876,0.22959 0.15252,0.831952 -0.0612,0.79736 -0.0877,0.716812 0.31198,0.946874 0.18766,0.108011 0.44399,0.275297 0.56963,0.371751 0.12563,0.09645 0.24545,0.178579 0.26627,0.182502 0.0339,0.0064 0.34776,-0.145038 0.93357,-0.450335 0.46853,-0.244181 0.48346,-0.234311 1.17375,0.776342 0.70974,1.039121 0.70874,1.031927 0.20333,1.461222 -0.57214,0.485991 -0.65554,0.561862 -0.6634,0.603534 -0.005,0.02404 0.0338,0.204478 0.0852,0.400955 0.0514,0.196475 0.11138,0.499031 0.13329,0.672357 0.0219,0.173322 0.042,0.320259 0.0445,0.326533 0.003,0.0064 0.27808,0.09555 0.61222,0.198406 0.33413,0.102846 0.64627,0.217304 0.69364,0.254345 0.1736,0.135716 0.17215,0.238855 -0.0175,1.245284 -0.2366,1.2553 -0.20231,1.2177 -1.05594,1.158386 -0.82509,-0.05733 -0.74242,-0.07813 -0.90981,0.228901 -0.0793,0.145579 -0.24654,0.405276 -0.37148,0.577121 -0.12495,0.171841 -0.23095,0.332437 -0.23556,0.356879 -0.005,0.02443 0.0309,0.116845 0.0789,0.205348 0.29629,0.546152 0.45326,0.859733 0.48322,0.965323 0.0706,0.249002 0.0162,0.305533 -0.88561,0.920255 -1.05714,0.720574 -1.00827,0.71472 -1.47929,0.177249 -0.13924,-0.158888 -0.27346,-0.312554 -0.29826,-0.34148 -0.14311,-0.166932 -0.26891,-0.293834 -0.29643,-0.299021 -0.0173,-0.0033 -0.15461,0.02768 -0.30506,0.06878 -0.2582,0.07052 -0.71993,0.161104 -0.96324,0.188963 -0.13039,0.01493 -0.13929,0.03331 -0.35725,0.737034 -0.0842,0.271803 -0.18497,0.535033 -0.22397,0.584926 -0.12924,0.165311 -0.23486,0.16283 -1.24569,-0.02925 -0.67689,-0.128683 -0.94358,-0.191691 -1.01454,-0.239962 z m 2.48323,-3.094164 c 1.28683,-0.07734 2.37023,-0.813987 2.95653,-2.010247 0.17979,-0.366844 0.34059,-1.214983 0.30639,-1.615793 -0.0355,-0.415607 -0.0864,-0.664786 -0.19647,-0.962486 -0.34269,-0.926587 -0.98463,-1.617432 -1.87543,-2.018267 -0.39582,-0.178104 -1.13129,-0.309189 -1.57566,-0.280828 -1.16237,0.07419 -2.20557,0.720132 -2.7832,1.723344 -0.30855,0.53588 -0.46634,1.139636 -0.45921,1.757036 0.004,0.371565 0.0154,0.449979 0.12694,0.892797 0.24218,0.961955 1.01781,1.839508 1.99421,2.256276 0.39308,0.167779 1.07236,0.284234 1.50595,0.258178 z"
       id="path4256-1-8-9" /><rect
       style="font-variation-settings:normal;fill:#ffffff;fill-opacity:1;stroke:none;stroke-width:13.6835;stroke-linecap:round;stroke-linejoin:round;stroke-miterlimit:4;stroke-dasharray:none;stroke-dashoffset:0;stroke-opacity:1;stop-color:#000000"
       id="rect24426"
       width="12.457413"
       height="12.457413"
       x="353.25241"
       y="28.874289"
       ry="5.6028881"
       rx="5.6028881" /><text
       xml:space="preserve"
       style="font-style:normal;font-weight:normal;font-size:9.06636px;line-height:1.25;font-family:sans-serif;fill:#de3b38;fill-opacity:1;stroke:none;stroke-width:0.684175"
       x="354.48523"
       y="37.494022"
       id="text24706"><tspan
         sodipodi:role="line"
         id="tspan24704"
         x="354.48523"
         y="37.494022"
         style="font-style:normal;font-variant:normal;font-weight:bold;font-stretch:normal;font-size:9.06636px;font-family:Roboto;-inkscape-font-specification:'Roboto Bold';fill:#de3b38;fill-opacity:1;stroke-width:0.684175">.js</tspan></text></g><text
     xml:space="preserve"
     style="font-style:normal;font-weight:normal;font-size:40px;line-height:1.25;font-family:sans-serif;fill:#ffffff;fill-opacity:1;stroke:none;stroke-width:0.999998"
     x="11.523982"
     y="41.034603"
     id="text1624"><tspan
       sodipodi:role="line"
       id="tspan1622"
       x="11.523982"
       y="41.034603"
       style="font-style:normal;font-variant:normal;font-weight:bold;font-stretch:normal;font-size:40px;font-family:roboto;-inkscape-font-specification:'roboto Bold';fill:#ffffff;fill-opacity:1;stroke-width:0.999998">Centroid</tspan></text><text
     xml:space="preserve"
     style="font-style:normal;font-weight:normal;font-size:20px;line-height:1.25;font-family:sans-serif;fill:#000000;fill-opacity:1;stroke:none"
     x="22.355911"
     y="293.3364"
     id="text6596"><tspan
       sodipodi:role="line"
       id="tspan6594"
       x="22.355911"
       y="293.3364"
       style="font-style:normal;font-variant:normal;font-weight:normal;font-stretch:normal;font-size:20px;font-family:'Courier New';-inkscape-font-specification:'Courier New'">centroid(data, {largest:true})</tspan></text><g
     id="g8954"
     transform="translate(566.90936,291.72968)"><rect
       style="fill:#de3b38;fill-opacity:1;stroke:none;stroke-width:1.9;stroke-dasharray:3.8, 3.8;stroke-dashoffset:0;stroke-opacity:1;stop-color:#000000"
       id="rect8620"
       width="23.861229"
       height="11.930614"
       x="-388.43353"
       y="-139.90996" /><path
       sodipodi:type="star"
       style="fill:#de3b38;fill-opacity:1;stroke:none;stroke-width:2.56974;stroke-dasharray:5.13947, 5.13947;stroke-dashoffset:0;stroke-opacity:1;stop-color:#000000"
       id="path8950"
       inkscape:flatsided="false"
       sodipodi:sides="3"
       sodipodi:cx="-251.28442"
       sodipodi:cy="-81.816078"
       sodipodi:r1="23.436432"
       sodipodi:r2="11.718216"
       sodipodi:arg1="2.0943951"
       sodipodi:arg2="3.1415927"
       inkscape:rounded="0"
       inkscape:randomized="0"
       d="m -263.00264,-61.519533 0,-20.296546 0,-20.296541 17.57732,10.148269 17.57733,10.148273 -17.57733,10.148273 z"
       inkscape:transform-center-x="-4.3320803"
       transform="matrix(0.73937574,0,0,0.73937574,-175.30467,-73.451827)" /></g><g
     id="g23155"><path
       id="path22948"
       style="font-variation-settings:normal;opacity:1;vector-effect:none;fill:#de3b38;fill-opacity:1;stroke:#e8e7d5;stroke-width:1.89998;stroke-linecap:butt;stroke-linejoin:miter;stroke-miterlimit:4;stroke-dasharray:none;stroke-dashoffset:0;stroke-opacity:1;-inkscape-stroke:none;stop-color:#000000;stop-opacity:1"
       d="m 95.139558,108.9566 c -1.18633,0.19156 -2.41859,0.39544 -3.37576,0.52136 -0.69956,0.0921 -1.32954,0.16342 -1.87845,0.21272 -0.5489,0.0493 -1.01743,0.075 -1.391812,0.075 -0.187205,0 -0.362517,-0.0354 -0.527464,-0.10639 -0.164946,-0.0709 -0.318845,-0.17645 -0.462805,-0.3149 -0.143969,-0.13846 -0.279008,-0.31048 -0.403253,-0.51302 -0.124254,-0.20253 -0.237898,-0.43544 -0.343709,-0.69862 -0.105803,-0.26319 -0.202319,-0.55549 -0.290951,-0.87589 -0.08863,-0.32038 -0.168884,-0.66854 -0.241609,-1.04272 -0.07272,-0.37418 -0.13929,-0.7746 -0.197379,-1.19913 -0.05809,-0.42454 -0.108408,-0.87366 -0.153133,-1.34511 -0.08944,-0.9429 -0.15377,-1.97646 -0.197371,-3.08646 -0.0436,-1.109984 -0.06696,-2.29562 -0.07487,-3.545252 -0.0079,-1.249619 -6.1e-4,-2.562977 0.01701,-3.924799 0.01762,-1.361811 0.04527,-2.772295 0.07827,-4.21884 0.066,-2.893078 0.152915,-5.929346 0.219489,-8.996588 0.03329,-1.533633 0.06178,-3.074915 0.07997,-4.610914 0.0075,-0.629093 0.0048,-1.248565 0.0085,-1.874815 l -31.79917,12.083049 10.848705,24.433029 1.272718,16.55633 c 1.990007,0.49938 3.850116,0.99884 5.905879,1.49734 5.194156,1.25953 10.582912,2.51537 16.087603,3.75588 z" /><path
       id="path22963"
       style="font-variation-settings:normal;opacity:1;vector-effect:none;fill:#de3b38;fill-opacity:1;stroke:#e8e7d5;stroke-width:1.89998;stroke-linecap:butt;stroke-linejoin:miter;stroke-miterlimit:4;stroke-dasharray:none;stroke-dashoffset:0;stroke-opacity:1;-inkscape-stroke:none;stop-color:#000000;stop-opacity:1"
       d="m 86.004247,73.41234 c -0.0037,0.62625 -0.001,1.245722 -0.0085,1.874815 -0.0182,1.535999 -0.04669,3.077281 -0.07997,4.610914 -0.06658,3.067254 -0.153491,6.10351 -0.21949,8.996588 -0.033,1.446545 -0.06065,2.857029 -0.07827,4.21884 -0.01762,1.361822 -0.02492,2.67518 -0.01701,3.924799 0.0079,1.249632 0.03127,2.435268 0.07487,3.545254 0.0436,1.10999 0.107928,2.14355 0.197371,3.08646 0.04472,0.47145 0.09504,0.92057 0.153133,1.3451 0.05809,0.42454 0.124655,0.82496 0.197379,1.19914 0.07273,0.37418 0.152977,0.72233 0.241609,1.04271 0.08863,0.32041 0.185148,0.61271 0.290951,0.8759 0.105812,0.26318 0.219455,0.49609 0.343709,0.69862 0.124245,0.20254 0.259284,0.37455 0.403253,0.51301 0.14396,0.13846 0.297859,0.24396 0.462806,0.31491 0.164946,0.071 0.340259,0.10639 0.527463,0.10639 0.374391,0 0.842907,-0.0257 1.391817,-0.075 0.5489,-0.0493 1.17888,-0.12073 1.87844,-0.21271 1.39913,-0.18407 3.0757,-0.44772 4.93433,-0.76326 1.85863,-0.31554 3.899352,-0.68376 6.026682,-1.07819 2.12733,-0.39442 4.34043,-0.81385 6.54564,-1.23458 4.41043,-0.84144 8.78595,-1.68375 12.36304,-2.31484 1.78854,-0.31554 3.37831,-0.5792 4.67229,-0.76327 0.647,-0.0921 1.21902,-0.16341 1.7066,-0.21271 0.48758,-0.0493 0.89014,-0.075 1.19445,-0.075 0.15215,0 0.32534,-0.0615 0.51725,-0.17935 0.19191,-0.11779 0.40246,-0.29327 0.63125,-0.52137 0.2288,-0.2281 0.47565,-0.50968 0.73845,-0.84043 0.2628,-0.33074 0.54149,-0.71079 0.83543,-1.13656 0.29394,-0.425792 0.60341,-0.896546 0.92561,-1.409771 0.32221,-0.513213 0.65799,-1.069033 1.00559,-1.66209 0.6952,-1.186114 1.43748,-2.523361 2.21704,-3.983193 0.77956,-1.459832 1.59559,-3.042458 2.43653,-4.715175 0.84094,-1.672729 1.70692,-3.436787 2.58627,-5.26158 0.39358,-0.816728 0.7965,-1.678748 1.19445,-2.517122 l -3.69054,-4.179224 -50.372656,-4.064521 z" /><path
       id="path22900"
       style="font-variation-settings:normal;vector-effect:none;fill:#de3b38;fill-opacity:1;stroke:#e8e7d5;stroke-width:1.89998;stroke-linecap:butt;stroke-linejoin:miter;stroke-miterlimit:4;stroke-dasharray:none;stroke-dashoffset:0;stroke-opacity:1;-inkscape-stroke:none;stop-color:#000000"
       d="m 118.17435,138.11524 c -4.35708,-0.89148 -8.72303,-1.78513 -13.07086,-2.70897 -5.658662,-1.20241 -11.278822,-2.42779 -16.783507,-3.6683 -5.504691,-1.24052 -10.893439,-2.49635 -16.087604,-3.75589 -2.055763,-0.49849 -3.915872,-0.99795 -5.905879,-1.49734 l 3.513585,45.74416 c 0,0 -2.995949,4.50277 -7.661822,11.18005 -2.332915,3.33862 -5.083667,7.21998 -8.085487,11.35523 -0.827702,1.14024 -1.783342,2.37683 -2.64582,3.54942 5.445121,5.82783 11.705302,14.24798 12.79011,20.19751 1.476544,8.09784 2.926605,17.39318 9.562388,25.26928 6.635793,7.87611 3.65393,7.87463 20.588044,7.87463 1.57885,0 2.98258,0.0467 4.38985,0.0897 l -9.831217,-39.48785 c 0,0 0.432007,-2.05609 1.131487,-5.25114 0.69948,-3.19506 1.66698,-7.52766 2.736,-12.08513 0.53451,-2.27875 1.09392,-4.61458 1.65896,-6.89031 0.56503,-2.27571 1.13526,-4.49214 1.68958,-6.53576 0.55431,-2.04364 1.09194,-3.91478 1.59429,-5.49723 0.25118,-0.79123 0.49438,-1.50878 0.72484,-2.14176 0.23045,-0.63297 0.4488,-1.18053 0.65337,-1.62664 0.40915,-0.89219 1.269042,-2.53808 2.460362,-4.73395 1.19132,-2.19587 2.714,-4.94211 4.4494,-8.03728 3.47079,-6.19039 7.79225,-13.77433 12.01083,-21.13596 0.061,-0.10639 0.0581,-0.10002 0.1191,-0.20646 z" /><path
       id="path22953"
       style="font-variation-settings:normal;vector-effect:none;fill:#de3b38;fill-opacity:1;stroke:#e8e7d5;stroke-width:1.89998;stroke-linecap:butt;stroke-linejoin:miter;stroke-miterlimit:4;stroke-dasharray:none;stroke-dashoffset:0;stroke-opacity:1;-inkscape-stroke:none;stop-color:#000000"
       d="m 145.32165,213.64368 c -1.24496,-0.69607 -2.28577,-1.29304 -3.55782,-2.00202 -6.42293,-3.57981 -13.15373,-7.30355 -19.81217,-10.97151 -9.95238,-5.48251 -18.57582,-10.18088 -26.936312,-14.73991 -0.18192,0.71522 -0.36123,1.36885 -0.54277,2.10005 -0.56504,2.27572 -1.12445,4.61156 -1.65896,6.8903 -1.06902,4.55746 -2.03652,8.89007 -2.736,12.08513 -0.69947,3.19504 -1.131487,5.25114 -1.131487,5.25114 l 9.831217,39.48785 c 13.686462,0.41788 19.803482,2.20989 27.148992,-7.02795 8.10083,-10.18772 12.60834,-17.23272 15.31343,-24.40801 1.75024,-4.64256 2.08473,-3.32864 4.08188,-6.66507 z" /><path
       id="path22958"
       style="font-variation-settings:normal;vector-effect:none;fill:#de3b38;fill-opacity:1;stroke:#e8e7d5;stroke-width:1.89998;stroke-linecap:butt;stroke-linejoin:miter;stroke-miterlimit:4;stroke-dasharray:none;stroke-dashoffset:0;stroke-opacity:1;-inkscape-stroke:none;stop-color:#000000"
       d="m 118.17435,138.11524 c -0.061,0.1064 -0.0581,0.0999 -0.1191,0.20646 -4.21858,7.36164 -8.54004,14.94557 -12.01083,21.13596 -1.7354,3.09517 -3.25808,5.84142 -4.4494,8.03729 -1.19132,2.19587 -2.051212,3.84175 -2.460362,4.73395 -0.20457,0.4461 -0.42292,0.99366 -0.65337,1.62664 -0.23046,0.63298 -0.47366,1.35052 -0.72484,2.14175 -0.50235,1.58246 -1.03998,3.4536 -1.59429,5.49723 -0.37621,1.38698 -0.76254,2.92503 -1.14681,4.43572 8.360492,4.55903 16.983932,9.2574 26.936312,14.73991 6.65844,3.66796 13.38924,7.3917 19.81217,10.97151 1.27205,0.70898 2.31286,1.30595 3.55782,2.00202 1.08953,-1.82016 2.65335,-4.96519 5.25931,-11.35314 7.3827,-18.09732 11.0733,-29.84964 11.0733,-36.00098 0,-4.23264 1.704,-11.28188 1.83251,-19.40086 -2.98859,-0.5512 -5.3946,-0.9698 -8.5466,-1.562 -5.18131,-0.97346 -10.55998,-1.99881 -16.05697,-3.06768 -5.49697,-1.06888 -11.11209,-2.1811 -16.7682,-3.32628 -1.31023,-0.26528 -2.62703,-0.54871 -3.94065,-0.8175 z" /><path
       id="path22970"
       style="font-variation-settings:normal;vector-effect:none;fill:#de3b38;fill-opacity:1;stroke:#e8e7d5;stroke-width:1.89998;stroke-linecap:butt;stroke-linejoin:miter;stroke-miterlimit:4;stroke-dasharray:none;stroke-dashoffset:0;stroke-opacity:1;-inkscape-stroke:none;stop-color:#000000"
       d="m 95.139558,108.9566 -6.819575,22.78137 c 5.504675,1.24051 11.124855,2.46589 16.783507,3.6683 5.65866,1.20237 11.35543,2.38129 17.01151,3.52647 5.65611,1.14518 11.27123,2.2574 16.7682,3.32628 5.49699,1.06887 10.87566,2.09422 16.05697,3.06768 3.152,0.5922 5.55801,1.0108 8.5466,1.562 0.0583,-3.68033 -0.17566,-7.55911 -1.09406,-11.53249 -2.94445,-12.73883 -3.07405,-18.53393 -5.89737,-25.42779 -2.82332,-6.8939 -7.21773,-21.211028 -7.21773,-21.211028 l -6.98291,-7.907993 c -0.39795,0.838375 -0.80087,1.700406 -1.19446,2.517123 -0.87935,1.824793 -1.74532,3.588851 -2.58626,5.26158 -0.84095,1.672717 -1.65697,3.255355 -2.43654,4.715175 -0.77956,1.459832 -1.52183,2.797091 -2.21704,3.983193 -0.3476,0.593057 -0.68337,1.148876 -1.00558,1.662089 -0.32221,0.513226 -0.63167,0.983992 -0.92561,1.409771 -0.29394,0.42577 -0.57264,0.80582 -0.83543,1.13656 -0.2628,0.33075 -0.50966,0.61234 -0.73845,0.84043 -0.22879,0.2281 -0.43935,0.40351 -0.63126,0.52137 -0.1919,0.11779 -0.36509,0.17935 -0.51725,0.17935 -0.3043,0 -0.70687,0.0257 -1.19444,0.075 -0.48758,0.0493 -1.05961,0.12074 -1.7066,0.21272 -1.29399,0.18406 -2.88375,0.44772 -4.6723,0.76326 -3.57708,0.63109 -7.95261,1.47341 -12.36304,2.31484 -2.2052,0.42073 -4.4183,0.84017 -6.54563,1.23459 -2.12733,0.39442 -4.168052,0.76264 -6.026692,1.07818 -0.58709,0.0998 -1.0108,0.15346 -1.55856,0.24191 z" /><path
       id="path22904"
       style="font-variation-settings:normal;vector-effect:none;fill:#de3b38;fill-opacity:1;stroke:#e8e7d5;stroke-width:1.89998;stroke-linecap:butt;stroke-linejoin:miter;stroke-miterlimit:4;stroke-dasharray:none;stroke-dashoffset:0;stroke-opacity:1;-inkscape-stroke:none;stop-color:#000000"
       d="m 51.446956,198.3136 c 0.862478,-1.17259 1.818118,-2.40918 2.64582,-3.54942 3.00182,-4.13526 5.752554,-8.01658 8.085487,-11.35523 4.665873,-6.67728 7.661822,-11.18005 7.661822,-11.18005 L 65.053782,109.92842 54.205077,85.495389 44.868992,89.042725 18.683043,109.92842 c 0,0 -8.75908,35.08131 -7.10373,35.08131 1.655351,0 12.730558,34.27005 12.730558,34.27005 0,0 16.297005,9.50484 21.836943,13.96203 1.469723,1.18247 3.333943,2.9674 5.300142,5.07179 z" /></g><g
     id="g23118"
     style="fill:#fffdfd;fill-opacity:1"><path
       id="path22900-7"
       style="font-variation-settings:normal;vector-effect:none;fill:#fffdfd;fill-opacity:1;stroke:#e8e7d5;stroke-width:1.89998;stroke-linecap:butt;stroke-linejoin:miter;stroke-miterlimit:4;stroke-dasharray:none;stroke-dashoffset:0;stroke-opacity:1;-inkscape-stroke:none;stop-color:#000000"
       d="m 339.3922,132.86688 c -4.35708,-0.89148 -8.72303,-1.78513 -13.07086,-2.70897 -5.65866,-1.20241 -11.27882,-2.42779 -16.7835,-3.6683 -5.50469,-1.24052 -10.89344,-2.49635 -16.08761,-3.75589 -2.05577,-0.49849 -3.91587,-0.99795 -5.90588,-1.49734 l 3.51358,45.74416 c 0,0 -2.99595,4.50277 -7.66182,11.18005 -2.33291,3.33862 -5.08367,7.21998 -8.08549,11.35523 -0.8277,1.14024 -1.78334,2.37683 -2.64582,3.54942 5.44513,5.82783 11.70531,14.24798 12.79011,20.19751 1.47655,8.09784 2.92661,17.39318 9.56239,25.26928 6.6358,7.87611 3.65394,7.87463 20.58805,7.87463 1.57885,0 2.98258,0.0467 4.38985,0.0897 l -9.83122,-39.48785 c 0,0 0.43201,-2.05609 1.13149,-5.25114 0.69948,-3.19506 1.66698,-7.52766 2.736,-12.08513 0.53451,-2.27875 1.09392,-4.61458 1.65896,-6.89031 0.56503,-2.27571 1.13526,-4.49214 1.68958,-6.53576 0.55431,-2.04364 1.09194,-3.91478 1.59429,-5.49723 0.25118,-0.79123 0.49438,-1.50878 0.72484,-2.14176 0.23045,-0.63297 0.4488,-1.18053 0.65337,-1.62664 0.40915,-0.89219 1.26904,-2.53808 2.46036,-4.73395 1.19132,-2.19587 2.714,-4.94211 4.4494,-8.03728 3.47079,-6.19039 7.79225,-13.77433 12.01083,-21.13596 0.061,-0.10639 0.0581,-0.10002 0.1191,-0.20646 z" /><path
       id="path22953-7"
       style="font-variation-settings:normal;vector-effect:none;fill:#fffdfd;fill-opacity:1;stroke:#e8e7d5;stroke-width:1.89998;stroke-linecap:butt;stroke-linejoin:miter;stroke-miterlimit:4;stroke-dasharray:none;stroke-dashoffset:0;stroke-opacity:1;-inkscape-stroke:none;stop-color:#000000"
       d="m 366.5395,208.39532 c -1.24496,-0.69607 -2.28577,-1.29304 -3.55782,-2.00202 -6.42293,-3.57981 -13.15373,-7.30355 -19.81217,-10.97151 -9.95238,-5.48251 -18.57582,-10.18088 -26.93631,-14.73991 -0.18192,0.71522 -0.36123,1.36885 -0.54277,2.10005 -0.56504,2.27572 -1.12445,4.61156 -1.65896,6.8903 -1.06902,4.55746 -2.03652,8.89007 -2.736,12.08513 -0.69947,3.19504 -1.13149,5.25114 -1.13149,5.25114 l 9.83122,39.48785 c 13.68646,0.41788 19.80348,2.20989 27.14899,-7.02795 8.10083,-10.18772 12.60834,-17.23272 15.31343,-24.40801 1.75024,-4.64256 2.08473,-3.32864 4.08188,-6.66507 z" /><path
       id="path22958-1"
       style="font-variation-settings:normal;vector-effect:none;fill:#fffdfd;fill-opacity:1;stroke:#e8e7d5;stroke-width:1.89998;stroke-linecap:butt;stroke-linejoin:miter;stroke-miterlimit:4;stroke-dasharray:none;stroke-dashoffset:0;stroke-opacity:1;-inkscape-stroke:none;stop-color:#000000"
       d="m 339.3922,132.86688 c -0.061,0.1064 -0.0581,0.0999 -0.1191,0.20646 -4.21858,7.36164 -8.54004,14.94557 -12.01083,21.13596 -1.7354,3.09517 -3.25808,5.84142 -4.4494,8.03729 -1.19132,2.19587 -2.05121,3.84175 -2.46036,4.73395 -0.20457,0.4461 -0.42292,0.99366 -0.65337,1.62664 -0.23046,0.63298 -0.47366,1.35052 -0.72484,2.14175 -0.50235,1.58246 -1.03998,3.4536 -1.59429,5.49723 -0.37621,1.38698 -0.76254,2.92503 -1.14681,4.43572 8.36049,4.55903 16.98393,9.2574 26.93631,14.73991 6.65844,3.66796 13.38924,7.3917 19.81217,10.97151 1.27205,0.70898 2.31286,1.30595 3.55782,2.00202 1.08953,-1.82016 2.65335,-4.96519 5.25931,-11.35314 7.3827,-18.09732 11.0733,-29.84964 11.0733,-36.00098 0,-4.23264 1.704,-11.28188 1.83251,-19.40086 -2.98859,-0.5512 -5.3946,-0.9698 -8.5466,-1.562 -5.18131,-0.97346 -10.55998,-1.99881 -16.05697,-3.06768 -5.49697,-1.06888 -11.11209,-2.1811 -16.7682,-3.32628 -1.31023,-0.26528 -2.62703,-0.54871 -3.94065,-0.8175 z" /><path
       id="path22948-1"
       style="font-variation-settings:normal;vector-effect:none;fill:#fffdfd;fill-opacity:1;stroke:#e8e7d5;stroke-width:1.89998;stroke-linecap:butt;stroke-linejoin:miter;stroke-miterlimit:4;stroke-dasharray:none;stroke-dashoffset:0;stroke-opacity:1;-inkscape-stroke:none;stop-color:#000000"
       d="m 316.35741,103.70824 c -1.18633,0.19156 -2.41859,0.39544 -3.37576,0.52136 -0.69956,0.0921 -1.32954,0.16342 -1.87845,0.21272 -0.5489,0.0493 -1.01743,0.075 -1.39181,0.075 -0.18721,0 -0.36252,-0.0354 -0.52747,-0.10639 -0.16494,-0.0709 -0.31884,-0.17645 -0.4628,-0.3149 -0.14397,-0.13846 -0.27901,-0.31048 -0.40325,-0.51302 -0.12426,-0.20253 -0.2379,-0.43544 -0.34371,-0.69862 -0.10581,-0.26319 -0.20232,-0.55549 -0.29095,-0.87589 -0.0886,-0.32038 -0.16889,-0.66854 -0.24161,-1.04272 -0.0727,-0.37418 -0.13929,-0.7746 -0.19738,-1.199135 -0.0581,-0.42454 -0.10841,-0.87366 -0.15313,-1.34511 -0.0894,-0.9429 -0.15377,-1.97646 -0.19738,-3.08646 -0.0436,-1.10999 -0.067,-2.29562 -0.0749,-3.54525 -0.008,-1.24962 -6.1e-4,-2.56298 0.017,-3.9248 0.0176,-1.36181 0.0453,-2.7723 0.0783,-4.21884 0.066,-2.89308 0.15292,-5.92935 0.21949,-8.99659 0.0333,-1.53363 0.0618,-3.07492 0.08,-4.61092 0.008,-0.62909 0.005,-1.24856 0.008,-1.87481 l -31.79917,12.08305 10.8487,24.433035 1.27272,16.55633 c 1.99001,0.49938 3.85012,0.99884 5.90588,1.49734 5.19416,1.25953 10.58292,2.51537 16.08761,3.75588 z" /><path
       id="path22970-5"
       style="font-variation-settings:normal;vector-effect:none;fill:#fffdfd;fill-opacity:1;stroke:#e8e7d5;stroke-width:1.89998;stroke-linecap:butt;stroke-linejoin:miter;stroke-miterlimit:4;stroke-dasharray:none;stroke-dashoffset:0;stroke-opacity:1;-inkscape-stroke:none;stop-color:#000000"
       d="m 316.35741,103.70824 -6.81957,22.78137 c 5.50467,1.24051 11.12485,2.46589 16.7835,3.6683 5.65866,1.20237 11.35543,2.38129 17.01151,3.52647 5.65611,1.14518 11.27123,2.2574 16.7682,3.32628 5.49699,1.06887 10.87566,2.09422 16.05697,3.06768 3.152,0.5922 5.55801,1.0108 8.5466,1.562 0.0583,-3.68033 -0.17566,-7.55911 -1.09406,-11.53249 -2.94445,-12.73883 -3.07405,-18.53393 -5.89737,-25.42779 -2.82332,-6.893905 -7.21773,-21.211035 -7.21773,-21.211035 l -6.98291,-7.90799 c -0.39795,0.83837 -0.80087,1.7004 -1.19446,2.51712 -0.87935,1.82479 -1.74532,3.58885 -2.58626,5.26158 -0.84095,1.67272 -1.65697,3.25535 -2.43654,4.71517 -0.77956,1.45984 -1.52183,2.7971 -2.21704,3.9832 -0.3476,0.59305 -0.68337,1.14887 -1.00558,1.66209 -0.32221,0.51322 -0.63167,0.98399 -0.92561,1.40977 -0.29394,0.42577 -0.57264,0.80582 -0.83543,1.13656 -0.2628,0.33075 -0.50966,0.61234 -0.73845,0.84043 -0.22879,0.2281 -0.43935,0.40351 -0.63126,0.52137 -0.1919,0.11779 -0.36509,0.17935 -0.51725,0.17935 -0.3043,0 -0.70687,0.0257 -1.19444,0.075 -0.48758,0.0493 -1.05961,0.12074 -1.7066,0.21272 -1.29399,0.18406 -2.88375,0.44772 -4.6723,0.76326 -3.57708,0.63109 -7.95261,1.473415 -12.36304,2.314845 -2.2052,0.42073 -4.4183,0.84017 -6.54563,1.23459 -2.12733,0.39442 -4.16805,0.76264 -6.02669,1.07818 -0.58709,0.0998 -1.0108,0.15346 -1.55856,0.24191 z" /><path
       id="path22963-9"
       style="font-variation-settings:normal;vector-effect:none;fill:#fffdfd;fill-opacity:1;stroke:#e8e7d5;stroke-width:1.89998;stroke-linecap:butt;stroke-linejoin:miter;stroke-miterlimit:4;stroke-dasharray:none;stroke-dashoffset:0;stroke-opacity:1;-inkscape-stroke:none;stop-color:#000000"
       d="m 307.2221,68.163975 c -0.004,0.62625 -0.001,1.24572 -0.008,1.87481 -0.0182,1.536 -0.0467,3.07728 -0.08,4.61092 -0.0666,3.06725 -0.15349,6.10351 -0.21949,8.99658 -0.033,1.44655 -0.0606,2.85703 -0.0783,4.21884 -0.0176,1.36183 -0.0249,2.67518 -0.017,3.9248 0.008,1.24964 0.0313,2.43527 0.0749,3.54526 0.0436,1.10999 0.10793,2.14355 0.19737,3.08646 0.0447,0.47145 0.095,0.92057 0.15313,1.3451 0.0581,0.424545 0.12466,0.824965 0.19738,1.199145 0.0727,0.37418 0.15298,0.72233 0.24161,1.04271 0.0886,0.32041 0.18515,0.61271 0.29095,0.8759 0.10582,0.26318 0.21946,0.49609 0.34371,0.69862 0.12425,0.20254 0.25929,0.37455 0.40326,0.51301 0.14396,0.13846 0.29785,0.24396 0.4628,0.31491 0.16495,0.071 0.34026,0.10639 0.52746,0.10639 0.3744,0 0.84291,-0.0257 1.39182,-0.075 0.5489,-0.0493 1.17888,-0.12073 1.87844,-0.21271 1.39913,-0.18407 3.0757,-0.44772 4.93433,-0.76326 1.85863,-0.31554 3.89935,-0.68376 6.02668,-1.07819 2.12733,-0.39442 4.34043,-0.81385 6.54564,-1.23458 4.41043,-0.84144 8.78595,-1.683755 12.36304,-2.314845 1.78854,-0.31554 3.37831,-0.5792 4.67229,-0.76327 0.647,-0.0921 1.21902,-0.16341 1.7066,-0.21271 0.48758,-0.0493 0.89014,-0.075 1.19445,-0.075 0.15215,0 0.32534,-0.0615 0.51725,-0.17935 0.19191,-0.11779 0.40246,-0.29327 0.63125,-0.52137 0.2288,-0.2281 0.47565,-0.50968 0.73845,-0.84043 0.2628,-0.33074 0.54149,-0.71079 0.83543,-1.13656 0.29394,-0.42579 0.60341,-0.89655 0.92561,-1.40977 0.32221,-0.51322 0.65799,-1.06904 1.00559,-1.66209 0.6952,-1.18612 1.43748,-2.52336 2.21704,-3.9832 0.77956,-1.45983 1.59559,-3.04245 2.43653,-4.71517 0.84094,-1.67273 1.70692,-3.43679 2.58627,-5.26158 0.39358,-0.81673 0.7965,-1.67875 1.19445,-2.51712 l -3.69054,-4.17923 -50.37265,-4.06452 z" /><path
       id="path22904-7"
       style="font-variation-settings:normal;vector-effect:none;fill:#fffdfd;fill-opacity:1;stroke:#e8e7d5;stroke-width:1.89998;stroke-linecap:butt;stroke-linejoin:miter;stroke-miterlimit:4;stroke-dasharray:none;stroke-dashoffset:0;stroke-opacity:1;-inkscape-stroke:none;stop-color:#000000"
       d="m 272.6648,193.06524 c 0.86248,-1.17259 1.81812,-2.40918 2.64582,-3.54942 3.00182,-4.13526 5.75256,-8.01658 8.08549,-11.35523 4.66587,-6.67728 7.66182,-11.18005 7.66182,-11.18005 l -4.7863,-62.30048 -10.8487,-24.433035 -9.33609,3.54733 -26.18595,20.885705 c 0,0 -8.75908,35.08131 -7.10373,35.08131 1.65535,0 12.73056,34.27005 12.73056,34.27005 0,0 16.297,9.50484 21.83694,13.96203 1.46973,1.18247 3.33395,2.9674 5.30014,5.07179 z" /></g><circle
     style="font-variation-settings:normal;opacity:1;vector-effect:none;fill:#de3b38;fill-opacity:1;stroke:none;stroke-width:1.89998;stroke-linecap:butt;stroke-linejoin:miter;stroke-miterlimit:4;stroke-dasharray:none;stroke-dashoffset:0;stroke-opacity:1;-inkscape-stroke:none;stop-color:#000000;stop-opacity:1"
     id="path24041"
     cx="263.89645"
     cy="136.7948"
     r="5.7989607" /><circle
     style="font-variation-settings:normal;vector-effect:none;fill:#de3b38;fill-opacity:1;stroke:none;stroke-width:1.89998;stroke-linecap:butt;stroke-linejoin:miter;stroke-miterlimit:4;stroke-dasharray:none;stroke-dashoffset:0;stroke-opacity:1;-inkscape-stroke:none;stop-color:#000000"
     id="path24041-9"
     cx="303.58044"
     cy="170.73654"
     r="5.7989607" /><circle
     style="font-variation-settings:normal;vector-effect:none;fill:#de3b38;fill-opacity:1;stroke:none;stroke-width:1.89998;stroke-linecap:butt;stroke-linejoin:miter;stroke-miterlimit:4;stroke-dasharray:none;stroke-dashoffset:0;stroke-opacity:1;-inkscape-stroke:none;stop-color:#000000"
     id="path24041-4"
     cx="297.78149"
     cy="102.44569"
     r="5.7989607" /><circle
     style="font-variation-settings:normal;vector-effect:none;fill:#de3b38;fill-opacity:1;stroke:none;stroke-width:1.89998;stroke-linecap:butt;stroke-linejoin:miter;stroke-miterlimit:4;stroke-dasharray:none;stroke-dashoffset:0;stroke-opacity:1;-inkscape-stroke:none;stop-color:#000000"
     id="path24041-8"
     cx="330.56094"
     cy="86.021782"
     r="5.7989607" /><circle
     style="font-variation-settings:normal;vector-effect:none;fill:#de3b38;fill-opacity:1;stroke:none;stroke-width:1.89998;stroke-linecap:butt;stroke-linejoin:miter;stroke-miterlimit:4;stroke-dasharray:none;stroke-dashoffset:0;stroke-opacity:1;-inkscape-stroke:none;stop-color:#000000"
     id="path24041-1"
     cx="350.39893"
     cy="118.63295"
     r="5.7989607" /><circle
     style="font-variation-settings:normal;vector-effect:none;fill:#de3b38;fill-opacity:1;stroke:none;stroke-width:1.89998;stroke-linecap:butt;stroke-linejoin:miter;stroke-miterlimit:4;stroke-dasharray:none;stroke-dashoffset:0;stroke-opacity:1;-inkscape-stroke:none;stop-color:#000000"
     id="path24041-2"
     cx="350.39893"
     cy="170.38058"
     r="5.7989607" /><circle
     style="font-variation-settings:normal;vector-effect:none;fill:#de3b38;fill-opacity:1;stroke:none;stroke-width:1.89998;stroke-linecap:butt;stroke-linejoin:miter;stroke-miterlimit:4;stroke-dasharray:none;stroke-dashoffset:0;stroke-opacity:1;-inkscape-stroke:none;stop-color:#000000"
     id="path24041-93"
     cx="332.72437"
     cy="216.0201"
     r="5.7989607" /></svg>
