<?xml version="1.0" encoding="UTF-8" standalone="no"?>
<svg
   width="400.67862"
   viewBox="0 0 400.67863 305.10593"
   version="1.1"
   id="svg36"
   sodipodi:docname="dissolve.svg"
   inkscape:version="1.2 (1:1.2.1+202207142221+cd75a1ee6d)"
   xml:space="preserve"
   height="305.10593"
   xmlns:inkscape="http://www.inkscape.org/namespaces/inkscape"
   xmlns:sodipodi="http://sodipodi.sourceforge.net/DTD/sodipodi-0.dtd"
   xmlns="http://www.w3.org/2000/svg"
   xmlns:svg="http://www.w3.org/2000/svg"><sodipodi:namedview
     id="namedview38"
     pagecolor="#ffffff"
     bordercolor="#999999"
     borderopacity="1"
     inkscape:showpageshadow="0"
     inkscape:pageopacity="0"
     inkscape:pagecheckerboard="0"
     inkscape:deskcolor="#d1d1d1"
     showgrid="false"
     inkscape:zoom="1.668772"
     inkscape:cx="79.100081"
     inkscape:cy="217.82484"
     inkscape:window-width="1860"
     inkscape:window-height="1016"
     inkscape:window-x="0"
     inkscape:window-y="0"
     inkscape:window-maximized="1"
     inkscape:current-layer="svg36" /><defs
     id="defs5"><pattern
       id="hatch"
       patternUnits="userSpaceOnUse"
       width="5"
       height="5"
       patternTransform="rotate(45)"><line
         x1="0"
         y1="5"
         x2="0"
         stroke="white"
         stroke-linejoin="butt"
         stroke-width="1.3333333333333333"
         stroke-opacity="0.25"
         id="line2" /></pattern><clipPath
       clipPathUnits="userSpaceOnUse"
       id="clipPath5154"><path
         d="m 464.01716,-514.53079 v 153.2701 l -132.7358,76.63504 -132.73579,-76.63504 v -153.2701 l 132.73579,-76.63504 z"
         stroke="none"
         fill="#c42727"
         id="path5156"
         style="fill:#edca3d;fill-opacity:1;stroke-width:0.999995" /></clipPath><clipPath
       clipPathUnits="userSpaceOnUse"
       id="clipPath5158"><path
         d="m 464.01716,-514.53079 v 153.2701 l -132.7358,76.63504 -132.73579,-76.63504 v -153.2701 l 132.73579,-76.63504 z"
         stroke="none"
         fill="#c42727"
         id="path5160"
         style="fill:#edca3d;fill-opacity:1;stroke-width:0.999995" /></clipPath><pattern
       id="hatch-2"
       patternUnits="userSpaceOnUse"
       width="5"
       height="5"
       patternTransform="rotate(45)"><line
         x1="0"
         y1="5"
         x2="0"
         stroke="white"
         stroke-linejoin="butt"
         stroke-width="1.3333333333333333"
         stroke-opacity="0.25"
         id="line23905" /></pattern></defs><clipPath
     id="sphere"><path
       d="M 33.181299,213.59791 C 30.051971,209.24339 26.922644,204.62169 25.35798,202.31085 23.793316,200 23.793316,200 23.793316,200 c 0,0 0,0 0,0 0,0 0,0 0,0 0,0 0,0 0,0 0,0 0,0 0,0 0,0 0,0 0,0 0,0 0,0 0,0 0,0 0,0 0,0 0,0 0,0 0,0 0,0 0,0 0,0 0,0 0,0 0,0 0,0 0,0 0,0 0,0 0,0 0,0 0,0 0,0 0,0 0,0 0,0 0,0 0,0 0,0 0,0 0,0 0,0 0,0 0,0 0,0 0,0 0,0 0,0 0,0 0,0 0,0 0,0 0,0 0,0 0,0 0,0 0,0 0,0 0,0 0,0 0,0 0,0 0,0 0,0 0,0 0,0 0,0 0,0 0,0 0,0 0,0 0,0 0,0 0,0 0,0 0,0 0,0 0,0 0,0 0,0 0,0 0,0 0,0 0,0 0,0 0,0 0,0 0,0 0,0 0,0 0,0 0,0 0,0 0,0 0,0 0,0 0,0 0,0 0,0 0,0 0,0 0,0 0,0 0,0 0,0 0,0 0,0 0,0 0,0 0,0 0,0 0.1116,-0.17452 0.1116,-0.17452 0.334799,-0.52355 1.999284,-2.97236 1.664485,-2.44881 4.770255,-6.9974 7.876025,-11.28518 3.105771,-4.28779 6.211541,-8.31478 9.317311,-12.11338 3.10577,-3.7986 6.21154,-7.36882 9.31731,-10.73653 3.10577,-3.36771 6.21154,-6.53293 9.31731,-9.5165 3.105771,-2.98358 6.211541,-5.78552 9.317311,-8.42277 3.10577,-2.63725 6.21154,-5.10981 9.31731,-7.4315 3.10577,-2.3217 6.21154,-4.49254 9.31731,-6.52383 3.10577,-2.0313 6.211541,-3.92306 9.317311,-5.68456 3.105772,-1.7615 6.211542,-3.39273 9.317312,-4.90128 3.10577,-1.50854 6.21154,-2.89439 9.31731,-4.16369 3.10577,-1.26929 6.21154,-2.42203 9.31731,-3.46312 3.10577,-1.04109 6.21154,-1.97052 9.31731,-2.79212 3.10577,-0.82161 6.21154,-1.53538 9.31731,-2.14418 3.10577,-0.6088 6.21154,-1.11264 9.31731,-1.51348 3.10577,-0.40084 6.21154,-0.69868 9.31731,-0.8947 3.10577,-0.19601 6.21154,-0.29018 9.31731,-0.28289 3.10577,0.007 6.21154,0.11608 9.31731,0.32674 3.10577,0.21067 6.21154,0.52322 9.31731,0.93889 3.10577,0.41566 6.21154,0.93443 9.31731,1.55835 3.10577,0.62391 6.21154,1.35297 9.31731,2.19011 3.10577,0.83713 6.21154,1.78233 9.31731,2.83951 3.10577,1.05717 6.21154,2.22631 9.31731,3.5124 3.10577,1.2861 6.21154,2.68915 9.31731,4.21538 3.10577,1.52623 6.21154,3.17565 9.31731,4.95593 3.10577,1.78029 6.21154,3.69144 9.31731,5.74287 3.10577,2.05143 6.21154,4.24314 9.31731,6.58661 3.10577,2.34348 6.21154,4.83872 9.31731,7.49975 3.10577,2.66104 6.21154,5.48787 9.31731,8.4977 3.10577,3.00983 6.21154,6.20264 9.31731,9.59964 3.10577,3.397 6.21154,6.99818 9.31731,10.82983 3.10577,3.83165 6.21155,7.89378 9.31732,12.21934 3.10577,4.32556 6.21154,8.91455 7.76442,11.20905 C 322.61685,200 322.61685,200 322.61685,200 c 0,0 0,0 0,0 0,0 0,0 0,0 0,0 0,0 0,0 0,0 0,0 0,0 0,0 0,0 0,0 0,0 0,0 0,0 0,0 0,0 0,0 0,0 0,0 0,0 0,0 0,0 0,0 0,0 0,0 0,0 0,0 0,0 0,0 0,0 0,0 0,0 0,0 0,0 0,0 0,0 0,0 0,0 0,0 0,0 0,0 0,0 0,0 0,0 0,0 0,0 0,0 0,0 0,0 0,0 0,0 0,0 0,0 0,0 0,0 0,0 0,0 0,0 0,0 0,0 0,0 0,0 0,0 0,0 0,0 0,0 0,0 0,0 0,0 0,0 0,0 0,0 0,0 0,0 0,0 0,0 0,0 0,0 0,0 0,0 0,0 0,0 0,0 0,0 0,0 0,0 0,0 0,0 0,0 0,0 0,0 0,0 0,0 0,0 0,0 0,0 0,0 0,0 0,0 0,0 0,0 0,0 0,0 0,0 0,0 0,0 0,0 0,0 0,0 0,0 0,0 0,0 0,0 0,0 0,0 0,0 0,0 0,0 -0.11904,0.1861 -0.11904,0.18609 -0.35713,0.55829 -1.93103,2.88195 -1.5739,2.32366 -4.48362,6.59879 -7.39334,10.6432 -2.90972,4.04442 -5.81945,7.85813 -8.72917,11.46832 -2.90972,3.61019 -5.81944,7.01686 -8.72916,10.242 -2.90973,3.22515 -5.81945,6.26877 -8.72917,9.14881 -2.90972,2.88004 -5.81944,5.59651 -8.72917,8.16415 -2.90972,2.56764 -5.81944,4.98646 -8.72916,7.26862 -2.90973,2.28217 -5.81945,4.42768 -8.72917,6.44664 -2.90972,2.01896 -5.81944,3.91135 -8.72917,5.68556 -2.90972,1.77421 -5.81944,3.43024 -8.72916,4.97501 -2.90972,1.54477 -5.81945,2.97828 -8.72917,4.30627 -2.90972,1.32799 -5.81944,2.55045 -8.72916,3.67206 -2.90973,1.1216 -5.81945,2.14236 -8.72917,3.06604 -2.90972,0.92368 -5.81945,1.75028 -8.72917,2.48276 -2.90972,0.73249 -5.81944,1.37086 -8.72916,1.91735 -2.90973,0.54649 -5.81945,1.0011 -8.72917,1.3654 -2.90972,0.3643 -5.81944,0.63828 -8.72917,0.82288 -2.90972,0.1846 -5.81944,0.27982 -8.72916,0.28598 -2.90972,0.006 -5.81945,-0.0767 -8.72917,-0.24898 -2.90972,-0.17224 -5.81944,-0.43382 -8.72917,-0.78563 -2.90972,-0.35181 -5.81944,-0.79385 -8.72916,-1.32764 -2.90972,-0.53379 -5.81945,-1.15933 -8.72917,-1.87881 -2.90972,-0.71948 -5.81944,-1.53289 -8.72916,-2.44316 -2.90973,-0.91026 -5.81945,-1.91737 -8.72917,-3.02505 -2.90972,-1.10767 -5.81944,-2.31591 -8.72917,-3.62932 -2.90972,-1.31341 -5.81944,-2.732 -8.72916,-4.26141 -2.90973,-1.5294 -5.819448,-3.16963 -8.72917,-4.92752 -2.909722,-1.75789 -5.819444,-3.63345 -8.729166,-5.63493 -2.909722,-2.00148 -5.819444,-4.1289 -8.729166,-6.3922 -2.909722,-2.2633 -5.819445,-4.66249 -8.729167,-7.20959 -2.909722,-2.5471 -5.819444,-5.24211 -8.729166,-8.09958 -2.909722,-2.85747 -5.819444,-5.87741 -8.729166,-9.0775 -2.909722,-3.2001 -5.819445,-6.58036 -8.838969,-10.31417 -3.019525,-3.73381 -6.148853,-7.82117 -9.278181,-12.1757"
       id="path27" /></clipPath><rect
     style="fill:#e8e7d5;fill-opacity:1;stroke-width:1;stop-color:#000000"
     id="rect1361"
     width="400.67862"
     height="272.67038"
     x="0"
     y="0"
     rx="0"
     ry="0" /><rect
     style="fill:#f2f2f2;fill-opacity:1;stroke-width:1;stop-color:#000000"
     id="rect1361-4"
     width="400.67862"
     height="32.435547"
     x="2.2351742e-06"
     y="272.67038"
     rx="0"
     ry="0" /><rect
     style="fill:#de3b38;fill-opacity:1;stroke-width:0.999998;stop-color:#000000"
     id="rect1361-3"
     width="400.67862"
     height="52.049679"
     x="0"
     y="4.8941189e-07"
     rx="0"
     ry="0" /><g
     id="g4389"
     transform="matrix(1.4616141,0,0,1.4616141,-190.8129,-13.737566)"
     style="stroke-width:0.684175"><text
       xml:space="preserve"
       style="font-style:normal;font-weight:normal;font-size:16.7605px;line-height:1.25;font-family:sans-serif;fill:#ffffff;fill-opacity:1;stroke:none;stroke-width:0.684175"
       x="307.24359"
       y="29.942013"
       id="text1454-9-2-2"><tspan
         sodipodi:role="line"
         id="tspan1452-3-6-0"
         x="307.24359"
         y="29.942013"
         style="font-style:normal;font-variant:normal;font-weight:bold;font-stretch:normal;font-family:Roboto;-inkscape-font-specification:'Roboto Bold';fill:#ffffff;fill-opacity:1;stroke-width:0.684175">geot      lbox</tspan></text><path
       style="fill:#ffffff;fill-opacity:1;stroke-width:0.68417"
       d="m 345.79499,30.52847 c -0.13375,-0.07778 -0.15215,-0.133087 -0.15948,-0.479424 -0.004,-0.179157 -0.01,-0.438114 -0.0135,-0.575455 l -0.007,-0.249714 -0.27049,-0.131371 c -0.14878,-0.07226 -0.38469,-0.206013 -0.52427,-0.297243 l -0.25378,-0.165862 -0.41942,0.261946 c -0.52554,0.328237 -0.5809,0.351492 -0.72816,0.305932 -0.0982,-0.0304 -0.1836,-0.123498 -0.63004,-0.686853 -0.43326,-0.546685 -0.51763,-0.66956 -0.52355,-0.762451 -0.01,-0.152674 0.0489,-0.234352 0.46375,-0.646238 l 0.35057,-0.348025 -0.10201,-0.283447 c -0.0561,-0.155899 -0.12993,-0.415888 -0.16405,-0.577754 l -0.062,-0.294306 -0.11395,-0.0333 c -0.0627,-0.01831 -0.29834,-0.07786 -0.52373,-0.132276 -0.22538,-0.05445 -0.44412,-0.122054 -0.48607,-0.15024 -0.15171,-0.101919 -0.15476,-0.161625 -0.0529,-1.037649 0.0638,-0.549583 0.10694,-0.824475 0.13687,-0.874043 0.0921,-0.152481 0.1692,-0.164462 1.04796,-0.16281 0.13019,2.3e-4 0.24812,-0.0095 0.26208,-0.02165 0.014,-0.01213 0.0755,-0.131371 0.13675,-0.264931 0.0612,-0.133564 0.18333,-0.353973 0.2713,-0.489805 0.088,-0.135827 0.16143,-0.259603 0.16323,-0.275057 0.003,-0.02774 -0.2426,-0.452356 -0.42971,-0.74221 -0.12113,-0.187612 -0.15047,-0.301254 -0.1108,-0.428979 0.0251,-0.08098 0.15651,-0.199356 0.6857,-0.61795 0.81456,-0.64432 0.81303,-0.643936 1.16919,-0.291411 0.41245,0.40826 0.57329,0.5575 0.60478,0.561159 0.0187,0.0021 0.12957,-0.03106 0.24648,-0.07384 0.19786,-0.0724 0.58554,-0.178337 0.79749,-0.217917 0.10108,-0.01888 0.0798,0.0392 0.30303,-0.825668 0.0904,-0.350252 0.13093,-0.407571 0.30777,-0.435241 0.1597,-0.02499 1.56957,0.146284 1.69287,0.205658 0.15266,0.0735 0.18025,0.180702 0.17718,0.688447 -0.004,0.672116 -0.0311,0.60616 0.31768,0.775344 0.16373,0.07943 0.38854,0.204489 0.49959,0.277906 0.11104,0.07342 0.21637,0.135166 0.23405,0.137222 0.0287,0.0032 0.28296,-0.142209 0.75599,-0.432885 0.37834,-0.232481 0.39143,-0.225094 1.03007,0.5813 0.65661,0.829105 0.65535,0.823131 0.25707,1.212999 -0.45086,0.441354 -0.51629,0.509906 -0.52041,0.545309 -0.003,0.02034 0.0405,0.169426 0.0952,0.331098 0.0547,0.161674 0.12296,0.411776 0.1516,0.555788 0.0287,0.144009 0.0542,0.266012 0.0567,0.271119 0.003,0.0052 0.2388,0.06362 0.52502,0.130057 0.28622,0.06643 0.5547,0.143877 0.59662,0.172123 0.15358,0.103494 0.15848,0.190049 0.0591,1.045058 -0.12396,1.066433 -0.0974,1.03288 -0.81661,1.03375 -0.69514,8.41e-4 -0.62706,-0.0215 -0.7492,0.24583 -0.0579,0.126751 -0.18266,0.354387 -0.27724,0.505861 -0.0946,0.151474 -0.17391,0.292397 -0.17633,0.313162 -0.003,0.0207 0.0329,0.09613 0.0783,0.167479 0.28077,0.44032 0.43097,0.693913 0.46234,0.780663 0.074,0.204568 0.0317,0.255186 -0.68793,0.82401 -0.84357,0.666771 -0.80294,0.658962 -1.22969,0.236283 -0.12616,-0.124956 -0.24779,-0.245829 -0.2703,-0.268614 -0.12987,-0.131467 -0.24287,-0.230402 -0.26624,-0.233123 -0.0147,-0.0017 -0.12798,0.03238 -0.25168,0.07574 -0.21229,0.07443 -0.59402,0.177737 -0.79636,0.215516 -0.10843,0.02025 -0.1148,0.03618 -0.25582,0.639084 -0.0545,0.232874 -0.12336,0.459522 -0.15311,0.503666 -0.0986,0.146252 -0.18725,0.150433 -1.04608,0.04931 -0.57512,-0.06775 -0.80244,-0.104796 -0.86479,-0.141039 z m 1.89848,-2.741257 c 1.07427,-0.141111 1.93891,-0.822911 2.35954,-1.860576 0.12898,-0.318209 0.21353,-1.038799 0.16136,-1.372771 -0.0544,-0.346329 -0.11182,-0.552223 -0.22177,-0.795282 -0.34221,-0.756513 -0.92136,-1.297653 -1.69194,-1.580904 -0.3424,-0.125857 -0.96677,-0.19217 -1.33764,-0.142042 -0.97011,0.131092 -1.80641,0.734467 -2.23122,1.609772 -0.22691,0.467554 -0.32342,0.983083 -0.28093,1.500258 0.0256,0.311255 0.0396,0.376333 0.15933,0.740972 0.26006,0.792127 0.96235,1.481875 1.80564,1.773408 0.33949,0.117362 0.91587,0.174827 1.27785,0.127196 z"
       id="path4256-1" /><path
       style="fill:#ffffff;fill-opacity:1;stroke-width:0.68417"
       d="m 356.43959,26.545085 c -0.15222,-0.103539 -0.16941,-0.170721 -0.14906,-0.582385 0.0105,-0.21296 0.0251,-0.520804 0.0323,-0.684117 l 0.0131,-0.296923 -0.31002,-0.178616 c -0.1705,-0.09824 -0.43928,-0.276786 -0.59728,-0.39677 l -0.28728,-0.218151 -0.51978,0.2757 c -0.65128,0.345471 -0.71893,0.368429 -0.88988,0.301998 -0.11398,-0.04429 -0.20755,-0.161981 -0.69014,-0.868056 -0.46832,-0.685189 -0.55815,-0.8381 -0.55739,-0.948847 0.001,-0.18202 0.0776,-0.274047 0.60464,-0.728079 l 0.44526,-0.383637 -0.0973,-0.344968 c -0.0535,-0.189738 -0.1193,-0.504497 -0.14622,-0.699473 l -0.0489,-0.354501 -0.13244,-0.04909 c -0.0729,-0.02699 -0.34756,-0.117433 -0.61049,-0.200958 -0.26293,-0.08352 -0.51686,-0.182127 -0.56429,-0.2191 -0.17151,-0.133688 -0.17011,-0.204806 0.0242,-1.235972 0.12193,-0.646907 0.19608,-0.969562 0.23575,-1.02588 0.12206,-0.17325 0.21461,-0.181 1.25742,-0.105305 0.15449,0.0112 0.29528,0.0095 0.31287,-0.0037 0.0176,-0.01325 0.10062,-0.149584 0.18453,-0.302963 0.0839,-0.153375 0.24729,-0.404728 0.36309,-0.558557 0.11581,-0.153827 0.21338,-0.294568 0.21681,-0.312755 0.006,-0.03269 -0.24996,-0.557232 -0.44772,-0.916948 -0.12801,-0.23283 -0.15331,-0.370172 -0.0955,-0.518431 0.0367,-0.09399 0.20248,-0.223475 0.86567,-0.67588 1.02083,-0.696365 1.01899,-0.696037 1.4121,-0.24776 0.45527,0.519153 0.63365,0.709776 0.67071,0.716762 0.022,0.0041 0.15638,-0.02599 0.29873,-0.06695 0.2409,-0.06933 0.70991,-0.162532 0.96479,-0.191723 0.12155,-0.01392 0.0914,0.05321 0.42893,-0.954516 0.13668,-0.408109 0.1896,-0.47274 0.40179,-0.490743 0.19164,-0.01626 1.85057,0.305317 1.99193,0.386127 0.17501,0.100047 0.19876,0.22959 0.15252,0.831952 -0.0612,0.79736 -0.0877,0.716812 0.31198,0.946874 0.18766,0.108011 0.44399,0.275297 0.56963,0.371751 0.12563,0.09645 0.24545,0.178579 0.26627,0.182502 0.0339,0.0064 0.34776,-0.145038 0.93357,-0.450335 0.46853,-0.244181 0.48346,-0.234311 1.17375,0.776342 0.70974,1.039121 0.70874,1.031927 0.20333,1.461222 -0.57214,0.485991 -0.65554,0.561862 -0.6634,0.603534 -0.005,0.02404 0.0338,0.204478 0.0852,0.400955 0.0514,0.196475 0.11138,0.499031 0.13329,0.672357 0.0219,0.173322 0.042,0.320259 0.0445,0.326533 0.003,0.0064 0.27808,0.09555 0.61222,0.198406 0.33413,0.102846 0.64627,0.217304 0.69364,0.254345 0.1736,0.135716 0.17215,0.238855 -0.0175,1.245284 -0.2366,1.2553 -0.20231,1.2177 -1.05594,1.158386 -0.82509,-0.05733 -0.74242,-0.07813 -0.90981,0.228901 -0.0793,0.145579 -0.24654,0.405276 -0.37148,0.577121 -0.12495,0.171841 -0.23095,0.332437 -0.23556,0.356879 -0.005,0.02443 0.0309,0.116845 0.0789,0.205348 0.29629,0.546152 0.45326,0.859733 0.48322,0.965323 0.0706,0.249002 0.0162,0.305533 -0.88561,0.920255 -1.05714,0.720574 -1.00827,0.71472 -1.47929,0.177249 -0.13924,-0.158888 -0.27346,-0.312554 -0.29826,-0.34148 -0.14311,-0.166932 -0.26891,-0.293834 -0.29643,-0.299021 -0.0173,-0.0033 -0.15461,0.02768 -0.30506,0.06878 -0.2582,0.07052 -0.71993,0.161104 -0.96324,0.188963 -0.13039,0.01493 -0.13929,0.03331 -0.35725,0.737034 -0.0842,0.271803 -0.18497,0.535033 -0.22397,0.584926 -0.12924,0.165311 -0.23486,0.16283 -1.24569,-0.02925 -0.67689,-0.128683 -0.94358,-0.191691 -1.01454,-0.239962 z m 2.48323,-3.094164 c 1.28683,-0.07734 2.37023,-0.813987 2.95653,-2.010247 0.17979,-0.366844 0.34059,-1.214983 0.30639,-1.615793 -0.0355,-0.415607 -0.0864,-0.664786 -0.19647,-0.962486 -0.34269,-0.926587 -0.98463,-1.617432 -1.87543,-2.018267 -0.39582,-0.178104 -1.13129,-0.309189 -1.57566,-0.280828 -1.16237,0.07419 -2.20557,0.720132 -2.7832,1.723344 -0.30855,0.53588 -0.46634,1.139636 -0.45921,1.757036 0.004,0.371565 0.0154,0.449979 0.12694,0.892797 0.24218,0.961955 1.01781,1.839508 1.99421,2.256276 0.39308,0.167779 1.07236,0.284234 1.50595,0.258178 z"
       id="path4256-1-8-9" /><rect
       style="font-variation-settings:normal;fill:#ffffff;fill-opacity:1;stroke:none;stroke-width:13.6835;stroke-linecap:round;stroke-linejoin:round;stroke-miterlimit:4;stroke-dasharray:none;stroke-dashoffset:0;stroke-opacity:1;stop-color:#000000"
       id="rect24426"
       width="12.457413"
       height="12.457413"
       x="353.25241"
       y="28.874289"
       ry="5.6028881"
       rx="5.6028881" /><text
       xml:space="preserve"
       style="font-style:normal;font-weight:normal;font-size:9.06636px;line-height:1.25;font-family:sans-serif;fill:#de3b38;fill-opacity:1;stroke:none;stroke-width:0.684175"
       x="354.48523"
       y="37.494022"
       id="text24706"><tspan
         sodipodi:role="line"
         id="tspan24704"
         x="354.48523"
         y="37.494022"
         style="font-style:normal;font-variant:normal;font-weight:bold;font-stretch:normal;font-size:9.06636px;font-family:Roboto;-inkscape-font-specification:'Roboto Bold';fill:#de3b38;fill-opacity:1;stroke-width:0.684175">.js</tspan></text></g><text
     xml:space="preserve"
     style="font-style:normal;font-weight:normal;font-size:40px;line-height:1.25;font-family:sans-serif;fill:#ffffff;fill-opacity:1;stroke:none;stroke-width:0.999998"
     x="11.523982"
     y="41.034603"
     id="text1624"><tspan
       sodipodi:role="line"
       id="tspan1622"
       x="11.523982"
       y="41.034603"
       style="font-style:normal;font-variant:normal;font-weight:bold;font-stretch:normal;font-size:40px;font-family:roboto;-inkscape-font-specification:'roboto Bold';fill:#ffffff;fill-opacity:1;stroke-width:0.999998">Dissolve</tspan></text><text
     xml:space="preserve"
     style="font-style:normal;font-weight:normal;font-size:20px;line-height:1.25;font-family:sans-serif;fill:#000000;fill-opacity:1;stroke:none"
     x="100.58833"
     y="293.3364"
     id="text6596"><tspan
       sodipodi:role="line"
       id="tspan6594"
       x="100.58833"
       y="293.3364"
       style="font-style:normal;font-variant:normal;font-weight:normal;font-stretch:normal;font-size:20px;font-family:'Courier New';-inkscape-font-specification:'Courier New'">dissolve(geojson)</tspan></text><g
     id="g32814"
     transform="matrix(1.11877,0,0,1.11877,300.89792,14.257103)"
     style="font-variation-settings:normal;opacity:1;fill:#de3b38;fill-opacity:1;stroke:none;stroke-width:2.29693;stroke-linecap:butt;stroke-linejoin:miter;stroke-miterlimit:4;stroke-dasharray:4.59386, 4.59386;stroke-dashoffset:0;stroke-opacity:1;stop-color:#000000;stop-opacity:1"><path
       style="font-variation-settings:normal;fill:#de3b38;fill-opacity:1;stroke:none;stroke-width:2.29693;stroke-linecap:butt;stroke-linejoin:miter;stroke-miterlimit:4;stroke-dasharray:4.59386, 4.59386;stroke-dashoffset:0;stroke-opacity:1;stop-color:#000000;stop-opacity:1"
       d="m -202.07131,103.10257 -15.57095,12.35939 c 0,0 -13.10844,0.88014 -5.10527,11.38796 8.00317,10.50782 8.8482,13.57426 12.51154,13.57426 3.66334,0 14.25777,17.97027 14.25777,17.97027 0,0 -8.98631,15.62245 -7.04579,20.187 1.94052,4.56454 4.3609,12.97033 11.47691,13.56957 7.11601,0.59925 23.94397,-7.46244 23.94397,-11.99422 0,-4.53177 -9.01673,-9.21102 1.16338,-11.00875 10.18011,-1.79773 12.82988,1.12124 17.34293,-1.79773 4.51305,-2.91897 5.71154,-8.0453 6.31078,-12.49983 0.59924,-4.45453 2.90961,-5.25508 0.59924,-12.7901 -2.31036,-7.53501 -7.24007,-19.76565 -11.33178,-21.89109 -4.0917,-2.12544 -9.83601,-7.86741 -11.59863,-12.49048 -1.76261,-4.62306 -5.2223,-12.509195 -8.12957,-11.942723 -2.90726,0.566472 -28.82453,7.366473 -28.82453,7.366473 z"
       id="path32747" /><path
       style="font-variation-settings:normal;fill:#de3b38;fill-opacity:1;stroke:none;stroke-width:2.29693;stroke-linecap:butt;stroke-linejoin:miter;stroke-miterlimit:4;stroke-dasharray:4.59386, 4.59386;stroke-dashoffset:0;stroke-opacity:1;stop-color:#000000;stop-opacity:1"
       d="m -213.26966,82.030754 -6.1914,13.150575 -7.60992,-2.818314 -6.56592,-6.949815 1.7041,-11.224103 c 0,0 4.04021,-6.523791 7.58183,-5.325304 3.54162,1.198486 11.08131,13.166961 11.08131,13.166961 z"
       id="path32749" /><path
       style="font-variation-settings:normal;fill:#de3b38;fill-opacity:1;stroke:none;stroke-width:2.29693;stroke-linecap:butt;stroke-linejoin:miter;stroke-miterlimit:4;stroke-dasharray:4.59386, 4.59386;stroke-dashoffset:0;stroke-opacity:1;stop-color:#000000;stop-opacity:1"
       d="m -193.5555,75.190956 c 0,0 -5.50555,6.362276 -1.92179,10.531228 3.58375,4.168953 -0.78651,8.354291 7.64035,5.957319 8.42685,-2.396972 6.5074,-1.673667 9.38424,-2.825337 2.87683,-1.151671 7.0294,-1.776662 7.62864,-7.092603 0.59924,-5.315942 0.0281,-8.88331 0.0281,-8.88331 z"
       id="path32751" /><path
       style="font-variation-settings:normal;fill:#de3b38;fill-opacity:1;stroke:none;stroke-width:2.29693;stroke-linecap:butt;stroke-linejoin:miter;stroke-miterlimit:4;stroke-dasharray:4.59386, 4.59386;stroke-dashoffset:0;stroke-opacity:1;stop-color:#000000;stop-opacity:1"
       d="m -224.88233,99.589043 -0.0843,6.720417 6.35759,1.1821 5.51959,-5.80048 z"
       id="path32753" /><path
       style="font-variation-settings:normal;fill:#de3b38;fill-opacity:1;stroke:none;stroke-width:2.29693;stroke-linecap:butt;stroke-linejoin:miter;stroke-miterlimit:4;stroke-dasharray:4.59386, 4.59386;stroke-dashoffset:0;stroke-opacity:1;stop-color:#000000;stop-opacity:1"
       d="m -228.12199,137.7744 c 0,0 8.5041,9.59257 8.5041,12.41557 0,2.82299 2.10203,3.20922 0.25046,8.20682 -1.85156,4.99759 -3.8506,7.39456 -7.84399,7.39456 -3.9934,0 -8.8482,-3.76867 -9.98583,-6.59167 -1.13762,-2.823 -1.14465,-10.56868 -1.14465,-10.56868 z"
       id="path32755" /><path
       style="font-variation-settings:normal;fill:#de3b38;fill-opacity:1;stroke:none;stroke-width:2.29693;stroke-linecap:butt;stroke-linejoin:miter;stroke-miterlimit:4;stroke-dasharray:4.59386, 4.59386;stroke-dashoffset:0;stroke-opacity:1;stop-color:#000000;stop-opacity:1"
       d="m -211.1887,151.83789 c 0,0 6.19608,-3.74293 6.82576,2.12778 0.62967,5.87071 2.47422,7.63566 -1.06272,8.18575 -3.53694,0.55009 -10.53357,-2.69893 -10.53357,-2.69893 z"
       id="path32757" /><path
       style="font-variation-settings:normal;fill:#de3b38;fill-opacity:1;stroke:none;stroke-width:2.29693;stroke-linecap:butt;stroke-linejoin:miter;stroke-miterlimit:4;stroke-dasharray:4.59386, 4.59386;stroke-dashoffset:0;stroke-opacity:1;stop-color:#000000;stop-opacity:1"
       d="m -157.52835,174.64423 -5.02101,1.95457 c 0,0 -2.73404,12.0106 5.43064,13.20909 8.16469,1.19849 9.2555,-0.007 12.17213,-1.74857 2.91663,-1.74155 7.06919,-2.90024 10.64827,-7.67312 3.57907,-4.77288 7.53735,-12.15808 3.57907,-12.15808 -3.95828,0 -4.57391,0.60626 -10.4376,2.94004 -5.86368,2.33377 -16.3715,3.47607 -16.3715,3.47607 z"
       id="path32759" /><path
       style="font-variation-settings:normal;fill:#de3b38;fill-opacity:1;stroke:none;stroke-width:2.29693;stroke-linecap:butt;stroke-linejoin:miter;stroke-miterlimit:4;stroke-dasharray:4.59386, 4.59386;stroke-dashoffset:0;stroke-opacity:1;stop-color:#000000;stop-opacity:1"
       d="m -155.11734,92.358333 c 0,0 -5.24337,11.203037 1.22658,15.968887 6.46995,4.76586 10.48441,9.66514 11.67587,4.92269 1.19147,-4.74245 -0.1264,-6.79532 -1.2055,-11.33412 -1.07911,-4.538797 -11.69695,-9.557457 -11.69695,-9.557457 z"
       id="path32761" /><path
       style="font-variation-settings:normal;fill:#de3b38;fill-opacity:1;stroke:none;stroke-width:2.29693;stroke-linecap:butt;stroke-linejoin:miter;stroke-miterlimit:4;stroke-dasharray:4.59386, 4.59386;stroke-dashoffset:0;stroke-opacity:1;stop-color:#000000;stop-opacity:1"
       d="m -143.11024,118.70045 -0.55945,4.80448 3.89859,-0.34995 0.38272,-1.97446 z"
       id="path32763" /><path
       style="font-variation-settings:normal;fill:#de3b38;fill-opacity:1;stroke:none;stroke-width:2.29693;stroke-linecap:butt;stroke-linejoin:miter;stroke-miterlimit:4;stroke-dasharray:4.59386, 4.59386;stroke-dashoffset:0;stroke-opacity:1;stop-color:#000000;stop-opacity:1"
       d="m -139.72662,128.41591 -1.02527,4.12214 3.94424,1.91711 c 0,0 2.80193,-0.6051 2.5023,-2.81364 -0.29962,-2.20854 -5.42127,-3.22561 -5.42127,-3.22561 z"
       id="path32765" /><path
       style="font-variation-settings:normal;fill:#de3b38;fill-opacity:1;stroke:none;stroke-width:2.29693;stroke-linecap:butt;stroke-linejoin:miter;stroke-miterlimit:4;stroke-dasharray:4.59386, 4.59386;stroke-dashoffset:0;stroke-opacity:1;stop-color:#000000;stop-opacity:1"
       d="m -137.74865,141.47402 c 0,0 -0.84503,7.70941 0.73501,8.00903 1.58003,0.29962 3.07346,-1.18795 3.07346,-1.18795 l 0.99718,-5.11464 z"
       id="path32767" /></g><path
     style="fill:#ff5555;fill-opacity:1;stroke:none;stroke-width:1px;stroke-linecap:butt;stroke-linejoin:miter;stroke-opacity:1"
     d="m 291.4877,129.60517 -17.42031,13.82731 c 0,0 -14.66533,0.98468 -5.71163,12.74051 8.95371,11.75584 9.89911,15.18648 13.99754,15.18648 4.09843,0 15.95117,20.1046 15.95117,20.1046 0,0 -10.05362,17.47793 -7.88262,22.58461 2.17099,5.10667 4.87884,14.51081 12.84002,15.18122 7.96118,0.67043 26.7878,-8.34875 26.7878,-13.41877 0,-5.07001 -10.08765,-10.30501 1.30155,-12.31626 11.3892,-2.01124 14.35369,1.25441 19.40275,-2.01124 5.04907,-3.26566 6.3899,-9.00084 7.06031,-13.98444 0.67041,-4.98359 3.25519,-5.87923 0.67041,-14.30918 -2.58476,-8.42994 -8.09997,-22.11322 -12.67765,-24.49109 -4.57767,-2.37788 -11.00424,-8.80183 -12.9762,-13.97398 -1.97196,-5.17214 -5.84255,-13.99492 -9.09512,-13.36116 -3.25256,0.63375 -32.24802,8.24139 -32.24802,8.24139 z"
     id="path32747-0" /><path
     style="fill:#800080;fill-opacity:1;stroke:none;stroke-width:1px;stroke-linecap:butt;stroke-linejoin:miter;stroke-opacity:1"
     d="m 278.95932,106.03065 -6.92675,14.71247 -8.51375,-3.15305 -7.34576,-7.77524 1.9065,-12.557183 c 0,0 4.52007,-7.29862 8.48232,-5.957797 3.96226,1.340835 12.39744,14.7308 12.39744,14.7308 z"
     id="path32749-8" /><path
     style="fill:#000080;fill-opacity:1;stroke:none;stroke-width:1px;stroke-linecap:butt;stroke-linejoin:miter;stroke-opacity:1"
     d="m 301.01493,98.378498 c 0,0 -6.15944,7.117912 -2.15004,11.782012 4.00939,4.66411 -0.87992,9.34653 8.5478,6.66487 9.4277,-2.68166 7.28028,-1.87244 10.4988,-3.16089 3.21851,-1.28847 7.86428,-1.98769 8.5347,-7.935 0.67041,-5.947316 0.0314,-9.938382 0.0314,-9.938382 z"
     id="path32751-8" /><path
     style="fill:#ff00ff;fill-opacity:1;stroke:none;stroke-width:1px;stroke-linecap:butt;stroke-linejoin:miter;stroke-opacity:1"
     d="m 265.96741,125.67434 -0.0943,7.5186 7.11268,1.3225 6.17515,-6.4894 z"
     id="path32753-5" /><path
     style="fill:#800000;fill-opacity:1;stroke:none;stroke-width:1px;stroke-linecap:butt;stroke-linejoin:miter;stroke-opacity:1"
     d="m 262.34298,168.39497 c 0,0 9.51413,10.73188 9.51413,13.89017 0,3.15828 2.35169,3.59038 0.28021,9.18154 -2.07147,5.59116 -4.30794,8.27282 -8.77562,8.27282 -4.4677,0 -9.8991,-4.21628 -11.17185,-7.37457 -1.27273,-3.15828 -1.2806,-11.82392 -1.2806,-11.82392 z"
     id="path32755-0" /><path
     style="fill:#ff0000;fill-opacity:1;stroke:none;stroke-width:1px;stroke-linecap:butt;stroke-linejoin:miter;stroke-opacity:1"
     d="m 281.28744,184.12878 c 0,0 6.93198,-4.18747 7.63645,2.3805 0.70446,6.56797 2.76809,8.54255 -1.18894,9.15797 -3.95702,0.61543 -11.78464,-3.01948 -11.78464,-3.01948 z"
     id="path32757-9" /><path
     style="fill:#ffff00;fill-opacity:1;stroke:none;stroke-width:1px;stroke-linecap:butt;stroke-linejoin:miter;stroke-opacity:1"
     d="m 341.32103,209.64383 -5.61736,2.18672 c 0,0 -3.05876,13.4371 6.07564,14.77793 9.13441,1.34084 10.35477,-0.008 13.61781,-1.95625 3.26304,-1.94839 7.9088,-3.2447 11.91297,-8.58445 4.00415,-5.33976 8.43256,-13.6021 4.00415,-13.6021 -4.4284,0 -5.11715,0.67827 -11.67727,3.28923 -6.56011,2.61095 -18.31594,3.88892 -18.31594,3.88892 z"
     id="path32759-6" /><path
     style="fill:#00ffff;fill-opacity:1;stroke:none;stroke-width:1px;stroke-linecap:butt;stroke-linejoin:miter;stroke-opacity:1"
     d="m 344.01839,117.58484 c 0,0 -5.86612,12.53362 1.37226,17.86551 7.23839,5.3319 11.72965,10.81307 13.06262,5.50736 1.33298,-5.30571 -0.14142,-7.6024 -1.34868,-12.68027 -1.20728,-5.07788 -13.0862,-10.6926 -13.0862,-10.6926 z"
     id="path32761-3" /><path
     style="fill:#008080;fill-opacity:1;stroke:none;stroke-width:1px;stroke-linecap:butt;stroke-linejoin:miter;stroke-opacity:1"
     d="m 357.45158,147.05561 -0.6259,5.37511 4.36163,-0.39152 0.42817,-2.20896 z"
     id="path32763-8" /><path
     style="fill:#00ff00;fill-opacity:1;stroke:none;stroke-width:1px;stroke-linecap:butt;stroke-linejoin:miter;stroke-opacity:1"
     d="m 361.23707,157.92498 -1.14704,4.61172 4.41269,2.14481 c 0,0 3.13472,-0.67697 2.7995,-3.14782 -0.3352,-2.47085 -6.06515,-3.60871 -6.06515,-3.60871 z"
     id="path32765-5" /><path
     style="fill:#008000;fill-opacity:1;stroke:none;stroke-width:1px;stroke-linecap:butt;stroke-linejoin:miter;stroke-opacity:1"
     d="m 363.44996,172.534 c 0,0 -0.94539,8.62505 0.82231,8.96026 1.76769,0.33521 3.43849,-1.32904 3.43849,-1.32904 l 1.11562,-5.72211 z"
     id="path32767-6" /><g
     id="g8954"
     transform="translate(569.8055,294.14498)"><rect
       style="fill:#de3b38;fill-opacity:1;stroke:none;stroke-width:1.9;stroke-dasharray:3.8, 3.8;stroke-dashoffset:0;stroke-opacity:1;stop-color:#000000"
       id="rect8620"
       width="23.861229"
       height="11.930614"
       x="-388.43353"
       y="-139.90996" /><path
       sodipodi:type="star"
       style="fill:#de3b38;fill-opacity:1;stroke:none;stroke-width:2.56974;stroke-dasharray:5.13947, 5.13947;stroke-dashoffset:0;stroke-opacity:1;stop-color:#000000"
       id="path8950"
       inkscape:flatsided="false"
       sodipodi:sides="3"
       sodipodi:cx="-251.28442"
       sodipodi:cy="-81.816078"
       sodipodi:r1="23.436432"
       sodipodi:r2="11.718216"
       sodipodi:arg1="2.0943951"
       sodipodi:arg2="3.1415927"
       inkscape:rounded="0"
       inkscape:randomized="0"
       d="m -263.00264,-61.519533 0,-20.296546 0,-20.296541 17.57732,10.148269 17.57733,10.148273 -17.57733,10.148273 z"
       inkscape:transform-center-x="-4.3320803"
       transform="matrix(0.73937574,0,0,0.73937574,-175.30467,-73.451827)" /></g></svg>
