<?xml version="1.0" encoding="UTF-8" standalone="no"?>
<svg
   width="400.67862"
   viewBox="0 0 400.67863 305.10593"
   version="1.1"
   id="svg36"
   sodipodi:docname="tissot.svg"
   inkscape:version="1.2 (1:1.2.1+202207142221+cd75a1ee6d)"
   xml:space="preserve"
   height="305.10593"
   inkscape:export-filename="union.png"
   inkscape:export-xdpi="149"
   inkscape:export-ydpi="149"
   xmlns:inkscape="http://www.inkscape.org/namespaces/inkscape"
   xmlns:sodipodi="http://sodipodi.sourceforge.net/DTD/sodipodi-0.dtd"
   xmlns="http://www.w3.org/2000/svg"
   xmlns:svg="http://www.w3.org/2000/svg"><sodipodi:namedview
     id="namedview38"
     pagecolor="#ffffff"
     bordercolor="#999999"
     borderopacity="1"
     inkscape:showpageshadow="0"
     inkscape:pageopacity="0"
     inkscape:pagecheckerboard="0"
     inkscape:deskcolor="#d1d1d1"
     showgrid="false"
     inkscape:zoom="1.668772"
     inkscape:cx="387.41062"
     inkscape:cy="112.35807"
     inkscape:window-width="1860"
     inkscape:window-height="1016"
     inkscape:window-x="0"
     inkscape:window-y="0"
     inkscape:window-maximized="1"
     inkscape:current-layer="svg36" /><defs
     id="defs5"><pattern
       id="hatch"
       patternUnits="userSpaceOnUse"
       width="5"
       height="5"
       patternTransform="rotate(45)"><line
         x1="0"
         y1="5"
         x2="0"
         stroke="white"
         stroke-linejoin="butt"
         stroke-width="1.3333333333333333"
         stroke-opacity="0.25"
         id="line2" /></pattern><clipPath
       clipPathUnits="userSpaceOnUse"
       id="clipPath5154"><path
         d="m 464.01716,-514.53079 v 153.2701 l -132.7358,76.63504 -132.73579,-76.63504 v -153.2701 l 132.73579,-76.63504 z"
         stroke="none"
         fill="#c42727"
         id="path5156"
         style="fill:#edca3d;fill-opacity:1;stroke-width:0.999995" /></clipPath><clipPath
       clipPathUnits="userSpaceOnUse"
       id="clipPath5158"><path
         d="m 464.01716,-514.53079 v 153.2701 l -132.7358,76.63504 -132.73579,-76.63504 v -153.2701 l 132.73579,-76.63504 z"
         stroke="none"
         fill="#c42727"
         id="path5160"
         style="fill:#edca3d;fill-opacity:1;stroke-width:0.999995" /></clipPath><pattern
       id="hatch-2"
       patternUnits="userSpaceOnUse"
       width="5"
       height="5"
       patternTransform="rotate(45)"><line
         x1="0"
         y1="5"
         x2="0"
         stroke="white"
         stroke-linejoin="butt"
         stroke-width="1.3333333333333333"
         stroke-opacity="0.25"
         id="line23905" /></pattern><clipPath
       clipPathUnits="userSpaceOnUse"
       id="clipPath11782"><circle
         style="fill:#ffffff;fill-opacity:0.435798;stroke:none;stroke-width:1.9;stroke-dasharray:none;stroke-opacity:1;stop-color:#000000"
         id="circle11784"
         cx="-183.78493"
         cy="123.71002"
         r="57.799141" /></clipPath><filter
       id="pencil1"
       x="0"
       y="0"
       width="1"
       height="1"><feTurbulence
         baseFrequency="0.03"
         id="feTurbulence33986"
         result="result1" /><feDisplacementMap
         in="SourceGraphic"
         scale="5"
         in2="result1"
         id="feDisplacementMap33988"
         xChannelSelector="A"
         yChannelSelector="A" /></filter></defs><clipPath
     id="sphere"><path
       d="M 33.181299,213.59791 C 30.051971,209.24339 26.922644,204.62169 25.35798,202.31085 23.793316,200 23.793316,200 23.793316,200 c 0,0 0,0 0,0 0,0 0,0 0,0 0,0 0,0 0,0 0,0 0,0 0,0 0,0 0,0 0,0 0,0 0,0 0,0 0,0 0,0 0,0 0,0 0,0 0,0 0,0 0,0 0,0 0,0 0,0 0,0 0,0 0,0 0,0 0,0 0,0 0,0 0,0 0,0 0,0 0,0 0,0 0,0 0,0 0,0 0,0 0,0 0,0 0,0 0,0 0,0 0,0 0,0 0,0 0,0 0,0 0,0 0,0 0,0 0,0 0,0 0,0 0,0 0,0 0,0 0,0 0,0 0,0 0,0 0,0 0,0 0,0 0,0 0,0 0,0 0,0 0,0 0,0 0,0 0,0 0,0 0,0 0,0 0,0 0,0 0,0 0,0 0,0 0,0 0,0 0,0 0,0 0,0 0,0 0,0 0,0 0,0 0,0 0,0 0,0 0,0 0,0 0,0 0,0 0,0 0,0 0,0 0,0 0,0 0,0 0,0 0,0 0,0 0,0 0,0 0,0 0,0 0.1116,-0.17452 0.1116,-0.17452 0.334799,-0.52355 1.999284,-2.97236 1.664485,-2.44881 4.770255,-6.9974 7.876025,-11.28518 3.105771,-4.28779 6.211541,-8.31478 9.317311,-12.11338 3.10577,-3.7986 6.21154,-7.36882 9.31731,-10.73653 3.10577,-3.36771 6.21154,-6.53293 9.31731,-9.5165 3.105771,-2.98358 6.211541,-5.78552 9.317311,-8.42277 3.10577,-2.63725 6.21154,-5.10981 9.31731,-7.4315 3.10577,-2.3217 6.21154,-4.49254 9.31731,-6.52383 3.10577,-2.0313 6.211541,-3.92306 9.317311,-5.68456 3.105772,-1.7615 6.211542,-3.39273 9.317312,-4.90128 3.10577,-1.50854 6.21154,-2.89439 9.31731,-4.16369 3.10577,-1.26929 6.21154,-2.42203 9.31731,-3.46312 3.10577,-1.04109 6.21154,-1.97052 9.31731,-2.79212 3.10577,-0.82161 6.21154,-1.53538 9.31731,-2.14418 3.10577,-0.6088 6.21154,-1.11264 9.31731,-1.51348 3.10577,-0.40084 6.21154,-0.69868 9.31731,-0.8947 3.10577,-0.19601 6.21154,-0.29018 9.31731,-0.28289 3.10577,0.007 6.21154,0.11608 9.31731,0.32674 3.10577,0.21067 6.21154,0.52322 9.31731,0.93889 3.10577,0.41566 6.21154,0.93443 9.31731,1.55835 3.10577,0.62391 6.21154,1.35297 9.31731,2.19011 3.10577,0.83713 6.21154,1.78233 9.31731,2.83951 3.10577,1.05717 6.21154,2.22631 9.31731,3.5124 3.10577,1.2861 6.21154,2.68915 9.31731,4.21538 3.10577,1.52623 6.21154,3.17565 9.31731,4.95593 3.10577,1.78029 6.21154,3.69144 9.31731,5.74287 3.10577,2.05143 6.21154,4.24314 9.31731,6.58661 3.10577,2.34348 6.21154,4.83872 9.31731,7.49975 3.10577,2.66104 6.21154,5.48787 9.31731,8.4977 3.10577,3.00983 6.21154,6.20264 9.31731,9.59964 3.10577,3.397 6.21154,6.99818 9.31731,10.82983 3.10577,3.83165 6.21155,7.89378 9.31732,12.21934 3.10577,4.32556 6.21154,8.91455 7.76442,11.20905 C 322.61685,200 322.61685,200 322.61685,200 c 0,0 0,0 0,0 0,0 0,0 0,0 0,0 0,0 0,0 0,0 0,0 0,0 0,0 0,0 0,0 0,0 0,0 0,0 0,0 0,0 0,0 0,0 0,0 0,0 0,0 0,0 0,0 0,0 0,0 0,0 0,0 0,0 0,0 0,0 0,0 0,0 0,0 0,0 0,0 0,0 0,0 0,0 0,0 0,0 0,0 0,0 0,0 0,0 0,0 0,0 0,0 0,0 0,0 0,0 0,0 0,0 0,0 0,0 0,0 0,0 0,0 0,0 0,0 0,0 0,0 0,0 0,0 0,0 0,0 0,0 0,0 0,0 0,0 0,0 0,0 0,0 0,0 0,0 0,0 0,0 0,0 0,0 0,0 0,0 0,0 0,0 0,0 0,0 0,0 0,0 0,0 0,0 0,0 0,0 0,0 0,0 0,0 0,0 0,0 0,0 0,0 0,0 0,0 0,0 0,0 0,0 0,0 0,0 0,0 0,0 0,0 0,0 0,0 0,0 0,0 0,0 0,0 0,0 0,0 0,0 0,0 0,0 -0.11904,0.1861 -0.11904,0.18609 -0.35713,0.55829 -1.93103,2.88195 -1.5739,2.32366 -4.48362,6.59879 -7.39334,10.6432 -2.90972,4.04442 -5.81945,7.85813 -8.72917,11.46832 -2.90972,3.61019 -5.81944,7.01686 -8.72916,10.242 -2.90973,3.22515 -5.81945,6.26877 -8.72917,9.14881 -2.90972,2.88004 -5.81944,5.59651 -8.72917,8.16415 -2.90972,2.56764 -5.81944,4.98646 -8.72916,7.26862 -2.90973,2.28217 -5.81945,4.42768 -8.72917,6.44664 -2.90972,2.01896 -5.81944,3.91135 -8.72917,5.68556 -2.90972,1.77421 -5.81944,3.43024 -8.72916,4.97501 -2.90972,1.54477 -5.81945,2.97828 -8.72917,4.30627 -2.90972,1.32799 -5.81944,2.55045 -8.72916,3.67206 -2.90973,1.1216 -5.81945,2.14236 -8.72917,3.06604 -2.90972,0.92368 -5.81945,1.75028 -8.72917,2.48276 -2.90972,0.73249 -5.81944,1.37086 -8.72916,1.91735 -2.90973,0.54649 -5.81945,1.0011 -8.72917,1.3654 -2.90972,0.3643 -5.81944,0.63828 -8.72917,0.82288 -2.90972,0.1846 -5.81944,0.27982 -8.72916,0.28598 -2.90972,0.006 -5.81945,-0.0767 -8.72917,-0.24898 -2.90972,-0.17224 -5.81944,-0.43382 -8.72917,-0.78563 -2.90972,-0.35181 -5.81944,-0.79385 -8.72916,-1.32764 -2.90972,-0.53379 -5.81945,-1.15933 -8.72917,-1.87881 -2.90972,-0.71948 -5.81944,-1.53289 -8.72916,-2.44316 -2.90973,-0.91026 -5.81945,-1.91737 -8.72917,-3.02505 -2.90972,-1.10767 -5.81944,-2.31591 -8.72917,-3.62932 -2.90972,-1.31341 -5.81944,-2.732 -8.72916,-4.26141 -2.90973,-1.5294 -5.819448,-3.16963 -8.72917,-4.92752 -2.909722,-1.75789 -5.819444,-3.63345 -8.729166,-5.63493 -2.909722,-2.00148 -5.819444,-4.1289 -8.729166,-6.3922 -2.909722,-2.2633 -5.819445,-4.66249 -8.729167,-7.20959 -2.909722,-2.5471 -5.819444,-5.24211 -8.729166,-8.09958 -2.909722,-2.85747 -5.819444,-5.87741 -8.729166,-9.0775 -2.909722,-3.2001 -5.819445,-6.58036 -8.838969,-10.31417 -3.019525,-3.73381 -6.148853,-7.82117 -9.278181,-12.1757"
       id="path27" /></clipPath><rect
     style="fill:#e8e7d5;fill-opacity:1;stroke-width:1;stop-color:#000000"
     id="rect1361"
     width="400.67862"
     height="272.67038"
     x="0"
     y="0"
     rx="0"
     ry="0" /><rect
     style="fill:#f2f2f2;fill-opacity:1;stroke-width:1;stop-color:#000000"
     id="rect1361-4"
     width="400.67862"
     height="32.435547"
     x="2.2351742e-06"
     y="272.67038"
     rx="0"
     ry="0" /><rect
     style="fill:#de3b38;fill-opacity:1;stroke-width:0.999998;stop-color:#000000"
     id="rect1361-3"
     width="400.67862"
     height="52.049679"
     x="0"
     y="4.8941189e-07"
     rx="0"
     ry="0" /><g
     id="g4389"
     transform="matrix(1.4616141,0,0,1.4616141,-190.8129,-13.737566)"
     style="stroke-width:0.684175"><text
       xml:space="preserve"
       style="font-style:normal;font-weight:normal;font-size:16.7605px;line-height:1.25;font-family:sans-serif;fill:#ffffff;fill-opacity:1;stroke:none;stroke-width:0.684175"
       x="307.24359"
       y="29.942013"
       id="text1454-9-2-2"><tspan
         sodipodi:role="line"
         id="tspan1452-3-6-0"
         x="307.24359"
         y="29.942013"
         style="font-style:normal;font-variant:normal;font-weight:bold;font-stretch:normal;font-family:Roboto;-inkscape-font-specification:'Roboto Bold';fill:#ffffff;fill-opacity:1;stroke-width:0.684175">geot      lbox</tspan></text><path
       style="fill:#ffffff;fill-opacity:1;stroke-width:0.68417"
       d="m 345.79499,30.52847 c -0.13375,-0.07778 -0.15215,-0.133087 -0.15948,-0.479424 -0.004,-0.179157 -0.01,-0.438114 -0.0135,-0.575455 l -0.007,-0.249714 -0.27049,-0.131371 c -0.14878,-0.07226 -0.38469,-0.206013 -0.52427,-0.297243 l -0.25378,-0.165862 -0.41942,0.261946 c -0.52554,0.328237 -0.5809,0.351492 -0.72816,0.305932 -0.0982,-0.0304 -0.1836,-0.123498 -0.63004,-0.686853 -0.43326,-0.546685 -0.51763,-0.66956 -0.52355,-0.762451 -0.01,-0.152674 0.0489,-0.234352 0.46375,-0.646238 l 0.35057,-0.348025 -0.10201,-0.283447 c -0.0561,-0.155899 -0.12993,-0.415888 -0.16405,-0.577754 l -0.062,-0.294306 -0.11395,-0.0333 c -0.0627,-0.01831 -0.29834,-0.07786 -0.52373,-0.132276 -0.22538,-0.05445 -0.44412,-0.122054 -0.48607,-0.15024 -0.15171,-0.101919 -0.15476,-0.161625 -0.0529,-1.037649 0.0638,-0.549583 0.10694,-0.824475 0.13687,-0.874043 0.0921,-0.152481 0.1692,-0.164462 1.04796,-0.16281 0.13019,2.3e-4 0.24812,-0.0095 0.26208,-0.02165 0.014,-0.01213 0.0755,-0.131371 0.13675,-0.264931 0.0612,-0.133564 0.18333,-0.353973 0.2713,-0.489805 0.088,-0.135827 0.16143,-0.259603 0.16323,-0.275057 0.003,-0.02774 -0.2426,-0.452356 -0.42971,-0.74221 -0.12113,-0.187612 -0.15047,-0.301254 -0.1108,-0.428979 0.0251,-0.08098 0.15651,-0.199356 0.6857,-0.61795 0.81456,-0.64432 0.81303,-0.643936 1.16919,-0.291411 0.41245,0.40826 0.57329,0.5575 0.60478,0.561159 0.0187,0.0021 0.12957,-0.03106 0.24648,-0.07384 0.19786,-0.0724 0.58554,-0.178337 0.79749,-0.217917 0.10108,-0.01888 0.0798,0.0392 0.30303,-0.825668 0.0904,-0.350252 0.13093,-0.407571 0.30777,-0.435241 0.1597,-0.02499 1.56957,0.146284 1.69287,0.205658 0.15266,0.0735 0.18025,0.180702 0.17718,0.688447 -0.004,0.672116 -0.0311,0.60616 0.31768,0.775344 0.16373,0.07943 0.38854,0.204489 0.49959,0.277906 0.11104,0.07342 0.21637,0.135166 0.23405,0.137222 0.0287,0.0032 0.28296,-0.142209 0.75599,-0.432885 0.37834,-0.232481 0.39143,-0.225094 1.03007,0.5813 0.65661,0.829105 0.65535,0.823131 0.25707,1.212999 -0.45086,0.441354 -0.51629,0.509906 -0.52041,0.545309 -0.003,0.02034 0.0405,0.169426 0.0952,0.331098 0.0547,0.161674 0.12296,0.411776 0.1516,0.555788 0.0287,0.144009 0.0542,0.266012 0.0567,0.271119 0.003,0.0052 0.2388,0.06362 0.52502,0.130057 0.28622,0.06643 0.5547,0.143877 0.59662,0.172123 0.15358,0.103494 0.15848,0.190049 0.0591,1.045058 -0.12396,1.066433 -0.0974,1.03288 -0.81661,1.03375 -0.69514,8.41e-4 -0.62706,-0.0215 -0.7492,0.24583 -0.0579,0.126751 -0.18266,0.354387 -0.27724,0.505861 -0.0946,0.151474 -0.17391,0.292397 -0.17633,0.313162 -0.003,0.0207 0.0329,0.09613 0.0783,0.167479 0.28077,0.44032 0.43097,0.693913 0.46234,0.780663 0.074,0.204568 0.0317,0.255186 -0.68793,0.82401 -0.84357,0.666771 -0.80294,0.658962 -1.22969,0.236283 -0.12616,-0.124956 -0.24779,-0.245829 -0.2703,-0.268614 -0.12987,-0.131467 -0.24287,-0.230402 -0.26624,-0.233123 -0.0147,-0.0017 -0.12798,0.03238 -0.25168,0.07574 -0.21229,0.07443 -0.59402,0.177737 -0.79636,0.215516 -0.10843,0.02025 -0.1148,0.03618 -0.25582,0.639084 -0.0545,0.232874 -0.12336,0.459522 -0.15311,0.503666 -0.0986,0.146252 -0.18725,0.150433 -1.04608,0.04931 -0.57512,-0.06775 -0.80244,-0.104796 -0.86479,-0.141039 z m 1.89848,-2.741257 c 1.07427,-0.141111 1.93891,-0.822911 2.35954,-1.860576 0.12898,-0.318209 0.21353,-1.038799 0.16136,-1.372771 -0.0544,-0.346329 -0.11182,-0.552223 -0.22177,-0.795282 -0.34221,-0.756513 -0.92136,-1.297653 -1.69194,-1.580904 -0.3424,-0.125857 -0.96677,-0.19217 -1.33764,-0.142042 -0.97011,0.131092 -1.80641,0.734467 -2.23122,1.609772 -0.22691,0.467554 -0.32342,0.983083 -0.28093,1.500258 0.0256,0.311255 0.0396,0.376333 0.15933,0.740972 0.26006,0.792127 0.96235,1.481875 1.80564,1.773408 0.33949,0.117362 0.91587,0.174827 1.27785,0.127196 z"
       id="path4256-1" /><path
       style="fill:#ffffff;fill-opacity:1;stroke-width:0.68417"
       d="m 356.43959,26.545085 c -0.15222,-0.103539 -0.16941,-0.170721 -0.14906,-0.582385 0.0105,-0.21296 0.0251,-0.520804 0.0323,-0.684117 l 0.0131,-0.296923 -0.31002,-0.178616 c -0.1705,-0.09824 -0.43928,-0.276786 -0.59728,-0.39677 l -0.28728,-0.218151 -0.51978,0.2757 c -0.65128,0.345471 -0.71893,0.368429 -0.88988,0.301998 -0.11398,-0.04429 -0.20755,-0.161981 -0.69014,-0.868056 -0.46832,-0.685189 -0.55815,-0.8381 -0.55739,-0.948847 0.001,-0.18202 0.0776,-0.274047 0.60464,-0.728079 l 0.44526,-0.383637 -0.0973,-0.344968 c -0.0535,-0.189738 -0.1193,-0.504497 -0.14622,-0.699473 l -0.0489,-0.354501 -0.13244,-0.04909 c -0.0729,-0.02699 -0.34756,-0.117433 -0.61049,-0.200958 -0.26293,-0.08352 -0.51686,-0.182127 -0.56429,-0.2191 -0.17151,-0.133688 -0.17011,-0.204806 0.0242,-1.235972 0.12193,-0.646907 0.19608,-0.969562 0.23575,-1.02588 0.12206,-0.17325 0.21461,-0.181 1.25742,-0.105305 0.15449,0.0112 0.29528,0.0095 0.31287,-0.0037 0.0176,-0.01325 0.10062,-0.149584 0.18453,-0.302963 0.0839,-0.153375 0.24729,-0.404728 0.36309,-0.558557 0.11581,-0.153827 0.21338,-0.294568 0.21681,-0.312755 0.006,-0.03269 -0.24996,-0.557232 -0.44772,-0.916948 -0.12801,-0.23283 -0.15331,-0.370172 -0.0955,-0.518431 0.0367,-0.09399 0.20248,-0.223475 0.86567,-0.67588 1.02083,-0.696365 1.01899,-0.696037 1.4121,-0.24776 0.45527,0.519153 0.63365,0.709776 0.67071,0.716762 0.022,0.0041 0.15638,-0.02599 0.29873,-0.06695 0.2409,-0.06933 0.70991,-0.162532 0.96479,-0.191723 0.12155,-0.01392 0.0914,0.05321 0.42893,-0.954516 0.13668,-0.408109 0.1896,-0.47274 0.40179,-0.490743 0.19164,-0.01626 1.85057,0.305317 1.99193,0.386127 0.17501,0.100047 0.19876,0.22959 0.15252,0.831952 -0.0612,0.79736 -0.0877,0.716812 0.31198,0.946874 0.18766,0.108011 0.44399,0.275297 0.56963,0.371751 0.12563,0.09645 0.24545,0.178579 0.26627,0.182502 0.0339,0.0064 0.34776,-0.145038 0.93357,-0.450335 0.46853,-0.244181 0.48346,-0.234311 1.17375,0.776342 0.70974,1.039121 0.70874,1.031927 0.20333,1.461222 -0.57214,0.485991 -0.65554,0.561862 -0.6634,0.603534 -0.005,0.02404 0.0338,0.204478 0.0852,0.400955 0.0514,0.196475 0.11138,0.499031 0.13329,0.672357 0.0219,0.173322 0.042,0.320259 0.0445,0.326533 0.003,0.0064 0.27808,0.09555 0.61222,0.198406 0.33413,0.102846 0.64627,0.217304 0.69364,0.254345 0.1736,0.135716 0.17215,0.238855 -0.0175,1.245284 -0.2366,1.2553 -0.20231,1.2177 -1.05594,1.158386 -0.82509,-0.05733 -0.74242,-0.07813 -0.90981,0.228901 -0.0793,0.145579 -0.24654,0.405276 -0.37148,0.577121 -0.12495,0.171841 -0.23095,0.332437 -0.23556,0.356879 -0.005,0.02443 0.0309,0.116845 0.0789,0.205348 0.29629,0.546152 0.45326,0.859733 0.48322,0.965323 0.0706,0.249002 0.0162,0.305533 -0.88561,0.920255 -1.05714,0.720574 -1.00827,0.71472 -1.47929,0.177249 -0.13924,-0.158888 -0.27346,-0.312554 -0.29826,-0.34148 -0.14311,-0.166932 -0.26891,-0.293834 -0.29643,-0.299021 -0.0173,-0.0033 -0.15461,0.02768 -0.30506,0.06878 -0.2582,0.07052 -0.71993,0.161104 -0.96324,0.188963 -0.13039,0.01493 -0.13929,0.03331 -0.35725,0.737034 -0.0842,0.271803 -0.18497,0.535033 -0.22397,0.584926 -0.12924,0.165311 -0.23486,0.16283 -1.24569,-0.02925 -0.67689,-0.128683 -0.94358,-0.191691 -1.01454,-0.239962 z m 2.48323,-3.094164 c 1.28683,-0.07734 2.37023,-0.813987 2.95653,-2.010247 0.17979,-0.366844 0.34059,-1.214983 0.30639,-1.615793 -0.0355,-0.415607 -0.0864,-0.664786 -0.19647,-0.962486 -0.34269,-0.926587 -0.98463,-1.617432 -1.87543,-2.018267 -0.39582,-0.178104 -1.13129,-0.309189 -1.57566,-0.280828 -1.16237,0.07419 -2.20557,0.720132 -2.7832,1.723344 -0.30855,0.53588 -0.46634,1.139636 -0.45921,1.757036 0.004,0.371565 0.0154,0.449979 0.12694,0.892797 0.24218,0.961955 1.01781,1.839508 1.99421,2.256276 0.39308,0.167779 1.07236,0.284234 1.50595,0.258178 z"
       id="path4256-1-8-9" /><rect
       style="font-variation-settings:normal;fill:#ffffff;fill-opacity:1;stroke:none;stroke-width:13.6835;stroke-linecap:round;stroke-linejoin:round;stroke-miterlimit:4;stroke-dasharray:none;stroke-dashoffset:0;stroke-opacity:1;stop-color:#000000"
       id="rect24426"
       width="12.457413"
       height="12.457413"
       x="353.25241"
       y="28.874289"
       ry="5.6028881"
       rx="5.6028881" /><text
       xml:space="preserve"
       style="font-style:normal;font-weight:normal;font-size:9.06636px;line-height:1.25;font-family:sans-serif;fill:#de3b38;fill-opacity:1;stroke:none;stroke-width:0.684175"
       x="354.48523"
       y="37.494022"
       id="text24706"><tspan
         sodipodi:role="line"
         id="tspan24704"
         x="354.48523"
         y="37.494022"
         style="font-style:normal;font-variant:normal;font-weight:bold;font-stretch:normal;font-size:9.06636px;font-family:Roboto;-inkscape-font-specification:'Roboto Bold';fill:#de3b38;fill-opacity:1;stroke-width:0.684175">.js</tspan></text></g><text
     xml:space="preserve"
     style="font-style:normal;font-weight:normal;font-size:40px;line-height:1.25;font-family:sans-serif;fill:#ffffff;fill-opacity:1;stroke:none;stroke-width:0.999998"
     x="11.523982"
     y="41.034603"
     id="text1624"><tspan
       sodipodi:role="line"
       id="tspan1622"
       x="11.523982"
       y="41.034603"
       style="font-style:normal;font-variant:normal;font-weight:bold;font-stretch:normal;font-size:40px;font-family:roboto;-inkscape-font-specification:'roboto Bold';fill:#ffffff;fill-opacity:1;stroke-width:0.999998">Tissot</tspan></text><text
     xml:space="preserve"
     style="font-style:normal;font-weight:normal;font-size:20px;line-height:1.25;font-family:sans-serif;fill:#000000;fill-opacity:1;stroke:none"
     x="130.49556"
     y="293.3364"
     id="text6596"><tspan
       sodipodi:role="line"
       id="tspan6594"
       x="130.49556"
       y="293.3364"
       style="font-style:normal;font-variant:normal;font-weight:normal;font-stretch:normal;font-size:20px;font-family:'Courier New';-inkscape-font-specification:'Courier New'">tissot(step)</tspan></text><path
     style="fill:#ffffff;fill-opacity:1;stroke:none;stroke-width:0.461654"
     d="m 269.72579,140.28053 c 0,0 0,0 0,0 0,0 0,0 0,0 0,0 0,0 0,0"
     id="path42112" /><path
     style="fill:#ffffff;fill-opacity:1;stroke:none;stroke-width:0.461654"
     d="m 331.20072,137.80608 c 0,0 0,0 0,0 0,0 0,0 0,0 0,0 0,0 0,0"
     id="path42110" /><path
     style="fill:#ffffff;fill-opacity:1;stroke:none;stroke-width:0.461654"
     d="m 157.38874,81.700229 c 0,0 0,0 0,0 0,0 0,0 0,0 0,0 0,0 0,0"
     id="path42108" /><path
     style="fill:#ffffff;fill-opacity:1;stroke:none;stroke-width:0.461654"
     d="m 181.42304,107.21999 c -1.25153,-0.057 -3.47724,-0.65879 -3.555,-1.42658 -0.0778,-0.7678 1.99242,-1.70159 3.24395,-1.64459 1.25152,0.057 1.68439,1.10476 1.76216,1.87255 0.0778,0.7678 -0.19958,1.25562 -1.45111,1.19862"
     id="path42106" /><path
     style="fill:#ffffff;fill-opacity:1;stroke:none;stroke-width:0.461654"
     d="m 182.56901,102.62968 c 0,0 0,0 0,0 0,0 0,0 0,0 0,0 0,0 0,0"
     id="path42104" /><path
     style="fill:#ffffff;fill-opacity:1;stroke:none;stroke-width:0.461654"
     d="m 180.27171,100.18789 c 0,0 0,0 0,0 0,0 0,0 0,0 0,0 0,0 0,0"
     id="path42102" /><path
     style="fill:#ffffff;fill-opacity:1;stroke:none;stroke-width:0.461654"
     d="m 181.09602,98.685925 c 0,0 0,0 0,0 0,0 0,0 0,0 0,0 0,0 0,0"
     id="path42100" /><path
     style="fill:#ffffff;fill-opacity:1;stroke:none;stroke-width:0.461654"
     d="m 178.82367,101.51905 c 0,0 0,0 0,0 0,0 0,0 0,0 0,0 0,0 0,0"
     id="path42098" /><path
     style="fill:#ffffff;fill-opacity:1;stroke:none;stroke-width:0.461654"
     d="m 179.69684,98.445307 c 0,0 0,0 0,0 0,0 0,0 0,0 0,0 0,0 0,0"
     id="path42096" /><path
     style="fill:#ffffff;fill-opacity:1;stroke:none;stroke-width:0.461654"
     d="m 180.12915,96.774979 c 0,0 0,0 0,0 0,0 0,0 0,0 0,0 0,0 0,0"
     id="path42094" /><path
     style="fill:#ffffff;fill-opacity:1;stroke:none;stroke-width:0.461654"
     d="m 176.93218,101.43977 c 0,0 0,0 0,0 0,0 0,0 0,0 0,0 0,0 0,0"
     id="path42092" /><path
     style="fill:#ffffff;fill-opacity:1;stroke:none;stroke-width:0.461654"
     d="m 178.31257,98.099238 c 0,0 0,0 0,0 0,0 0,0 0,0 0,0 0,0 0,0"
     id="path42090" /><path
     style="fill:#ffffff;fill-opacity:1;stroke:none;stroke-width:0.461654"
     d="m 176.84874,100.57094 c 0,0 0,0 0,0 0,0 0,0 0,0 0,0 0,0 0,0"
     id="path42088" /><path
     style="fill:#ffffff;fill-opacity:1;stroke:none;stroke-width:0.461654"
     d="m 175.26799,101.46484 c 0,0 0,0 0,0 0,0 0,0 0,0 0,0 0,0 0,0"
     id="path42086" /><path
     style="fill:#ffffff;fill-opacity:1;stroke:none;stroke-width:0.461654"
     d="m 178.64841,93.818328 c 0,0 0,0 0,0 0,0 0,0 0,0 0,0 0,0 0,0"
     id="path42084" /><path
     style="fill:#ffffff;fill-opacity:1;stroke:none;stroke-width:0.461654"
     d="m 173.38599,101.82049 c 0,0 0,0 0,0 0,0 0,0 0,0 0,0 0,0 0,0"
     id="path42082" /><path
     style="fill:#ffffff;fill-opacity:1;stroke:none;stroke-width:0.461654"
     d="m 173.9484,99.606864 c 0,0 0,0 0,0 0,0 0,0 0,0 0,0 0,0 0,0"
     id="path42080" /><path
     style="fill:#ffffff;fill-opacity:1;stroke:none;stroke-width:0.461654"
     d="m 169.55624,108.41295 c -0.64096,-0.0767 -0.68089,-2.59203 -0.0599,-3.77303 0.62099,-1.18099 1.90291,-1.02764 1.92288,0.23004 0.0199,1.25768 -1.22203,3.61967 -1.86299,3.54299"
     id="path42078" /><path
     style="fill:#ffffff;fill-opacity:1;stroke:none;stroke-width:0.461654"
     d="m 172.46873,105.50698 c 0,0 0,0 0,0 0,0 0,0 0,0 0,0 0,0 0,0"
     id="path42076" /><path
     style="fill:#ffffff;fill-opacity:1;stroke:none;stroke-width:0.461654"
     d="m 175.83003,95.109781 c 0,0 0,0 0,0 0,0 0,0 0,0 0,0 0,0 0,0"
     id="path42074" /><path
     style="fill:#ffffff;fill-opacity:1;stroke:none;stroke-width:0.461654"
     d="m 169.65423,99.366061 c 0,0 0,0 0,0 0,0 0,0 0,0 0,0 0,0 0,0"
     id="path42072" /><path
     style="fill:#ffffff;fill-opacity:1;stroke:none;stroke-width:0.461654"
     d="m 166.45592,108.92682 c 0,0 0,0 0,0 0,0 0,0 0,0 0,0 0,0 0,0"
     id="path42070" /><path
     style="fill:#ffffff;fill-opacity:1;stroke:none;stroke-width:0.461654"
     d="m 163.08303,105.46864 c 0,0 0,0 0,0 0,0 0,0 0,0 0,0 0,0 0,0"
     id="path42068" /><path
     style="fill:#ffffff;fill-opacity:1;stroke:none;stroke-width:0.461654"
     d="m 159.70303,108.11266 c 0,0 0,0 0,0 0,0 0,0 0,0 0,0 0,0 0,0"
     id="path42066" /><path
     style="fill:#ffffff;fill-opacity:1;stroke:none;stroke-width:0.461654"
     d="m 164.88715,79.506216 c 0,0 0,0 0,0 0,0 0,0 0,0 0,0 0,0 0,0"
     id="path42064" /><path
     style="fill:#ffffff;fill-opacity:1;stroke:none;stroke-width:0.461654"
     d="m 151.01888,129.74395 c 0,0 0,0 0,0 0,0 0,0 0,0 0,0 0,0 0,0"
     id="path42062" /><path
     style="fill:#ffffff;fill-opacity:1;stroke:none;stroke-width:0.461654"
     d="m 145.22372,130.46682 c 0,0 0,0 0,0 0,0 0,0 0,0 0,0 0,0 0,0"
     id="path42060" /><path
     style="fill:#ffffff;fill-opacity:1;stroke:none;stroke-width:0.461654"
     d="m 144.03996,127.94921 c 0,0 0,0 0,0 0,0 0,0 0,0 0,0 0,0 0,0"
     id="path42058" /><path
     style="fill:#ffffff;fill-opacity:1;stroke:none;stroke-width:0.461654"
     d="m 327.8672,127.06069 c 0,0 0,0 0,0 0,0 0,0 0,0 0,0 0,0 0,0"
     id="path42056" /><path
     style="fill:#ffffff;fill-opacity:1;stroke:none;stroke-width:0.461654"
     d="m 195.88537,77.670159 c 0,0 0,0 0,0 0,0 0,0 0,0 0,0 0,0 0,0"
     id="path42054" /><path
     style="fill:#ffffff;fill-opacity:1;stroke:none;stroke-width:0.461654"
     d="m 192.85433,73.889991 c 0,0 0,0 0,0 0,0 0,0 0,0 0,0 0,0 0,0"
     id="path42052" /><path
     style="fill:#ffffff;fill-opacity:1;stroke:none;stroke-width:0.461654"
     d="m 170.99133,79.810561 c 0,0 0,0 0,0 0,0 0,0 0,0 0,0 0,0 0,0"
     id="path42050" /><path
     style="fill:#ffffff;fill-opacity:1;stroke:none;stroke-width:0.461654"
     d="m 171.08456,79.630571 c 0,0 0,0 0,0 0,0 0,0 0,0 0,0 0,0 0,0"
     id="path42048" /><path
     style="fill:#ffffff;fill-opacity:1;stroke:none;stroke-width:0.461654"
     d="m 183.36318,72.865134 c 0,0 0,0 0,0 0,0 0,0 0,0 0,0 0,0 0,0"
     id="path42046" /><path
     style="fill:#ffffff;fill-opacity:1;stroke:none;stroke-width:0.461654"
     d="m 170.29959,79.246568 c 0,0 0,0 0,0 0,0 0,0 0,0 0,0 0,0 0,0"
     id="path42044" /><path
     style="fill:#ffffff;fill-opacity:1;stroke:none;stroke-width:0.461654"
     d="m 168.16333,79.97755 c 0,0 0,0 0,0 0,0 0,0 0,0 0,0 0,0 0,0"
     id="path42042" /><path
     style="fill:#ffffff;fill-opacity:1;stroke:none;stroke-width:0.461654"
     d="m 191.33444,68.646312 c 0,0 0,0 0,0 0,0 0,0 0,0 0,0 0,0 0,0"
     id="path42040" /><path
     style="fill:#ffffff;fill-opacity:1;stroke:none;stroke-width:0.461654"
     d="m 108.7696,68.917469 c 0,0 0,0 0,0 0,0 0,0 0,0 0,0 0,0 0,0"
     id="path42038" /><path
     style="fill:#ffffff;fill-opacity:1;stroke:none;stroke-width:0.461654"
     d="m 268.17318,125.69747 c 0,0 0,0 0,0 0,0 0,0 0,0 0,0 0,0 0,0"
     id="path42036" /><path
     style="fill:#ffffff;fill-opacity:1;stroke:none;stroke-width:0.461654"
     d="m 115.67733,164.55828 c 0,0 0,0 0,0 0,0 0,0 0,0 0,0 0,0 0,0"
     id="path42034" /><path
     style="fill:#ffffff;fill-opacity:1;stroke:none;stroke-width:0.461654"
     d="m 316.0722,123.00568 c 0,0 0,0 0,0 0,0 0,0 0,0 0,0 0,0 0,0"
     id="path42032" /><path
     style="fill:#ffffff;fill-opacity:1;stroke:none;stroke-width:0.461654"
     d="m 317.76316,122.01502 c 0,0 0,0 0,0 0,0 0,0 0,0 0,0 0,0 0,0"
     id="path42030" /><path
     style="fill:#ffffff;fill-opacity:1;stroke:none;stroke-width:0.461654"
     d="m 318.53452,124.65578 c 0,0 0,0 0,0 0,0 0,0 0,0 0,0 0,0 0,0"
     id="path42028" /><path
     style="fill:#ffffff;fill-opacity:1;stroke:none;stroke-width:0.461654"
     d="m 320.07671,123.71343 c 0,0 0,0 0,0 0,0 0,0 0,0 0,0 0,0 0,0"
     id="path42026" /><path
     style="fill:#ffffff;fill-opacity:1;stroke:none;stroke-width:0.461654"
     d="m 116.62453,151.08859 c 0,0 0,0 0,0 0,0 0,0 0,0 0,0 0,0 0,0"
     id="path42024" /><path
     style="fill:#ffffff;fill-opacity:1;stroke:none;stroke-width:0.461654"
     d="m 307.8621,123.91243 c 0,0 0,0 0,0 0,0 0,0 0,0 0,0 0,0 0,0"
     id="path42022" /><path
     style="fill:#ffffff;fill-opacity:1;stroke:none;stroke-width:0.461654"
     d="m 309.96852,124.62794 c 0,0 0,0 0,0 0,0 0,0 0,0 0,0 0,0 0,0"
     id="path42020" /><path
     style="fill:#ffffff;fill-opacity:1;stroke:none;stroke-width:0.461654"
     d="m 312.31612,123.77628 c 0,0 0,0 0,0 0,0 0,0 0,0 0,0 0,0 0,0"
     id="path42018" /><path
     style="fill:#ffffff;fill-opacity:1;stroke:none;stroke-width:0.461654"
     d="m 275.23745,132.19305 c 0,0 0,0 0,0 0,0 0,0 0,0 0,0 0,0 0,0"
     id="path42016" /><path
     style="fill:#ffffff;fill-opacity:1;stroke:none;stroke-width:0.461654"
     d="m 280.64927,136.77246 c 0,0 0,0 0,0 0,0 0,0 0,0 0,0 0,0 0,0"
     id="path42014" /><path
     style="fill:#ffffff;fill-opacity:1;stroke:none;stroke-width:0.461654"
     d="m 282.85854,133.89769 c 0,0 0,0 0,0 0,0 0,0 0,0 0,0 0,0 0,0"
     id="path42012" /><path
     style="fill:#ffffff;fill-opacity:1;stroke:none;stroke-width:0.461654"
     d="m 282.69372,137.23211 c 0,0 0,0 0,0 0,0 0,0 0,0 0,0 0,0 0,0"
     id="path42010" /><path
     style="fill:#ffffff;fill-opacity:1;stroke:none;stroke-width:0.461654"
     d="m 283.82976,135.44427 c 0,0 0,0 0,0 0,0 0,0 0,0 0,0 0,0 0,0"
     id="path42008" /><path
     style="fill:#ffffff;fill-opacity:1;stroke:none;stroke-width:0.461654"
     d="m 281.94783,139.90739 c 0,0 0,0 0,0 0,0 0,0 0,0 0,0 0,0 0,0"
     id="path42006" /><path
     style="fill:#ffffff;fill-opacity:1;stroke:none;stroke-width:0.461654"
     d="m 284.0357,136.23888 c 0,0 0,0 0,0 0,0 0,0 0,0 0,0 0,0 0,0"
     id="path42004" /><path
     style="fill:#ffffff;fill-opacity:1;stroke:none;stroke-width:0.461654"
     d="m 283.85305,137.04957 c 0,0 0,0 0,0 0,0 0,0 0,0 0,0 0,0 0,0"
     id="path42002" /><path
     style="fill:#ffffff;fill-opacity:1;stroke:none;stroke-width:0.461654"
     d="m 286.13467,136.06285 c 0,0 0,0 0,0 0,0 0,0 0,0 0,0 0,0 0,0"
     id="path42000" /><path
     style="fill:#ffffff;fill-opacity:1;stroke:none;stroke-width:0.461654"
     d="m 346.17711,155.47721 c 0,0 0,0 0,0 0,0 0,0 0,0 0,0 0,0 0,0"
     id="path41998" /><path
     style="fill:#ffffff;fill-opacity:1;stroke:none;stroke-width:0.461654"
     d="m 347.91338,165.23243 c 0,0 0,0 0,0 0,0 0,0 0,0 0,0 0,0 0,0"
     id="path41996" /><path
     style="fill:#ffffff;fill-opacity:1;stroke:none;stroke-width:0.461654"
     d="m 192.36193,116.43805 c 0,0 0,0 0,0 0,0 0,0 0,0 0,0 0,0 0,0"
     id="path41994" /><path
     style="fill:#ffffff;fill-opacity:1;stroke:none;stroke-width:0.461654"
     d="m 191.19075,117.10172 c 0,0 0,0 0,0 0,0 0,0 0,0 0,0 0,0 0,0"
     id="path41992" /><path
     style="fill:#ffffff;fill-opacity:1;stroke:none;stroke-width:0.461654"
     d="m 192.54382,118.82555 c 0,0 0,0 0,0 0,0 0,0 0,0 0,0 0,0 0,0"
     id="path41990" /><path
     style="fill:#ffffff;fill-opacity:1;stroke:none;stroke-width:0.461654"
     d="m 228.6835,230.05139 c -1.02122,1.37375 -2.69475,-0.49391 -2.51028,-2.80149 0.18446,-2.30758 2.2269,-5.05508 3.06367,-4.12125 0.83676,0.93383 0.46784,5.54899 -0.55339,6.92274"
     id="path41988" /><path
     style="fill:#ffffff;fill-opacity:1;stroke:none;stroke-width:0.461654"
     d="m 256.80103,176.00654 c 0,0 0,0 0,0 0,0 0,0 0,0 0,0 0,0 0,0"
     id="path41986" /><path
     style="fill:#ffffff;fill-opacity:1;stroke:none;stroke-width:0.461654"
     d="m 240.91045,95.626154 c 0,0 0,0 0,0 0,0 0,0 0,0 0,0 0,0 0,0"
     id="path41984" /><path
     style="fill:#ffffff;fill-opacity:1;stroke:none;stroke-width:0.461654"
     d="m 246.84299,97.541315 c 0,0 0,0 0,0 0,0 0,0 0,0 0,0 0,0 0,0"
     id="path41982" /><path
     style="fill:#ffffff;fill-opacity:1;stroke:none;stroke-width:0.461654"
     d="m 257.77262,107.26529 c 0,0 0,0 0,0 0,0 0,0 0,0 0,0 0,0 0,0"
     id="path41980" /><path
     style="fill:#ffffff;fill-opacity:1;stroke:none;stroke-width:0.461654"
     d="m 258.70076,110.56309 c 0,0 0,0 0,0 0,0 0,0 0,0 0,0 0,0 0,0"
     id="path41978" /><path
     style="fill:#ffffff;fill-opacity:1;stroke:none;stroke-width:0.461654"
     d="m 111.40675,142.74183 c 0,0 0,0 0,0 0,0 0,0 0,0 0,0 0,0 0,0"
     id="path41976" /><path
     style="fill:#ffffff;fill-opacity:1;stroke:none;stroke-width:0.461654"
     d="m 177.72654,129.87183 c 0,0 0,0 0,0 0,0 0,0 0,0 0,0 0,0 0,0"
     id="path41974" /><path
     style="fill:#ffffff;fill-opacity:1;stroke:none;stroke-width:0.461654"
     d="m 264.61705,162.40843 c 0,0 0,0 0,0 0,0 0,0 0,0 0,0 0,0 0,0"
     id="path41972" /><path
     style="fill:#ffffff;fill-opacity:1;stroke:none;stroke-width:0.461654"
     d="m 271.59423,167.8197 c 0,0 0,0 0,0 0,0 0,0 0,0 0,0 0,0 0,0"
     id="path41970" /><path
     style="fill:#ffffff;fill-opacity:1;stroke:none;stroke-width:0.461654"
     d="m 294.63734,141.44812 c 0,0 0,0 0,0 0,0 0,0 0,0 0,0 0,0 0,0"
     id="path41968" /><path
     style="fill:#ffffff;fill-opacity:1;stroke:none;stroke-width:0.461654"
     d="m 293.3909,144.69746 c 0,0 0,0 0,0 0,0 0,0 0,0 0,0 0,0 0,0"
     id="path41966" /><path
     style="fill:#ffffff;fill-opacity:1;stroke:none;stroke-width:0.461654"
     d="m 275.44898,170.06104 c 0,0 0,0 0,0 0,0 0,0 0,0 0,0 0,0 0,0"
     id="path41964" /><path
     style="fill:#ffffff;fill-opacity:1;stroke:none;stroke-width:0.461654"
     d="m 304.7924,136.05509 c -0.0546,-1.66897 2.71294,-3.03182 4.15132,-2.04427 1.43837,0.98754 1.54757,4.32548 0.1638,5.0069 -1.38377,0.68142 -4.26052,-1.29367 -4.31512,-2.96263"
     id="path41962" /><path
     style="fill:#ffffff;fill-opacity:1;stroke:none;stroke-width:0.461654"
     d="m 278.08429,171.31185 c 0,0 0,0 0,0 0,0 0,0 0,0 0,0 0,0 0,0"
     id="path41960" /><path
     style="fill:#ffffff;fill-opacity:1;stroke:none;stroke-width:0.461654"
     d="m 283.88299,165.74141 c 0,0 0,0 0,0 0,0 0,0 0,0 0,0 0,0 0,0"
     id="path41958" /><path
     style="fill:#ffffff;fill-opacity:1;stroke:none;stroke-width:0.461654"
     d="m 301.13314,138.13865 c 0,0 0,0 0,0 0,0 0,0 0,0 0,0 0,0 0,0"
     id="path41956" /><path
     style="fill:#ffffff;fill-opacity:1;stroke:none;stroke-width:0.461654"
     d="m 295.94785,148.66806 c 0,0 0,0 0,0 0,0 0,0 0,0 0,0 0,0 0,0"
     id="path41954" /><path
     style="fill:#ffffff;fill-opacity:1;stroke:none;stroke-width:0.461654"
     d="m 286.00152,165.0264 c 0,0 0,0 0,0 0,0 0,0 0,0 0,0 0,0 0,0"
     id="path41952" /><path
     style="fill:#ffffff;fill-opacity:1;stroke:none;stroke-width:0.461654"
     d="m 299.35492,145.65139 c 0,0 0,0 0,0 0,0 0,0 0,0 0,0 0,0 0,0"
     id="path41950" /><path
     style="fill:#ffffff;fill-opacity:1;stroke:none;stroke-width:0.461654"
     d="m 298.58742,147.92062 c 0,0 0,0 0,0 0,0 0,0 0,0 0,0 0,0 0,0"
     id="path41948" /><path
     style="fill:#ffffff;fill-opacity:1;stroke:none;stroke-width:0.461654"
     d="m 304.28682,143.32027 c 0,0 0,0 0,0 0,0 0,0 0,0 0,0 0,0 0,0"
     id="path41946" /><path
     style="fill:#ffffff;fill-opacity:1;stroke:none;stroke-width:0.461654"
     d="m 286.8582,170.07192 c 0,0 0,0 0,0 0,0 0,0 0,0 0,0 0,0 0,0"
     id="path41944" /><path
     style="fill:#ffffff;fill-opacity:1;stroke:none;stroke-width:0.461654"
     d="m 293.87955,162.95658 c 0,0 0,0 0,0 0,0 0,0 0,0 0,0 0,0 0,0"
     id="path41942" /><path
     style="fill:#ffffff;fill-opacity:1;stroke:none;stroke-width:0.461654"
     d="m 308.59082,142.79627 c 0,0 0,0 0,0 0,0 0,0 0,0 0,0 0,0 0,0"
     id="path41940" /><path
     style="fill:#ffffff;fill-opacity:1;stroke:none;stroke-width:0.461654"
     d="m 295.02429,163.81716 c 0,0 0,0 0,0 0,0 0,0 0,0 0,0 0,0 0,0"
     id="path41938" /><path
     style="fill:#ffffff;fill-opacity:1;stroke:none;stroke-width:0.461654"
     d="m 300.54415,155.84519 c 0,0 0,0 0,0 0,0 0,0 0,0 0,0 0,0 0,0"
     id="path41936" /><path
     style="fill:#ffffff;fill-opacity:1;stroke:none;stroke-width:0.461654"
     d="m 296.70986,161.51541 c 0,0 0,0 0,0 0,0 0,0 0,0 0,0 0,0 0,0"
     id="path41934" /><path
     style="fill:#ffffff;fill-opacity:1;stroke:none;stroke-width:0.461654"
     d="m 296.05435,162.77775 c 0,0 0,0 0,0 0,0 0,0 0,0 0,0 0,0 0,0"
     id="path41932" /><path
     style="fill:#ffffff;fill-opacity:1;stroke:none;stroke-width:0.461654"
     d="m 301.53332,156.5394 c 0,0 0,0 0,0 0,0 0,0 0,0 0,0 0,0 0,0"
     id="path41930" /><path
     style="fill:#ffffff;fill-opacity:1;stroke:none;stroke-width:0.461654"
     d="m 298.90798,160.99101 c 0,0 0,0 0,0 0,0 0,0 0,0 0,0 0,0 0,0"
     id="path41928" /><path
     style="fill:#ffffff;fill-opacity:1;stroke:none;stroke-width:0.461654"
     d="m 183.76252,115.69648 c -1.3436,2.38939 -3.7377,5.70592 -7.44376,7.39513 -3.70607,1.68921 -8.72411,1.75112 -9.07152,-0.55138 -0.34741,-2.30248 3.9758,-6.96937 6.52996,-9.98272 2.55416,-3.01335 3.33927,-4.37316 4.35213,-4.84184 1.01286,-0.46867 2.25346,-0.0462 3.55193,0.54679 1.29846,0.59301 2.65479,1.35655 3.18638,2.46945 0.53161,1.1129 0.23849,2.57517 -1.10512,4.96457"
     id="path41926" /><path
     style="fill:#ffffff;fill-opacity:1;stroke:none;stroke-width:0.461654"
     d="m 177.0534,123.55385 c 0,0 0,0 0,0 0,0 0,0 0,0 0,0 0,0 0,0"
     id="path41924" /><path
     style="fill:#ffffff;fill-opacity:1;stroke:none;stroke-width:0.461654"
     d="m 170.10941,116.64006 c 0,0 0,0 0,0 0,0 0,0 0,0 0,0 0,0 0,0"
     id="path41922" /><path
     style="fill:#ffffff;fill-opacity:1;stroke:none;stroke-width:0.461654"
     d="m 196.7585,167.13542 c 0,0 0,0 0,0 0,0 0,0 0,0 0,0 0,0 0,0"
     id="path41920" /><path
     style="fill:#ffffff;fill-opacity:1;stroke:none;stroke-width:0.461654"
     d="m 197.4671,171.45044 c 0,0 0,0 0,0 0,0 0,0 0,0 0,0 0,0 0,0"
     id="path41918" /><path
     style="fill:#ffffff;fill-opacity:1;stroke:none;stroke-width:0.461654"
     d="m 180.29292,141.33409 c 0,0 0,0 0,0 0,0 0,0 0,0 0,0 0,0 0,0"
     id="path41916" /><path
     style="fill:#ffffff;fill-opacity:1;stroke:none;stroke-width:0.461654"
     d="m 176.98393,144.92797 c 0,0 0,0 0,0 0,0 0,0 0,0 0,0 0,0 0,0"
     id="path41914" /><path
     style="fill:#ffffff;fill-opacity:1;stroke:none;stroke-width:0.461654"
     d="m 85.245595,222.5042 c 0,0 0,0 0,0 0,0 0,0 0,0 0,0 0,0 0,0"
     id="path41912" /><path
     style="fill:#ffffff;fill-opacity:1;stroke:none;stroke-width:0.461654"
     d="m 84.956697,222.27113 c 0,0 0,0 0,0 0,0 0,0 0,0 0,0 0,0 0,0"
     id="path41910" /><path
     style="fill:#ffffff;fill-opacity:1;stroke:none;stroke-width:0.461654"
     d="m 335.76814,122.69056 c 0,0 0,0 0,0 0,0 0,0 0,0 0,0 0,0 0,0"
     id="path41908" /><path
     style="fill:#ffffff;fill-opacity:1;stroke:none;stroke-width:0.461654"
     d="m 335.25604,119.22606 c 0,0 0,0 0,0 0,0 0,0 0,0 0,0 0,0 0,0"
     id="path41906" /><path
     style="fill:#ffffff;fill-opacity:1;stroke:none;stroke-width:0.461654"
     d="m 114.99677,145.96859 c 0,0 0,0 0,0 0,0 0,0 0,0 0,0 0,0 0,0"
     id="path41904" /><path
     style="fill:#ffffff;fill-opacity:1;stroke:none;stroke-width:0.461654"
     d="m 113.48867,142.84369 c 0,0 0,0 0,0 0,0 0,0 0,0 0,0 0,0 0,0"
     id="path41902" /><path
     style="fill:#ffffff;fill-opacity:1;stroke:none;stroke-width:0.461654"
     d="m 78.06545,205.69378 c 0,0 0,0 0,0 0,0 0,0 0,0 0,0 0,0 0,0"
     id="path41900" /><path
     style="fill:#ffffff;fill-opacity:1;stroke:none;stroke-width:0.461654"
     d="m 75.464544,212.97919 c 0,0 0,0 0,0 0,0 0,0 0,0 0,0 0,0 0,0"
     id="path41898" /><path
     style="fill:#ffffff;fill-opacity:1;stroke:none;stroke-width:0.461654"
     d="m 75.656647,217.01854 c 0,0 0,0 0,0 0,0 0,0 0,0 0,0 0,0 0,0"
     id="path41896" /><path
     style="fill:#ffffff;fill-opacity:1;stroke:none;stroke-width:0.461654"
     d="m 79.075299,221.51334 c 0,0 0,0 0,0 0,0 0,0 0,0 0,0 0,0 0,0"
     id="path41894" /><path
     style="fill:#ffffff;fill-opacity:1;stroke:none;stroke-width:0.461654"
     d="m 285.76546,151.00557 c 1.36493,-0.005 3.96953,3.83455 3.9069,5.76008 -0.0626,1.92553 -2.79249,1.93653 -4.09479,0.0165 -1.3023,-1.92004 -1.17704,-5.77109 0.18789,-5.77659"
     id="path41892" /><path
     style="fill:#ffffff;fill-opacity:1;stroke:none;stroke-width:0.461654"
     d="m 306.54083,153.68593 c 0,0 0,0 0,0 0,0 0,0 0,0 0,0 0,0 0,0"
     id="path41890" /><path
     style="fill:#ffffff;fill-opacity:1;stroke:none;stroke-width:0.461654"
     d="m 324.61491,176.85257 c 0,0 0,0 0,0 0,0 0,0 0,0 0,0 0,0 0,0 m -3.01044,-29.12122 c 2.8758,1.90684 5.649,3.90829 7.39183,6.41034 1.74283,2.50205 2.45529,5.50469 3.00398,8.51011 0.54868,3.00541 0.93358,6.0136 0.12125,8.5427 -0.81233,2.5291 -2.82189,4.57912 -5.27594,5.36376 -2.45405,0.78464 -5.35259,0.3039 -7.61045,1.38256 -2.25786,1.07866 -3.87503,3.7167 -5.63412,6.29266 -1.75909,2.57596 -3.66009,5.08982 -5.68048,4.47746 -2.02038,-0.61236 -4.16015,-4.35095 -4.56087,-8.391 -0.40072,-4.04005 0.93759,-8.38157 1.96956,-12.76958 1.03198,-4.388 1.75762,-8.82249 3.64409,-11.25844 1.88649,-2.43593 4.93381,-2.87332 5.76038,-4.88887 0.82657,-2.01554 -0.56761,-5.60925 0.22449,-6.5 0.7921,-0.89074 3.77049,0.92147 6.64628,2.8283"
     id="path41888" /><path
     style="fill:#ffffff;fill-opacity:1;stroke:none;stroke-width:0.461654"
     d="m 330.75495,178.6593 c 0,0 0,0 0,0 0,0 0,0 0,0 0,0 0,0 0,0"
     id="path41886" /><path
     style="fill:#ffffff;fill-opacity:1;stroke:none;stroke-width:0.461654"
     d="m 76.559642,231.51689 c 0,0 0,0 0,0 0,0 0,0 0,0 0,0 0,0 0,0"
     id="path41884" /><path
     style="fill:#ffffff;fill-opacity:1;stroke:none;stroke-width:0.461654"
     d="m 67.085803,227.25954 c 0,0 0,0 0,0 0,0 0,0 0,0 0,0 0,0 0,0"
     id="path41882" /><path
     style="fill:#ffffff;fill-opacity:1;stroke:none;stroke-width:0.461654"
     d="m 75.374452,232.90204 c 0,0 0,0 0,0 0,0 0,0 0,0 0,0 0,0 0,0"
     id="path41880" /><path
     style="fill:#ffffff;fill-opacity:1;stroke:none;stroke-width:0.461654"
     d="m 60.918701,226.22347 c 0,0 0,0 0,0 0,0 0,0 0,0 0,0 0,0 0,0"
     id="path41878" /><path
     style="fill:#ffffff;fill-opacity:1;stroke:none;stroke-width:0.461654"
     d="m 62.002821,226.62999 c 0,0 0,0 0,0 0,0 0,0 0,0 0,0 0,0 0,0"
     id="path41876" /><path
     style="fill:#ffffff;fill-opacity:1;stroke:none;stroke-width:0.461654"
     d="m 86.057071,242.64884 c 0,0 0,0 0,0 0,0 0,0 0,0 0,0 0,0 0,0"
     id="path41874" /><path
     style="fill:#ffffff;fill-opacity:1;stroke:none;stroke-width:0.461654"
     d="m 79.065516,238.46294 c 0,0 0,0 0,0 0,0 0,0 0,0 0,0 0,0 0,0"
     id="path41872" /><path
     style="fill:#ffffff;fill-opacity:1;stroke:none;stroke-width:0.461654"
     d="m 64.953175,234.40843 c 0,0 0,0 0,0 0,0 0,0 0,0 0,0 0,0 0,0"
     id="path41870" /><path
     style="fill:#ffffff;fill-opacity:1;stroke:none;stroke-width:0.461654"
     d="m 81.231457,240.29075 c 0,0 0,0 0,0 0,0 0,0 0,0 0,0 0,0 0,0"
     id="path41868" /><path
     style="fill:#ffffff;fill-opacity:1;stroke:none;stroke-width:0.461654"
     d="m 78.503942,218.43372 c 0,0 0,0 0,0 0,0 0,0 0,0 0,0 0,0 0,0"
     id="path41862" /><path
     style="fill:#ffffff;fill-opacity:1;stroke:none;stroke-width:0.461654"
     d="m 200.5642,107.63799 c 0,0 0,0 0,0 0,0 0,0 0,0 0,0 0,0 0,0"
     id="path41860" /><path
     style="fill:#ffffff;fill-opacity:1;stroke:none;stroke-width:0.461654"
     d="m 196.61529,114.52834 c 0,0 0,0 0,0 0,0 0,0 0,0 0,0 0,0 0,0"
     id="path41858" /><path
     style="fill:#ffffff;fill-opacity:1;stroke:none;stroke-width:0.461654"
     d="m 202.30505,107.95193 c 0,0 0,0 0,0 0,0 0,0 0,0 0,0 0,0 0,0"
     id="path41856" /><path
     style="fill:#ffffff;fill-opacity:1;stroke:none;stroke-width:0.461654"
     d="m 203.43631,107.20256 c 0,0 0,0 0,0 0,0 0,0 0,0 0,0 0,0 0,0"
     id="path41854" /><path
     style="fill:#ffffff;fill-opacity:1;stroke:none;stroke-width:0.461654"
     d="m 203.07849,116.54886 c 0,0 0,0 0,0 0,0 0,0 0,0 0,0 0,0 0,0"
     id="path41852" /><path
     style="fill:#ffffff;fill-opacity:1;stroke:none;stroke-width:0.461654"
     d="m 205.06604,98.441743 c 0,0 0,0 0,0 0,0 0,0 0,0 0,0 0,0 0,0"
     id="path41850" /><path
     style="fill:#ffffff;fill-opacity:1;stroke:none;stroke-width:0.461654"
     d="m 204.41468,96.26289 c 0,0 0,0 0,0 0,0 0,0 0,0 0,0 0,0 0,0"
     id="path41848" /><path
     style="fill:#ffffff;fill-opacity:1;stroke:none;stroke-width:0.461654"
     d="m 206.28648,96.713607 c 0,0 0,0 0,0 0,0 0,0 0,0 0,0 0,0 0,0"
     id="path41846" /><path
     style="fill:#ffffff;fill-opacity:1;stroke:none;stroke-width:0.461654"
     d="m 197.78396,85.724085 c 0,0 0,0 0,0 0,0 0,0 0,0 0,0 0,0 0,0"
     id="path41844" /><path
     style="fill:#ffffff;fill-opacity:1;stroke:none;stroke-width:0.461654"
     d="m 200.1074,80.41156 c 0,0 0,0 0,0 0,0 0,0 0,0 0,0 0,0 0,0"
     id="path41842" /><path
     style="fill:#ffffff;fill-opacity:1;stroke:none;stroke-width:0.461654"
     d="m 228.68007,93.359001 c 0,0 0,0 0,0 0,0 0,0 0,0 0,0 0,0 0,0"
     id="path41840" /><path
     style="fill:#ffffff;fill-opacity:1;stroke:none;stroke-width:0.461654"
     d="m 239.94285,224.15146 c 0,0 0,0 0,0 0,0 0,0 0,0 0,0 0,0 0,0"
     id="path41838" /><path
     style="fill:#ffffff;fill-opacity:1;stroke:none;stroke-width:0.461654"
     d="m 117.86101,160.53605 c 0,0 0,0 0,0 0,0 0,0 0,0 0,0 0,0 0,0"
     id="path41836" /><path
     style="fill:#ffffff;fill-opacity:1;stroke:none;stroke-width:0.461654"
     d="m 118.16202,157.76923 c 0,0 0,0 0,0 0,0 0,0 0,0 0,0 0,0 0,0"
     id="path41834" /><path
     style="fill:#ffffff;fill-opacity:1;stroke:none;stroke-width:0.461654"
     d="m 85.20376,211.42917 c -3.250646,1.19212 -5.808406,4.03165 -6.727669,3.47567 -0.919263,-0.55597 -0.20003,-4.50745 1.033804,-8.29137 1.233834,-3.78392 2.982269,-7.40028 4.890939,-11.05281 1.90867,-3.65253 3.97757,-7.34121 4.901141,-10.92582 0.923575,-3.58461 0.701815,-7.06514 0.604992,-10.60016 -0.09682,-3.53502 -0.0687,-7.12452 1.798755,-10.53324 1.867454,-3.40871 5.574237,-6.63663 7.285523,-9.75357 1.711275,-3.11696 1.427065,-6.12294 1.303965,-9.14985 -0.12309,-3.02691 -0.085,-6.07474 0.11432,-9.14721 0.19938,-3.07248 0.56009,-6.16958 1.08179,-9.28614 0.5217,-3.11656 1.20439,-6.25257 2.71809,-9.31666 1.51369,-3.06409 3.85839,-6.05627 6.38814,-8.94989 2.52976,-2.89362 5.24455,-5.68868 8.14067,-8.350167 2.89612,-2.661484 5.97357,-5.189393 9.22656,-7.560908 3.25299,-2.371515 6.68152,-4.586644 10.4979,-5.66804 3.81639,-1.081396 8.02062,-1.029068 11.78236,-1.502992 3.76175,-0.473929 7.08099,-1.474111 10.31976,-2.312243 3.23877,-0.838128 6.39706,-1.514201 10.1758,-2.604041 3.77875,-1.089844 8.17794,-2.593454 10.79596,-4.108943 2.61801,-1.515489 3.45485,-3.042856 4.99656,-2.045089 1.54172,0.997767 3.78832,4.520669 4.22312,6.817068 0.4348,2.296395 -0.9422,3.366291 -3.21876,4.11237 -2.27657,0.746073 -5.4527,1.168334 -8.28282,3.03799 -2.83013,1.86966 -5.31424,5.186715 -7.64272,8.629488 -2.32848,3.442768 -4.50132,7.011247 -6.40838,8.090877 -1.90705,1.07962 -3.54833,-0.32961 -5.4827,-0.8171 -1.93437,-0.48749 -4.16183,-0.0532 -5.87835,1.65377 -1.71652,1.70701 -2.92209,4.68677 -1.94339,5.76079 0.97869,1.07401 4.14164,0.2423 5.55434,1.14659 1.41271,0.90429 1.07515,3.54459 0.0257,6.47126 -1.04941,2.92667 -2.81067,6.13971 -6.33283,7.36214 -3.52215,1.22243 -8.8052,0.45423 -12.80369,0.036 -3.99849,-0.41826 -6.71242,-0.4866 -9.45096,-0.44465 -2.73855,0.042 -5.50171,0.19417 -7.84177,-1.43577 -2.34007,-1.62994 -4.25705,-5.04205 -6.83908,-5.31393 -2.58203,-0.27186 -5.8291,2.59651 -7.98242,5.9003 -2.15333,3.30379 -3.21289,7.04301 -4.02808,10.76383 -0.8152,3.72083 -1.38603,7.42325 -0.6617,10.69507 0.72433,3.27183 2.74383,6.11305 4.90442,8.93598 2.1606,2.82294 4.46228,5.62758 6.28666,10.29532 1.82438,4.66774 3.17145,11.19858 4.77817,15.81766 1.60671,4.61909 3.47306,7.32644 5.46997,9.97489 1.99691,2.64844 4.12436,5.238 2.38383,8.3366 -1.74053,3.09861 -7.34906,6.70628 -12.83043,8.72036 -5.48137,2.01408 -10.83558,2.43457 -15.484464,2.41717 -4.64888,-0.0174 -8.592418,-0.47269 -11.843069,0.71943 m 51.297353,-91.12558 c 0,0 0,0 0,0 0,0 0,0 0,0 0,0 0,0 0,0 m -1.34142,-2.28207 c 0,0 0,0 0,0 0,0 0,0 0,0 0,0 0,0 0,0 m 6.284,-8.42803 c 0,0 0,0 0,0 0,0 0,0 0,0 0,0 0,0 0,0 m -48.77552,72.94007 c 0,0 0,0 0,0 0,0 0,0 0,0 0,0 0,0 0,0 m 46.8632,-67.98337 c 0,0 0,0 0,0 0,0 0,0 0,0 0,0 0,0 0,0 m -0.21911,0.3166 c 0,0 0,0 0,0 0,0 0,0 0,0 0,0 0,0 0,0 m 7.75199,10.95394 c 0,0 0,0 0,0 0,0 0,0 0,0 0,0 0,0 0,0 m 1.04116,-13.28338 c 0,0 0,0 0,0 0,0 0,0 0,0 0,0 0,0 0,0"
     id="path41832" /><path
     style="fill:#ffffff;fill-opacity:1;stroke:none;stroke-width:0.461654"
     d="m 335.73872,108.41883 c 0,0 0,0 0,0 0,0 0,0 0,0 0,0 0,0 0,0"
     id="path41830" /><path
     style="fill:#ffffff;fill-opacity:1;stroke:none;stroke-width:0.461654"
     d="m 116.47143,161.43948 c 0,0 0,0 0,0 0,0 0,0 0,0 0,0 0,0 0,0"
     id="path41828" /><path
     style="fill:#ffffff;fill-opacity:1;stroke:none;stroke-width:0.461654"
     d="m 343.17039,126.08513 c 0,0 0,0 0,0 0,0 0,0 0,0 0,0 0,0 0,0"
     id="path41826" /><path
     style="fill:#ffffff;fill-opacity:1;stroke:none;stroke-width:0.461654"
     d="m 236.40762,208.07115 c 0,0 0,0 0,0 0,0 0,0 0,0 0,0 0,0 0,0"
     id="path41824" /><path
     style="fill:#ffffff;fill-opacity:1;stroke:none;stroke-width:0.461654"
     d="m 180.0536,214.20851 c 0,0 0,0 0,0 0,0 0,0 0,0 0,0 0,0 0,0"
     id="path41822" /><path
     style="fill:#ffffff;fill-opacity:1;stroke:none;stroke-width:0.461654"
     d="m 280.88082,164.30464 c 0,0 0,0 0,0 0,0 0,0 0,0 0,0 0,0 0,0"
     id="path41820" /><path
     style="fill:#ffffff;fill-opacity:1;stroke:none;stroke-width:0.461654"
     d="m 291.30252,129.04022 c 0,0 0,0 0,0 0,0 0,0 0,0 0,0 0,0 0,0"
     id="path41818" /><path
     style="fill:#ffffff;fill-opacity:1;stroke:none;stroke-width:0.461654"
     d="m 308.95949,104.1836 c 0,0 0,0 0,0 0,0 0,0 0,0 0,0 0,0 0,0"
     id="path41816" /><path
     style="fill:#ffffff;fill-opacity:1;stroke:none;stroke-width:0.461654"
     d="m 242.3669,222.44961 c 0,0 0,0 0,0 0,0 0,0 0,0 0,0 0,0 0,0"
     id="path41814" /><path
     style="fill:#ffffff;fill-opacity:1;stroke:none;stroke-width:0.461654"
     d="m 189.45818,171.46719 c 0,0 0,0 0,0 0,0 0,0 0,0 0,0 0,0 0,0"
     id="path41812" /><path
     style="fill:#ffffff;fill-opacity:1;stroke:none;stroke-width:0.461654"
     d="m 296.85141,89.960589 c 0,0 0,0 0,0 0,0 0,0 0,0 0,0 0,0 0,0"
     id="path41810" /><path
     style="fill:#ffffff;fill-opacity:1;stroke:none;stroke-width:0.461654"
     d="m 117.07002,161.03846 c 0,0 0,0 0,0 0,0 0,0 0,0 0,0 0,0 0,0"
     id="path41808" /><path
     style="fill:#ffffff;fill-opacity:1;stroke:none;stroke-width:0.461654"
     d="m 118.46553,156.02326 c 0,0 0,0 0,0 0,0 0,0 0,0 0,0 0,0 0,0"
     id="path41806" /><path
     style="fill:#ffffff;fill-opacity:1;stroke:none;stroke-width:0.461654"
     d="m 64.221953,95.865333 c 0,0 0,0 0,0 0,0 0,0 0,0 0,0 0,0 0,0"
     id="path41804" /><path
     style="fill:#ffffff;fill-opacity:1;stroke:none;stroke-width:0.461654"
     d="m 178.44324,152.92283 c 0,0 0,0 0,0 0,0 0,0 0,0 0,0 0,0 0,0"
     id="path41802" /><path
     style="fill:#ffffff;fill-opacity:1;stroke:none;stroke-width:0.461654"
     d="m 185.2978,164.32124 c 0,0 0,0 0,0 0,0 0,0 0,0 0,0 0,0 0,0"
     id="path41800" /><path
     style="fill:#ffffff;fill-opacity:1;stroke:none;stroke-width:0.461654"
     d="m 190.43167,168.1486 c 0,0 0,0 0,0 0,0 0,0 0,0 0,0 0,0 0,0"
     id="path41798" /><path
     style="fill:#ffffff;fill-opacity:1;stroke:none;stroke-width:0.461654"
     d="m 178.21323,146.60987 c 0,0 0,0 0,0 0,0 0,0 0,0 0,0 0,0 0,0"
     id="path41796" /><path
     style="fill:#ffffff;fill-opacity:1;stroke:none;stroke-width:0.461654"
     d="m 115.49544,162.19956 c 0,0 0,0 0,0 0,0 0,0 0,0 0,0 0,0 0,0"
     id="path41794" /><path
     style="fill:#ffffff;fill-opacity:1;stroke:none;stroke-width:0.461654"
     d="m 178.2236,152.66178 c 0,0 0,0 0,0 0,0 0,0 0,0 0,0 0,0 0,0"
     id="path41792" /><path
     style="fill:#ffffff;fill-opacity:1;stroke:none;stroke-width:0.461654"
     d="m 296.23262,104.41985 c 0,0 0,0 0,0 0,0 0,0 0,0 0,0 0,0 0,0"
     id="path41790" /><path
     style="fill:#ffffff;fill-opacity:1;stroke:none;stroke-width:0.461654"
     d="m 179.4248,136.52169 c 0,0 0,0 0,0 0,0 0,0 0,0 0,0 0,0 0,0"
     id="path41788" /><path
     style="fill:#ffffff;fill-opacity:1;stroke:none;stroke-width:0.461654"
     d="m 180.43913,165.34057 c 0,0 0,0 0,0 0,0 0,0 0,0 0,0 0,0 0,0"
     id="path41786" /><path
     style="fill:#ffffff;fill-opacity:1;stroke:none;stroke-width:0.461654"
     d="m 161.3747,173.74944 c 0,0 0,0 0,0 0,0 0,0 0,0 0,0 0,0 0,0"
     id="path41784" /><path
     style="fill:#ffffff;fill-opacity:1;stroke:none;stroke-width:0.461654"
     d="m 188.4345,146.11304 c 0,0 0,0 0,0 0,0 0,0 0,0 0,0 0,0 0,0"
     id="path41782" /><path
     style="fill:#ffffff;fill-opacity:1;stroke:none;stroke-width:0.461654"
     d="m 118.00381,158.7897 c 0,0 0,0 0,0 0,0 0,0 0,0 0,0 0,0 0,0"
     id="path41780" /><path
     style="fill:#ffffff;fill-opacity:1;stroke:none;stroke-width:0.461654"
     d="m 149.91827,184.8794 c 0,0 0,0 0,0 0,0 0,0 0,0 0,0 0,0 0,0"
     id="path41778" /><path
     style="fill:#ffffff;fill-opacity:1;stroke:none;stroke-width:0.461654"
     d="m 223.69517,222.30267 c 0,0 0,0 0,0 0,0 0,0 0,0 0,0 0,0 0,0"
     id="path41776" /><path
     style="fill:#ffffff;fill-opacity:1;stroke:none;stroke-width:0.461654"
     d="m 117.66005,162.87536 c 0,0 0,0 0,0 0,0 0,0 0,0 0,0 0,0 0,0"
     id="path41774" /><path
     style="fill:#ffffff;fill-opacity:1;stroke:none;stroke-width:0.461654"
     d="m 117.51629,136.17577 c 0,0 0,0 0,0 0,0 0,0 0,0 0,0 0,0 0,0"
     id="path41772" /><path
     style="fill:#ffffff;fill-opacity:1;stroke:none;stroke-width:0.461654"
     d="m 117.29779,135.27161 c 0,0 0,0 0,0 0,0 0,0 0,0 0,0 0,0 0,0"
     id="path41770" /><path
     style="fill:#ffffff;fill-opacity:1;stroke:none;stroke-width:0.461654"
     d="m 118.90157,156.9795 c 0,0 0,0 0,0 0,0 0,0 0,0 0,0 0,0 0,0"
     id="path41768" /><path
     style="fill:#ffffff;fill-opacity:1;stroke:none;stroke-width:0.461654"
     d="m 253.13823,187.73682 c 0,0 0,0 0,0 0,0 0,0 0,0 0,0 0,0 0,0"
     id="path41766" /><path
     style="fill:#ffffff;fill-opacity:1;stroke:none;stroke-width:0.461654"
     d="m 252.47961,185.96173 c 0,0 0,0 0,0 0,0 0,0 0,0 0,0 0,0 0,0"
     id="path41764" /><path
     style="fill:#ffffff;fill-opacity:1;stroke:none;stroke-width:0.461654"
     d="m 253.17442,186.75752 c 0,0 0,0 0,0 0,0 0,0 0,0 0,0 0,0 0,0"
     id="path41762" /><path
     style="fill:#ffffff;fill-opacity:1;stroke:none;stroke-width:0.461654"
     d="m 323.9021,104.2281 c 0,0 0,0 0,0 0,0 0,0 0,0 0,0 0,0 0,0"
     id="path41760" /><path
     style="fill:#ffffff;fill-opacity:1;stroke:none;stroke-width:0.461654"
     d="m 324.39781,104.96851 c 0,0 0,0 0,0 0,0 0,0 0,0 0,0 0,0 0,0"
     id="path41758" /><path
     style="fill:#ffffff;fill-opacity:1;stroke:none;stroke-width:0.461654"
     d="m 183.87193,149.42632 c 0,0 0,0 0,0 0,0 0,0 0,0 0,0 0,0 0,0"
     id="path41756" /><path
     style="fill:#ffffff;fill-opacity:1;stroke:none;stroke-width:0.461654"
     d="m 176.5607,207.45138 c -3.1989,-1.35647 -7.67422,-1.69525 -11.30106,-4.03247 -3.62683,-2.33723 -6.40519,-6.67289 -7.43372,-10.56864 -1.02854,-3.89576 -0.30726,-7.3516 2.37913,-11.33932 2.68638,-3.98772 7.33788,-8.50731 12.57672,-10.19385 5.23884,-1.68654 11.06503,-0.54004 16.90051,0.49696 5.83548,1.03699 11.68025,1.96448 13.286,0.82578 1.60576,-1.1387 -1.02751,-4.34358 -0.53374,-6.86996 0.49377,-2.52639 4.11457,-4.37428 4.51074,-5.75767 0.39618,-1.38339 -2.43229,-2.30227 -4.79178,-1.24287 -2.35948,1.0594 -4.24998,4.09709 -7.59962,4.78505 -3.34965,0.68795 -8.15843,-0.97382 -11.57231,-0.58249 -3.41389,0.39135 -5.43286,2.83581 -7.09824,2.51567 -1.66538,-0.32015 -2.97716,-3.40489 -1.09433,-6.87223 1.88282,-3.46733 6.96024,-7.31725 10.6714,-9.32251 3.71116,-2.00525 6.05605,-2.16584 7.16959,-4.35494 1.11354,-2.1891 0.99572,-6.40672 0.21716,-6.40868 -0.77856,-0.002 -2.21787,4.21172 -3.35676,4.77984 -1.1389,0.56812 -1.97737,-2.50934 -1.52492,-5.53161 0.45245,-3.02227 2.19584,-5.98936 4.57339,-7.28564 2.37755,-1.29628 5.38927,-0.92175 6.64651,0.0219 1.25722,0.94363 0.75996,2.45634 1.56417,-1.19515 0.80422,-3.6515 2.90993,-12.46721 4.75729,-16.85933 1.84736,-4.39213 3.43637,-4.36066 3.82882,-6.26627 0.39246,-1.90562 -0.41165,-5.74832 -1.13735,-8.940518 -0.72571,-3.192201 -1.37302,-5.733909 -2.95697,-7.858665 -1.58394,-2.124756 -4.10453,-3.832561 -4.90247,-5.580367 -0.79793,-1.747803 0.12678,-3.535607 2.27028,-3.430507 2.1435,0.105095 5.50577,2.103095 8.7839,4.283278 3.27813,2.180187 6.4721,4.542556 9.61826,6.863427 3.14615,2.320872 6.24449,4.600236 8.97135,5.386783 2.72686,0.786547 5.08226,0.08027 7.67838,0.975802 2.59613,0.895529 5.433,3.392867 8.1221,5.995497 2.6891,2.60263 5.23044,5.31056 6.14357,7.78448 0.91314,2.47391 0.19807,4.71381 2.00155,6.56413 1.80348,1.85033 6.12551,3.31108 8.60239,5.70537 2.47688,2.39429 3.10862,5.72213 3.56693,9.04919 0.45831,3.32706 0.74319,6.65334 2.25681,10.37633 1.51362,3.723 4.25598,7.84271 2.6189,9.72027 -1.63708,1.87757 -7.6536,1.51299 -10.84674,3.46181 -3.19315,1.94883 -3.56292,6.21107 -4.15849,10.45956 -0.59557,4.2485 -1.41693,8.48326 -4.66109,8.78644 -3.24417,0.30318 -8.91114,-3.32521 -13.22618,-4.35046 -4.31504,-1.02525 -7.27815,0.55265 -8.04794,2.53747 -0.76979,1.98482 0.65373,4.37656 -0.63176,7.877 -1.28549,3.50044 -5.28001,8.10957 -5.97858,10.02442 -0.69858,1.91485 1.89878,1.13541 2.46277,2.55741 0.564,1.422 -0.90539,5.04543 -2.5084,8.6088 -1.60302,3.56336 -3.33968,7.06666 -4.07909,11.29766 -0.73942,4.23099 -0.48159,9.18969 -1.53719,13.51961 -1.05561,4.32992 -3.42464,8.03105 -6.0273,11.5986 -2.60266,3.56754 -5.43894,7.00148 -8.27302,9.17164 -2.83407,2.17015 -5.66592,3.07651 -7.89077,2.16955 -2.22484,-0.90696 -3.84268,-3.62725 -5.37911,-6.50508 -1.53642,-2.87784 -2.99144,-5.91322 -4.07551,-11.06376 -1.08407,-5.15054 -1.7972,-12.41624 -3.115,-17.23617 -1.31781,-4.81992 -3.24029,-7.19408 -6.43918,-8.55054 m 20.8134,-64.25315 c 0,0 0,0 0,0 0,0 0,0 0,0 0,0 0,0 0,0 m 45.56436,-40.68305 c 0,0 0,0 0,0 0,0 0,0 0,0 0,0 0,0 0,0 m -21.10135,52.08647 c 0,0 0,0 0,0 0,0 0,0 0,0 0,0 0,0 0,0 m 0.14224,-4.02763 c 0,0 0,0 0,0 0,0 0,0 0,0 0,0 0,0 0,0 m -9.22397,76.74924 c 0,0 0,0 0,0 0,0 0,0 0,0 0,0 0,0 0,0 m -7.10848,-9.73985 c 0,0 0,0 0,0 0,0 0,0 0,0 0,0 0,0 0,0 m 5.26606,-5.30409 c 0,0 0,0 0,0 0,0 0,0 0,0 0,0 0,0 0,0 m 6.25145,-49.99686 c 0,0 0,0 0,0 0,0 0,0 0,0 0,0 0,0 0,0 m -34.68724,47.85397 c 0,0 0,0 0,0 0,0 0,0 0,0 0,0 0,0 0,0 m 40.1998,-34.56847 c 0,0 0,0 0,0 0,0 0,0 0,0 0,0 0,0 0,0 m -36.99454,-13.12902 c 0,0 0,0 0,0 0,0 0,0 0,0 0,0 0,0 0,0 m 17.89102,-35.94133 c 0,0 0,0 0,0 0,0 0,0 0,0 0,0 0,0 0,0 m 1.80808,44.8457 c 0,0 0,0 0,0 0,0 0,0 0,0 0,0 0,0 0,0"
     id="path34005" /><path
     d="m 344.87544,166.22585 -0.42634,-2.81882 -0.29542,-2.92084 -0.18154,-2.96002 -0.0596,-2.93492 0.0773,-2.84101 0.23432,-2.67231 0.41415,-2.42279 0.61586,-2.08851 0.8341,-1.66943 1.05891,-1.17125 1.27596,-0.60673 1.46765,0.004 1.61483,0.63355 1.69912,1.24996 1.7054,1.81945 1.62412,2.31144 1.45299,2.70334 1.19776,2.98395 0.87216,3.15374 0.49656,3.22151 0.096,3.19863 -0.29484,3.09334 -0.57575,2.90014 -0.81164,2.61208 -1.02237,2.24057 -1.19927,1.80123 -1.33407,1.31154 -1.42053,0.78978 -1.4558,0.25414 -1.44073,-0.27811 -1.37949,-0.79113 -1.2785,-1.27083 -1.14513,-1.70519 -0.98673,-2.08422 -0.8098,-2.39995 z"
     fill="#ff0000"
     stroke="#ff0000"
     stroke-width="1.1"
     fill-opacity="0.05"
     stroke-opacity="1"
     stroke-linecap="round"
     stroke-linejoin="round"
     stroke-dasharray="none"
     id="path38083"
     style="fill:#de3b38;fill-opacity:1;stroke:none;stroke-opacity:1" /><path
     d="m 41.743513,180.90649 -0.07538,-3.01907 0.131792,-3.06883 0.33582,-3.00889 0.528881,-2.83695 0.703232,-2.55722 0.851331,-2.18051 0.983991,-1.72414 1.07053,-1.20943 1.094085,-0.65758 1.064888,-0.0927 0.9969,0.4606 0.904953,0.98045 0.802309,1.44999 0.695573,1.85806 0.561974,2.1968 0.416644,2.45991 0.268305,2.64495 0.120201,2.7519 -0.02513,2.78248 -0.165689,2.73963 -0.29984,2.62714 -0.426264,2.44936 -0.543837,2.21123 -0.651498,1.91818 -0.748007,1.57632 -0.831662,1.19247 -0.899998,0.77416 -0.949611,0.32974 -0.97625,-0.13171 -0.975233,-0.60027 -0.942226,-1.06507 -0.874199,-1.514 -0.770346,-1.93375 -0.632681,-2.30964 -0.466043,-2.62612 z"
     fill="#ff0000"
     stroke="#ff0000"
     stroke-width="1.1"
     fill-opacity="0.05"
     stroke-opacity="1"
     stroke-linecap="round"
     stroke-linejoin="round"
     stroke-dasharray="none"
     id="path38085"
     style="fill:#de3b38;fill-opacity:1;stroke:none;stroke-opacity:1" /><path
     d="m 60.16395,185.68324 0.430494,-2.38762 0.65457,-2.18248 0.852788,-1.90169 1.019417,-1.55562 1.14999,-1.15779 1.241545,-0.72408 1.292834,-0.27156 1.304353,0.1826 1.278135,0.62224 1.217335,1.03294 1.125728,1.40267 1.007256,1.72192 0.865708,1.98381 0.704569,2.18378 0.52708,2.31922 0.336328,2.38912 0.13549,2.39355 -0.07197,2.33348 -0.282113,2.21065 -0.490404,2.02756 -0.691615,1.78777 -0.879864,1.49624 -1.048665,1.15956 -1.191146,0.78613 -1.300379,0.38596 -1.369879,-0.0297 -1.394249,-0.44882 -1.369884,-0.8593 -1.29559,-1.24917 -1.172984,-1.60685 -1.006547,-1.92126 -0.803313,-2.18184 -0.57223,-2.37876 -0.323326,-2.50336 -0.06686,-2.54875 z"
     fill="#ff0000"
     stroke="#ff0000"
     stroke-width="1.1"
     fill-opacity="0.05"
     stroke-opacity="1"
     stroke-linecap="round"
     stroke-linejoin="round"
     stroke-dasharray="none"
     id="path38087"
     style="fill:#de3b38;fill-opacity:1;stroke:none;stroke-opacity:1" /><path
     d="m 84.127844,207.55713 0.768832,-1.63707 1.047005,-1.36206 1.287353,-1.04951 1.487787,-0.70943 1.647039,-0.35249 1.764435,0.0104 1.839696,0.36886 1.872851,0.71294 1.864077,1.03386 1.813672,1.32405 1.721969,1.57713 1.58939,1.78788 1.41643,1.95202 1.20382,2.06594 0.95265,2.12639 0.66469,2.13029 0.34279,2.0747 -0.008,1.95708 -0.38201,1.77587 -0.76746,1.53159 -1.15054,1.22798 -1.5131,0.87308 -1.83411,0.47952 -2.091836,0.0638 -2.266914,-0.35547 -2.345669,-0.76 -2.322474,-1.13349 -2.200516,-1.46294 -1.990769,-1.73865 -1.709693,-1.954 -1.376569,-2.10475 -1.010968,-2.18859 -0.630954,-2.20489 -0.251995,-2.15452 0.113497,-2.04002 z"
     fill="#ff0000"
     stroke="#ff0000"
     stroke-width="1.1"
     fill-opacity="0.05"
     stroke-opacity="1"
     stroke-linecap="round"
     stroke-linejoin="round"
     stroke-dasharray="none"
     id="path38089"
     style="fill:#de3b38;fill-opacity:1;stroke:none;stroke-opacity:1" /><path
     d="m 123.27925,235.36696 1.17749,-1.28978 1.62971,-1.04191 2.02136,-0.77559 2.35342,-0.49732 2.62691,-0.21331 2.84269,0.0705 3.00119,0.34867 3.10251,0.61619 3.14644,0.8686 3.13254,1.1019 3.06032,1.31263 2.92915,1.49769 2.7383,1.65427 2.4867,1.77963 2.17248,1.87075 1.79234,1.92391 1.34058,1.93401 0.80801,1.89358 0.18162,1.79164 -0.55177,1.61309 -1.39297,1.34078 -2.30702,0.9646 -3.20735,0.49777 -3.97556,-0.0149 -4.50772,-0.51497 -4.74897,-0.95822 -4.70042,-1.32468 -4.40367,-1.61035 -3.91857,-1.81778 -3.30677,-1.95154 -2.6232,-2.01667 -1.91253,-2.01856 -1.2086,-1.96289 -0.53524,-1.85573 0.0921,-1.70341 z"
     fill="#ff0000"
     stroke="#ff0000"
     stroke-width="1.1"
     fill-opacity="0.05"
     stroke-opacity="1"
     stroke-linecap="round"
     stroke-linejoin="round"
     stroke-dasharray="none"
     id="path38091"
     style="fill:#de3b38;fill-opacity:1;stroke:none;stroke-opacity:1" /><path
     d="m 192.11501,257.71824 0.14218,-1.72953 0.53665,-1.73164 0.92243,-1.68704 1.27413,-1.61355 1.58837,-1.51527 1.86285,-1.39516 2.09585,-1.2557 2.286,-1.09915 2.43208,-0.92772 2.53302,-0.74365 2.58786,-0.54926 2.59566,-0.347 2.55549,-0.13945 2.46634,0.0706 2.32709,0.28035 2.13647,0.48659 1.89307,0.68613 1.59538,0.87558 1.24196,1.0514 0.83177,1.20995 0.36459,1.34754 -0.15824,1.46047 -0.733,1.54508 -1.35248,1.59785 -2.00474,1.61555 -2.67171,1.59515 -3.32742,1.53387 -3.93492,1.42857 -4.43849,1.27381 -4.7398,1.05489 -4.62526,0.72283 -3.70223,0.14761 -2.20912,-0.67146 -1.27765,-1.28807 -0.76596,-1.5811 z"
     fill="#ff0000"
     stroke="#ff0000"
     stroke-width="1.1"
     fill-opacity="0.05"
     stroke-opacity="1"
     stroke-linecap="round"
     stroke-linejoin="round"
     stroke-dasharray="none"
     id="path38093"
     style="fill:#de3b38;fill-opacity:1;stroke:none;stroke-opacity:1" /><path
     d="m 249.94776,238.43986 -0.58491,-1.34997 0.008,-1.62778 0.54306,-1.84084 1.00985,-1.98762 1.40695,-2.06957 1.73678,-2.08986 2.00346,-2.05246 2.21146,-1.96165 2.36489,-1.82189 2.46713,-1.63775 2.52072,-1.41402 2.52736,-1.15579 2.48795,-0.86864 2.40263,-0.55862 2.27093,-0.23235 2.09187,0.10293 1.86414,0.43947 1.5864,0.76906 1.25759,1.08309 0.87741,1.3728 0.44707,1.62944 -0.0298,1.84449 -0.54611,2.00997 -1.08991,2.11874 -1.64348,2.16484 -2.18263,2.14374 -2.67699,2.05289 -3.09171,1.89179 -3.39063,1.66255 -3.54113,1.37013 -3.52013,1.02269 -3.31987,0.63208 -2.95204,0.21378 -2.44779,-0.21339 -1.85248,-0.62899 z"
     fill="#ff0000"
     stroke="#ff0000"
     stroke-width="1.1"
     fill-opacity="0.05"
     stroke-opacity="1"
     stroke-linecap="round"
     stroke-linejoin="round"
     stroke-dasharray="none"
     id="path38095"
     style="fill:#de3b38;fill-opacity:1;stroke:none;stroke-opacity:1" /><path
     d="m 298.47476,208.31745 -0.59672,-1.75746 -0.24387,-2.03315 0.087,-2.24459 0.38948,-2.38845 0.66099,-2.46326 0.90108,-2.46903 1.11069,-2.40704 1.29111,-2.27965 1.44328,-2.09023 1.56741,-1.84321 1.66261,-1.54417 1.727,-1.19988 1.75779,-0.8184 1.75162,-0.40909 1.70509,0.0175 1.61511,0.44955 1.47947,0.87464 1.29699,1.27973 1.06785,1.65167 0.7936,1.97773 0.47749,2.24613 0.12488,2.44652 -0.25616,2.57061 -0.65386,2.61254 -1.05236,2.56942 -1.43169,2.44143 -1.76897,2.23217 -2.04075,1.94842 -2.22615,1.60006 -2.3104,1.19964 -2.28734,0.76184 -2.16082,0.30277 -1.94377,-0.16091 -1.65603,-0.61285 -1.32071,-1.03793 z"
     fill="#ff0000"
     stroke="#ff0000"
     stroke-width="1.1"
     fill-opacity="0.05"
     stroke-opacity="1"
     stroke-linecap="round"
     stroke-linejoin="round"
     stroke-dasharray="none"
     id="path38097"
     style="fill:#de3b38;fill-opacity:1;stroke:none;stroke-opacity:1" /><path
     d="m 330.18411,178.78014 -0.58039,-2.4207 -0.35901,-2.60964 -0.13782,-2.72569 0.0812,-2.76699 0.29676,-2.733 0.49708,-2.6247 0.65084,-2.448 0.80348,-2.20701 0.95997,-1.90248 1.11697,-1.53669 1.26779,-1.11479 1.40262,-0.6457 1.50916,-0.14279 1.57377,0.37642 1.58324,0.89143 1.5265,1.38069 1.39653,1.82444 1.1918,2.20709 0.91711,2.51861 0.58477,2.75421 0.27128,2.90789 -0.0233,2.96615 -0.32171,2.92501 -0.61475,2.78602 -0.8918,2.5549 -1.14052,2.24111 -1.34811,1.85718 -1.5031,1.418 -1.59732,0.93994 -1.62742,0.43998 -1.59525,-0.065 -1.5072,-0.55912 -1.37284,-1.02767 -1.20309,-1.45791 -1.0086,-1.83898 z"
     fill="#ff0000"
     stroke="#ff0000"
     stroke-width="1.1"
     fill-opacity="0.05"
     stroke-opacity="1"
     stroke-linecap="round"
     stroke-linejoin="round"
     stroke-dasharray="none"
     id="path38099"
     style="fill:#de3b38;fill-opacity:1;stroke:none;stroke-opacity:1" /><path
     d="m 306.36887,98.565588 -3.02039,-2.160097 -3.06622,-2.367201 -3.0502,-2.50543 -2.96348,-2.574802 -2.79577,-2.577194 -2.53605,-2.516274 -2.1742,-2.39737 -1.70328,-2.227226 -1.12311,-2.013595 -0.44422,-1.764453 0.30897,-1.486651 1.09748,-1.184019 1.87126,-0.855524 2.57663,-0.494676 3.16511,-0.09149 3.60053,0.362558 3.86273,0.867761 3.9473,1.410167 3.86336,1.959354 3.62992,2.471784 3.27247,2.899125 2.81974,3.198725 2.30102,3.342442 1.74397,3.321034 1.17309,3.143434 0.6087,2.832158 0.0666,2.417144 -0.4421,1.930088 -0.91017,1.4005 -1.33376,0.85367 -1.71148,0.3102 -2.04335,-0.2135 -2.33008,-0.70441 -2.57211,-1.15212 -2.76919,-1.5482 z"
     fill="#ff0000"
     stroke="#ff0000"
     stroke-width="1.1"
     fill-opacity="0.05"
     stroke-opacity="1"
     stroke-linecap="round"
     stroke-linejoin="round"
     stroke-dasharray="none"
     id="path38101"
     style="fill:#de3b38;fill-opacity:1;stroke:none;stroke-opacity:1" /><path
     d="m 71.819748,99.136518 3.205798,-3.766604 3.548214,-3.454179 3.746663,-2.98088 3.766931,-2.391524 3.588291,-1.739336 3.210122,-1.072859 2.655346,-0.426814 1.968667,0.1799 1.209017,0.740107 0.438328,1.251954 -0.289449,1.713758 -0.935489,2.121606 -1.47801,2.469376 -1.910022,2.750001 -2.23501,2.956962 -2.462609,3.085474 -2.60507,3.13311 -2.674984,3.10007 -2.683904,2.98885 -2.641696,2.80391 -2.556264,2.55101 -2.433536,2.23671 -2.277544,1.86774 -2.09053,1.45068 -1.873086,0.9918 -1.624347,0.49705 -1.342242,-0.0275 -1.023884,-0.5754 -0.666149,-1.13829 -0.266498,-1.70506 0.175907,-2.26012 0.658838,-2.78172 1.175446,-3.24117 1.712723,-3.6037 2.250261,-3.83196 z"
     fill="#ff0000"
     stroke="#ff0000"
     stroke-width="1.1"
     fill-opacity="0.05"
     stroke-opacity="1"
     stroke-linecap="round"
     stroke-linejoin="round"
     stroke-dasharray="none"
     id="path38103"
     style="fill:#de3b38;fill-opacity:1;stroke:none;stroke-opacity:1" /><path
     d="m 84.589789,132.36545 1.816402,-2.51472 1.987186,-2.1906 2.069091,-1.7734 2.058327,-1.28373 2.013835,-0.53345 1.843995,0.0259 1.599431,0.51008 1.312734,0.96266 1.00133,1.37066 0.68076,1.7244 0.36352,2.01707 0.0587,2.24431 -0.22775,2.40369 -0.4926,2.4943 -0.734348,2.51647 -0.952669,2.47154 -1.147618,2.3618 -1.258015,2.28583 -1.400863,2.05726 -1.516051,1.78091 -1.600409,1.46358 -1.650813,1.11186 -1.664097,0.7326 -1.637223,0.33302 -1.567459,-0.0791 -1.452562,-0.49574 -1.291051,-0.90814 -1.082572,-1.30734 -0.828352,-1.68393 -0.531747,-2.02794 -0.198823,-2.32853 0.161102,-2.57364 0.535208,-2.74998 0.90725,-2.84355 1.258258,-2.84119 z"
     fill="#ff0000"
     stroke="#ff0000"
     stroke-width="1.1"
     fill-opacity="0.05"
     stroke-opacity="1"
     stroke-linecap="round"
     stroke-linejoin="round"
     stroke-dasharray="none"
     id="path38105"
     style="fill:#de3b38;fill-opacity:1;stroke:none;stroke-opacity:1" /><path
     d="m 107.6424,170.368 1.03967,-1.90103 1.30801,-1.63397 1.48867,-1.3601 1.63067,-1.03236 1.74986,-0.64081 1.81123,-0.23279 1.81649,0.17911 1.77016,0.58249 1.67736,0.96561 1.54297,1.31777 1.37329,1.6295 1.17392,1.89275 0.94997,2.10098 0.70596,2.24906 0.44589,2.33322 0.17358,2.3511 -0.10719,2.30164 -0.39219,2.18516 -0.71377,1.97268 -1.24967,1.5212 -1.51074,1.23114 -1.72777,0.90576 -1.89152,0.55271 -1.99428,0.1808 -2.0308,-0.20001 -1.99879,-0.57887 -1.89933,-0.94447 -1.73673,-1.2856 -1.51811,-1.5916 -1.25255,-1.85275 -0.95033,-2.06052 -0.62225,-2.20773 -0.27906,-2.2887 0.0687,-2.29941 0.41094,-2.23783 z"
     fill="#ff0000"
     stroke="#ff0000"
     stroke-width="1.1"
     fill-opacity="0.05"
     stroke-opacity="1"
     stroke-linecap="round"
     stroke-linejoin="round"
     stroke-dasharray="none"
     id="path38107"
     style="fill:#de3b38;fill-opacity:1;stroke:none;stroke-opacity:1" /><path
     d="m 148.3688,201.81935 0.2429,-2.09422 0.60201,-1.93891 0.93188,-1.73019 1.22441,-1.47493 1.47328,-1.18091 1.67395,-0.85658 1.82334,-0.51092 1.91981,-0.15319 1.96298,0.20721 1.95347,0.56095 1.89287,0.89903 1.78352,1.21288 1.62846,1.49456 1.43136,1.73674 1.19648,1.93293 0.92871,2.07732 0.63356,2.16496 0.31712,2.19176 -0.0138,2.1546 -0.35191,2.05162 -0.68912,1.88256 -1.01672,1.64923 -1.32524,1.35614 -1.60414,1.01095 -1.84201,0.62479 -2.02667,0.21195 -2.14625,-0.21097 -2.46982,-0.79809 -2.40711,-1.173 -2.15117,-1.4431 -1.82315,-1.66457 -1.44069,-1.83026 -1.02223,-1.93588 -0.6339,-2.01235 -0.52079,-2.22197 z"
     fill="#ff0000"
     stroke="#ff0000"
     stroke-width="1.1"
     fill-opacity="0.05"
     stroke-opacity="1"
     stroke-linecap="round"
     stroke-linejoin="round"
     stroke-dasharray="none"
     id="path38109"
     style="fill:#de3b38;fill-opacity:1;stroke:none;stroke-opacity:1" /><path
     d="m 195.53729,213.36207 -0.24217,-2.12358 0.1036,-2.15879 0.44089,-2.13051 0.76083,-2.04234 1.05549,-1.89877 1.31793,-1.70506 1.54226,-1.46719 1.72356,-1.19173 1.85788,-0.88592 1.94216,-0.55746 1.97421,-0.21455 1.95283,0.13433 1.87766,0.48048 1.74943,0.8152 1.56989,1.12992 1.34206,1.41638 1.07023,1.66675 0.76016,1.87376 0.41918,2.03078 0.0563,2.13199 -0.31769,2.17243 -0.6903,2.14824 -1.04765,2.05693 -1.37497,1.89772 -1.65766,1.6721 -1.88265,1.3844 -2.03986,1.04235 -2.12341,0.65744 -2.13202,0.24468 -2.06856,-0.17833 -1.93886,-0.5929 -1.75044,-0.98125 -1.51173,-1.32816 -1.23173,-1.62197 -0.92007,-1.85484 z"
     fill="#ff0000"
     stroke="#ff0000"
     stroke-width="1.1"
     fill-opacity="0.05"
     stroke-opacity="1"
     stroke-linecap="round"
     stroke-linejoin="round"
     stroke-dasharray="none"
     id="path38111"
     style="fill:#de3b38;fill-opacity:1;stroke:none;stroke-opacity:1" /><path
     d="m 242.51113,198.03848 -0.76143,-1.82986 -0.44917,-2.04305 -0.13659,-2.19222 0.16968,-2.27524 0.46416,-2.29164 0.74207,-2.24253 0.99908,-2.13026 1.23104,-1.9584 1.43388,-1.7317 1.60338,-1.45606 1.7353,-1.13859 1.82537,-0.78751 1.86948,-0.41215 1.86398,-0.0227 1.80608,0.36985 1.69421,0.75429 1.52844,1.11932 1.31067,1.45394 1.04493,1.7478 0.73726,1.99161 0.39588,2.17726 0.0309,2.29821 -0.34561,2.3496 -0.7199,2.32851 -1.07695,2.23415 -1.40101,2.06802 -1.67666,1.83412 -1.8902,1.53902 -2.031,1.19193 -2.09297,0.80449 -2.0752,0.39035 -1.98209,-0.0354 -1.82243,-0.45733 -1.60788,-0.86027 -1.35132,-1.23063 z"
     fill="#ff0000"
     stroke="#ff0000"
     stroke-width="1.1"
     fill-opacity="0.05"
     stroke-opacity="1"
     stroke-linecap="round"
     stroke-linejoin="round"
     stroke-dasharray="none"
     id="path38113"
     style="fill:#de3b38;fill-opacity:1;stroke:none;stroke-opacity:1" /><path
     d="m 280.94468,164.9424 -1.33287,-1.63511 -1.1527,-1.91441 -0.95426,-2.13844 -0.74061,-2.30231 -0.51426,-2.40242 -0.27707,-2.43641 -0.0307,-2.40301 0.22303,-2.30213 0.48157,-2.13486 0.74117,-1.90367 0.99648,-1.61262 1.24018,-1.26756 1.46295,-0.87655 1.65378,-0.44992 1.80069,-6.3e-4 1.89194,0.45662 1.91744,0.90465 1.87011,1.32604 1.74718,1.70381 1.55074,2.02306 1.28785,2.27222 0.97013,2.44376 0.61268,2.53423 0.23297,2.5436 -0.1506,2.4743 -0.52006,2.33052 -0.85919,2.11773 -1.15443,1.84266 -1.39284,1.51371 -1.5695,1.14081 -1.68956,0.73614 -1.75214,0.31278 -1.75895,-0.11584 -1.71413,-0.53669 -1.62346,-0.9374 z"
     fill="#ff0000"
     stroke="#ff0000"
     stroke-width="1.1"
     fill-opacity="0.05"
     stroke-opacity="1"
     stroke-linecap="round"
     stroke-linejoin="round"
     stroke-dasharray="none"
     id="path38115"
     style="fill:#de3b38;fill-opacity:1;stroke:none;stroke-opacity:1" /><path
     d="m 301.67769,124.4581 -2.22496,-1.88287 -2.21437,-2.17099 -2.16302,-2.40491 -2.06821,-2.58004 -1.92619,-2.69252 -1.73234,-2.73921 -1.48198,-2.71782 -1.17118,-2.62689 -0.79817,-2.46597 -0.36505,-2.235683 0.12026,-1.937866 0.6424,-1.575718 1.178,-1.153904 1.69684,-0.678757 2.16509,-0.158868 2.54992,0.393881 2.82432,0.962839 2.97077,1.525433 2.98288,2.0534 2.8651,2.515123 2.6309,2.8801 2.30023,3.12416 1.89681,3.23377 1.44557,3.20773 0.97065,3.05625 0.49375,2.79753 0.0331,2.45372 -0.3973,2.04741 -0.78732,1.59918 -1.13087,1.1266 -1.42522,0.64429 -1.67016,0.16431 -1.86726,-0.3031 -2.01895,-0.74909 -2.12786,-1.16571 z"
     fill="#ff0000"
     stroke="#ff0000"
     stroke-width="1.1"
     fill-opacity="0.05"
     stroke-opacity="1"
     stroke-linecap="round"
     stroke-linejoin="round"
     stroke-dasharray="none"
     id="path38117"
     style="fill:#de3b38;fill-opacity:1;stroke:none;stroke-opacity:1" /><path
     d="m 232.45988,78.663341 -2.15936,0.523372 -2.41114,0.311107 -2.61615,0.09396 -2.77394,-0.122821 -2.88424,-0.33479 -2.9469,-0.538242 -2.96194,-0.730108 -2.92938,-0.907863 -2.84944,-1.06946 -2.72236,-1.213286 -2.54863,-1.338105 -2.32889,-1.442998 -2.06404,-1.527208 -1.75526,-1.589763 -1.40347,-1.628213 -1.00556,-1.632324 -0.47938,-1.516788 0.52718,-0.445516 1.72441,-0.127918 5.09719,0.08909 5.28802,0.240439 5.12622,0.346962 4.83801,0.438678 4.46287,0.5335 4.02054,0.642945 3.52712,0.769689 2.99757,0.907755 2.44591,1.045001 1.88508,1.166718 1.32661,1.259057 0.7805,1.311491 0.25524,1.318012 -0.24226,1.277204 -0.70648,1.191522 -1.13312,1.066188 -1.51894,0.908064 z"
     fill="#ff0000"
     stroke="#ff0000"
     stroke-width="1.1"
     fill-opacity="0.05"
     stroke-opacity="1"
     stroke-linecap="round"
     stroke-linejoin="round"
     stroke-dasharray="none"
     id="path38119"
     style="fill:#de3b38;fill-opacity:1;stroke:none;stroke-opacity:1" /><path
     d="m 169.5169,67.233385 4.09232,-0.141457 3.29494,0.172499 2.126,0.576505 0.92279,1.004934 -0.0249,1.348964 -0.70855,1.566021 -1.2232,1.676153 -1.6342,1.709594 -1.97221,1.687632 -2.2503,1.623086 -2.47403,1.523668 -2.64589,1.394355 -2.76692,1.23873 -2.83767,1.059729 -2.85835,0.860061 -2.82903,0.642478 -2.74971,0.409971 -2.62041,0.16596 -2.44112,-0.08554 -2.21201,-0.339736 -1.93347,-0.590895 -1.60626,-0.832239 -1.23168,-1.055941 -0.81178,-1.25331 -0.34966,-1.415215 0.15038,-1.532872 0.68235,-1.598932 1.23839,-1.608821 1.80828,-1.562077 2.37904,-1.46326 2.93428,-1.32196 3.4533,-1.151443 3.90932,-0.965778 4.26628,-0.775718 4.47258,-0.584042 z"
     fill="#ff0000"
     stroke="#ff0000"
     stroke-width="1.1"
     fill-opacity="0.05"
     stroke-opacity="1"
     stroke-linecap="round"
     stroke-linejoin="round"
     stroke-dasharray="none"
     id="path38121"
     style="fill:#de3b38;fill-opacity:1;stroke:none;stroke-opacity:1" /><path
     d="m 139.37425,96.101455 2.68693,-1.04256 2.60736,-0.644631 2.41568,-0.227128 2.12784,0.193819 1.76757,0.60194 1.36159,0.981657 0.93481,1.3193 0.5073,1.604281 0.0934,1.829677 -0.29729,1.99209 -0.65862,2.09098 -0.98651,2.12784 -1.27808,2.10543 -1.53109,2.02734 -1.74366,1.89763 -1.914,1.7207 -2.04043,1.50135 -2.12129,1.24471 -2.15488,0.95634 -2.13958,0.64227 -2.07395,0.30902 -1.95676,-0.0364 -1.78741,-0.38634 -1.56597,-0.73279 -1.29374,-1.06705 -0.97343,-1.37987 -0.60962,-1.66138 -0.20913,-1.90136 0.21871,-2.08933 0.6618,-2.21534 1.10517,-2.27077 1.5311,-2.24938 1.91955,-2.14848 2.24912,-1.969585 2.49854,-1.718622 z"
     fill="#ff0000"
     stroke="#ff0000"
     stroke-width="1.1"
     fill-opacity="0.05"
     stroke-opacity="1"
     stroke-linecap="round"
     stroke-linejoin="round"
     stroke-dasharray="none"
     id="path38123"
     style="fill:#de3b38;fill-opacity:1;stroke:none;stroke-opacity:1" /><path
     d="m 139.71354,129.13706 1.62748,-1.85056 1.83922,-1.56749 1.98274,-1.23041 2.05329,-0.85104 2.05031,-0.44313 1.97729,-0.0218 1.84097,0.39754 1.65032,0.79965 1.41537,1.17077 1.14631,1.49907 0.85294,1.7752 0.54434,1.9923 0.22876,2.14598 -0.0862,2.234 -0.39364,2.25598 -0.68715,2.21306 -0.96085,2.10775 -1.20914,1.94374 -1.42688,1.72583 -1.60913,1.45997 -1.75131,1.15313 -1.84915,0.81332 -1.8988,0.44955 -1.89704,0.0715 -1.8415,-0.31048 -1.73093,-0.68583 -1.56558,-1.04397 -1.3475,-1.37461 -1.08074,-1.66804 -0.7717,-1.91529 -0.42895,-2.10833 -0.0633,-2.24025 0.31248,-2.3054 0.6843,-2.29978 1.03719,-2.22139 z"
     fill="#ff0000"
     stroke="#ff0000"
     stroke-width="1.1"
     fill-opacity="0.05"
     stroke-opacity="1"
     stroke-linecap="round"
     stroke-linejoin="round"
     stroke-dasharray="none"
     id="path38125"
     style="fill:#de3b38;fill-opacity:1;stroke:none;stroke-opacity:1" /><path
     d="m 160.73111,153.5496 0.51093,-2.23873 0.84062,-2.11812 1.14253,-1.93187 1.4063,-1.68486 1.62314,-1.38411 1.78631,-1.03868 1.89129,-0.65951 1.93586,-0.25903 1.92007,0.14934 1.84587,0.55186 1.71696,0.9352 1.53835,1.28702 1.31628,1.59657 1.05781,1.85498 0.77075,2.05535 0.4634,2.1928 0.14442,2.26433 -0.17745,2.26875 -0.49347,2.20647 -0.79515,2.07953 -1.07438,1.8915 -1.32363,1.64755 -1.53599,1.35435 -1.70533,1.02014 -1.82641,0.65451 -1.89505,0.26828 -1.90819,-0.12693 -1.86424,-0.51905 -1.76317,-0.89604 -1.60672,-1.24633 -1.39862,-1.55934 -1.14422,-1.82566 -0.85085,-2.0374 -0.5277,-2.18828 -0.18527,-2.27372 z"
     fill="#ff0000"
     stroke="#ff0000"
     stroke-width="1.1"
     fill-opacity="0.05"
     stroke-opacity="1"
     stroke-linecap="round"
     stroke-linejoin="round"
     stroke-dasharray="none"
     id="path38127"
     style="fill:#de3b38;fill-opacity:1;stroke:none;stroke-opacity:1" /><path
     d="m 191.43099,162.95634 -0.49923,-2.19886 -0.17534,-2.26706 0.15431,-2.26816 0.4801,-2.20176 0.79249,-2.06918 1.08221,-1.87352 1.3406,-1.61975 1.55981,-1.31477 1.73304,-0.96741 1.85474,-0.58828 1.92073,-0.18946 1.92843,0.21603 1.87689,0.61474 1.767,0.99355 1.60155,1.34028 1.38529,1.64411 1.12482,1.89602 0.82838,2.08892 0.50558,2.21769 0.167,2.27919 -0.17627,2.27215 -0.51303,2.1971 -0.83244,2.05639 -1.12438,1.85405 -1.38001,1.5959 -1.59181,1.2894 -1.75375,0.94363 -1.8616,0.56905 -1.9128,0.17715 -1.90658,-0.21989 -1.84375,-0.60972 -1.72661,-0.98031 -1.55888,-1.3205 -1.34557,-1.62023 -1.09288,-1.87092 z"
     fill="#ff0000"
     stroke="#ff0000"
     stroke-width="1.1"
     fill-opacity="0.05"
     stroke-opacity="1"
     stroke-linecap="round"
     stroke-linejoin="round"
     stroke-dasharray="none"
     id="path38129"
     style="fill:#de3b38;fill-opacity:1;stroke:none;stroke-opacity:1" /><path
     d="m 222.2855,154.15628 -1.36194,-1.68881 -1.1308,-1.91993 -0.87037,-2.09631 -0.58676,-2.21299 -0.28648,-2.26629 0.0236,-2.25391 0.3363,-2.17494 0.64405,-2.0301 0.93906,-1.82188 1.21318,-1.55482 1.4581,-1.23569 1.66544,-0.87355 1.82693,-0.47972 1.93491,-0.0673 1.98279,0.34944 1.96591,0.75565 1.88207,1.13695 1.73224,1.4801 1.52068,1.77368 1.2549,2.00851 0.94507,2.17795 0.60349,2.27793 0.24358,2.30682 -0.12079,2.26521 -0.47615,2.15569 -0.81005,1.98253 -1.11158,1.7516 -1.37174,1.47019 -1.5836,1.14687 -1.74253,0.79134 -1.84588,0.4141 -1.89304,0.0263 -1.88496,-0.36075 -1.82403,-0.73596 -1.71363,-1.08871 z"
     fill="#ff0000"
     stroke="#ff0000"
     stroke-width="1.1"
     fill-opacity="0.05"
     stroke-opacity="1"
     stroke-linecap="round"
     stroke-linejoin="round"
     stroke-dasharray="none"
     id="path38131"
     style="fill:#de3b38;fill-opacity:1;stroke:none;stroke-opacity:1" /><path
     d="m 243.81426,130.16078 -1.99975,-0.91936 -1.94162,-1.22949 -1.838,-1.50693 -1.69162,-1.74514 -1.50528,-1.93824 -1.28194,-2.08096 -1.02474,-2.16874 -0.7371,-2.19767 -0.42291,-2.1647 -0.0867,-2.06778 0.26601,-1.9063 0.6282,-1.68152 0.99081,-1.39721 1.34221,-1.06001 1.66789,-0.67976 1.95086,-0.26911 2.17321,0.15701 2.31843,0.58231 2.37413,0.99017 2.33424,1.36442 2.19996,1.69027 1.9792,1.95516 1.68525,2.14963 1.33481,2.26794 0.94609,2.30831 0.53729,2.27264 0.12548,2.16585 -0.27427,1.99505 -0.64917,1.76875 -0.98905,1.4961 -1.28618,1.18661 -1.53524,0.84981 -1.73295,0.49519 -1.87785,0.13204 -1.96983,-0.23055 z"
     fill="#ff0000"
     stroke="#ff0000"
     stroke-width="1.1"
     fill-opacity="0.05"
     stroke-opacity="1"
     stroke-linecap="round"
     stroke-linejoin="round"
     stroke-dasharray="none"
     id="path38133"
     style="fill:#de3b38;fill-opacity:1;stroke:none;stroke-opacity:1" /><path
     d="m 245.05245,97.287133 -2.22122,0.01861 -2.3887,-0.276967 -2.50474,-0.56061 -2.56955,-0.827453 -2.58338,-1.073172 -2.54648,-1.293798 -2.45887,-1.485562 -2.32038,-1.64469 -2.13045,-1.767201 -1.88792,-1.848663 -1.59078,-1.883961 -1.23568,-1.867133 -0.81746,-1.791514 -0.32941,-1.650617 0.23455,-1.440385 0.87255,-1.163008 1.56224,-0.830689 2.24989,-0.465408 2.85736,-0.09207 3.31014,0.270543 3.56532,0.613253 3.61826,0.932714 3.49133,1.225481 3.21906,1.484603 2.83799,1.699767 2.38182,1.859714 1.87948,1.955152 1.35513,1.980902 0.82828,1.936765 0.31442,1.827166 -0.1744,1.660021 -0.62911,1.445335 -1.04313,1.193885 -1.41181,0.916263 -1.73211,0.622237 z"
     fill="#ff0000"
     stroke="#ff0000"
     stroke-width="1.1"
     fill-opacity="0.05"
     stroke-opacity="1"
     stroke-linecap="round"
     stroke-linejoin="round"
     stroke-dasharray="none"
     id="path38135"
     style="fill:#de3b38;fill-opacity:1;stroke:none;stroke-opacity:1" /><g
     id="info"
     class="info"
     transform="translate(-719.32295,-148.19936)" /></svg>
